<?xml version="1.0" encoding="UTF-8"?>
<svg version="1.1" xmlns="http://www.w3.org/2000/svg" width="1024" height="1024">
<path d="M0 0 C337.92 0 675.84 0 1024 0 C1024 337.92 1024 675.84 1024 1024 C686.08 1024 348.16 1024 0 1024 C0 686.08 0 348.16 0 0 Z " fill="#FEFEFE" transform="translate(0,0)"/>
<path d="M0 0 C1.86282905 -0.00761181 1.86282905 -0.00761181 3.763291 -0.0153774 C5.14380109 -0.01597906 6.52431123 -0.01647815 7.9048214 -0.01688576 C9.3695768 -0.02090126 10.8343311 -0.02533963 12.29908407 -0.03016531 C16.32970002 -0.04212684 20.36030401 -0.04777828 24.39093423 -0.05234647 C28.73602537 -0.05830411 33.08110221 -0.06991352 37.4261837 -0.08063698 C47.92223988 -0.1051566 58.41830079 -0.11978715 68.9143768 -0.13269705 C71.87890295 -0.13640919 74.84342863 -0.1403824 77.80795431 -0.14444971 C96.21738818 -0.16968558 114.62682279 -0.1917386 133.03627014 -0.20417786 C137.30018301 -0.20710755 141.56409585 -0.21006921 145.82800865 -0.21308327 C146.8877824 -0.21382932 147.94755615 -0.21457537 149.03944425 -0.21534403 C166.20757922 -0.22799798 183.37561064 -0.26122197 200.54369719 -0.3028851 C218.16980623 -0.34530914 235.79586226 -0.3688734 253.42202222 -0.37409842 C263.31847546 -0.37751191 273.21476684 -0.38925993 283.11116982 -0.42220116 C291.53931144 -0.45020919 299.96725801 -0.46119765 308.39544256 -0.4500057 C312.6944808 -0.44482106 316.99311062 -0.44769298 321.29208946 -0.47247124 C325.2316163 -0.49498785 329.1704419 -0.49420568 333.10998122 -0.47526737 C334.53130497 -0.4724707 335.9526765 -0.47804745 337.3739235 -0.4930803 C347.41669487 -0.59276708 354.75995072 0.80718431 362.59705162 7.31279564 C363.49617271 8.37047142 363.49617271 8.37047142 364.41345787 9.44951439 C365.03091881 10.1468972 365.64837975 10.84428001 366.28455162 11.56279564 C370.62500069 18.16869849 371.41755086 24.21835609 371.36414146 31.91435814 C371.3720269 33.33060982 371.3720269 33.33060982 371.38007164 34.77547264 C371.39320194 37.87532491 371.38455819 40.97465751 371.37439537 44.07451439 C371.3764181 46.24110067 371.3793312 48.40768629 371.38309288 50.57427025 C371.3875068 55.10664438 371.3811151 59.63884068 371.36707115 64.17119408 C371.34998 69.96814697 371.35982616 75.7646831 371.37778854 81.56162071 C371.38865149 86.03300148 371.38516849 90.50428416 371.37740517 94.97566795 C371.37541011 97.11261101 371.37783793 99.24956309 371.38484383 101.38649559 C371.39249956 104.37779246 371.3807962 107.36842312 371.36414146 110.35967064 C371.37021416 111.23471245 371.37628685 112.10975426 371.38254356 113.01131248 C371.28878534 122.14414492 368.44271321 128.49017479 362.14783287 135.15263939 C356.19234613 140.59398339 351.22595468 141.22034808 342.97595787 142.13701439 C343.30595787 153.02701439 343.63595787 163.91701439 343.97595787 175.13701439 C348.43095787 176.62201439 348.43095787 176.62201439 352.97595787 178.13701439 C355.74935045 179.40284587 358.455152 180.68733333 361.16345787 182.07451439 C361.83570396 182.40902611 362.50795006 182.74353783 363.20056725 183.08818626 C382.61679042 192.90027957 398.22108136 209.49967494 405.68738365 230.09990501 C406.97551926 234.06613684 408.01732775 238.08043832 408.97595787 242.13701439 C409.15244981 242.71085324 409.32894176 243.28469209 409.51078194 243.87592 C410.15755643 247.01971587 410.10570952 250.03064639 410.11017895 253.2403059 C410.11253118 253.95967452 410.11488341 254.67904314 410.11730692 255.42021081 C410.12399167 257.84338995 410.12353885 260.2665154 410.12312889 262.68970299 C410.12642787 264.4396306 410.13015351 266.18955746 410.13427037 267.93948334 C410.1442951 272.75855833 410.14800794 277.57762086 410.15065968 282.39670479 C410.15456146 287.59056766 410.16414005 292.78442064 410.17287254 297.97827721 C410.19264297 310.52851627 410.20270498 323.07875615 410.21160033 335.62900689 C410.21598324 341.53999861 410.22135013 347.45098943 410.2265892 353.36198044 C410.24360386 373.01427366 410.25809698 392.66656632 410.26533794 412.31886578 C410.26724783 417.41978837 410.26916816 422.52071096 410.27112389 427.62163353 C410.27160763 428.88943876 410.27209137 430.15724399 410.27258977 431.46346756 C410.28088605 451.99079574 410.30621514 472.51806558 410.33870456 493.04536829 C410.3717938 514.12368984 410.38978849 535.20198175 410.39298218 556.28032941 C410.3951458 568.11354354 410.40387261 579.94667265 410.42944336 591.77986145 C410.45117599 601.86022846 410.45918823 611.9404898 410.44947658 622.02087758 C410.44493902 627.16094763 410.44678641 632.30079976 410.46623802 637.44083977 C410.48392174 642.15461619 410.48282984 646.86801656 410.46734073 651.58179726 C410.46497252 653.27911157 410.46924697 654.97645227 410.48116938 656.67372636 C410.62266088 678.16289887 404.66713893 695.96347993 389.97595787 712.13701439 C389.43584068 712.76994408 388.8957235 713.40287376 388.33923912 714.05498314 C376.97505376 726.56417458 358.26390865 735.03102095 341.6025089 736.41779602 C337.87291459 736.52397969 334.1534932 736.54182682 330.42241478 736.52469444 C328.98731376 736.52887608 327.55221605 736.53435812 326.11712438 736.54101425 C322.20538111 736.55537897 318.29385014 736.55125249 314.38209569 736.54384744 C310.15087659 736.53909563 305.9197021 736.55164338 301.68849754 736.56186485 C293.41126546 736.57901934 285.13410941 736.57989977 276.85686418 736.57465195 C270.12529177 736.57060249 263.39374175 736.57206301 256.66217041 736.57740021 C255.22236693 736.57852284 255.22236693 736.57852284 253.7534765 736.57966815 C251.80318488 736.58119971 249.85289325 736.58273806 247.90260164 736.58428312 C229.6323085 736.59799623 211.36205824 736.592579 193.0917661 736.58109791 C176.39958197 736.57116846 159.70750874 736.58410335 143.01534172 736.6080321 C125.85111951 736.63245102 108.68694889 736.642024 91.52270967 736.63537937 C81.89620922 736.63189314 72.269794 736.63407967 62.64330673 736.6516304 C54.44789943 736.66638741 46.25263738 736.66694232 38.05723282 736.64955949 C33.88112568 736.64107554 29.70527764 736.63883566 25.52918434 736.65421104 C21.6964837 736.66814667 17.86426192 736.66318268 14.03158835 736.64397181 C12.00921012 736.63848764 9.98680694 736.65240891 7.96447629 736.66732591 C-4.01511381 736.57210245 -15.60523829 734.07601422 -26.27404213 728.44951439 C-26.93678139 728.1070266 -27.59952065 727.7645388 -28.28234291 727.41167259 C-46.93590289 717.4204697 -59.486748 700.98575525 -66.02404213 681.13701439 C-67.53528973 675.77507641 -68.27514666 671.15532082 -68.28131104 665.54432487 C-68.28481711 664.82064047 -68.28832318 664.09695607 -68.2919355 663.35134184 C-68.30120534 660.93749556 -68.29633768 658.52389288 -68.29146767 656.11003685 C-68.29520618 654.35736855 -68.2998085 652.60470191 -68.30519831 650.85203791 C-68.31741933 646.04391291 -68.31716889 641.23585753 -68.31480956 636.42772055 C-68.31440116 631.23867505 -68.32544295 626.0496518 -68.3349247 620.86061668 C-68.3515318 610.6962096 -68.35703415 600.53182571 -68.35814945 590.36740619 C-68.35910026 582.1020934 -68.36321221 573.83678826 -68.3695507 565.57147789 C-68.38716394 542.1260027 -68.39638969 518.68054582 -68.39488976 495.23506397 C-68.39480984 493.97133066 -68.39472993 492.70759734 -68.3946476 491.40556908 C-68.39456584 490.14028816 -68.39448408 488.87500725 -68.39439984 487.57138449 C-68.39358738 467.07731513 -68.41271476 446.58331934 -68.44092433 426.08927125 C-68.46967634 405.03454443 -68.48346328 383.97985347 -68.48173678 362.92510653 C-68.48107358 351.10925153 -68.48653497 339.29347362 -68.50809288 327.47763634 C-68.52633535 317.41458995 -68.53062698 307.35165558 -68.51707403 297.28859979 C-68.5105593 292.15850858 -68.51037296 287.02863206 -68.52778053 281.89856148 C-68.54358302 277.19290388 -68.54057482 272.48762993 -68.52321227 267.78198129 C-68.52015805 266.08880927 -68.52371452 264.3956081 -68.53493242 262.70247048 C-68.6208573 248.80170772 -67.01544853 235.27532211 -60.27404213 222.82451439 C-59.92897621 222.16556175 -59.58391029 221.50660912 -59.22838783 220.82768822 C-48.02239853 199.9547842 -31.00585637 186.31925868 -9.38732338 177.51201439 C-5.87576581 176.12577887 -5.87576581 176.12577887 -2.02404213 174.13701439 C-1.69404213 163.24701439 -1.36404213 152.35701439 -1.02404213 141.13701439 C-3.33404213 141.13701439 -5.64404213 141.13701439 -8.02404213 141.13701439 C-16.26825556 138.58523404 -21.68664086 133.4609755 -26.18677711 126.28217125 C-30.62936173 117.0800468 -29.58033383 106.65884263 -29.52013588 96.69560814 C-29.52029107 94.60153719 -29.52178332 92.50746596 -29.52454567 90.41339684 C-29.52592551 86.03834295 -29.51344001 81.66361854 -29.49059486 77.28862572 C-29.46219418 71.69806888 -29.46495808 66.10805818 -29.47768497 60.51746082 C-29.48465958 56.19786527 -29.47683279 51.8783946 -29.46442795 47.558815 C-29.45993202 45.4980632 -29.45956029 43.43729791 -29.46349335 41.37654495 C-29.46642354 38.49100461 -29.44981308 35.60620147 -29.42809486 32.72075462 C-29.43259651 31.8805024 -29.43709816 31.04025017 -29.44173622 30.17453575 C-29.32490491 20.77029849 -26.68710721 13.91544218 -20.21544838 7.08623314 C-14.23824971 1.76961614 -7.86442677 0.01705826 0 0 Z " fill="#FEFEFE" transform="translate(341.0240421295166,143.8629856109619)"/>
<path d="M0 0 C1.86282905 -0.00761181 1.86282905 -0.00761181 3.763291 -0.0153774 C5.14380109 -0.01597906 6.52431123 -0.01647815 7.9048214 -0.01688576 C9.3695768 -0.02090126 10.8343311 -0.02533963 12.29908407 -0.03016531 C16.32970002 -0.04212684 20.36030401 -0.04777828 24.39093423 -0.05234647 C28.73602537 -0.05830411 33.08110221 -0.06991352 37.4261837 -0.08063698 C47.92223988 -0.1051566 58.41830079 -0.11978715 68.9143768 -0.13269705 C71.87890295 -0.13640919 74.84342863 -0.1403824 77.80795431 -0.14444971 C96.21738818 -0.16968558 114.62682279 -0.1917386 133.03627014 -0.20417786 C137.30018301 -0.20710755 141.56409585 -0.21006921 145.82800865 -0.21308327 C146.8877824 -0.21382932 147.94755615 -0.21457537 149.03944425 -0.21534403 C166.20757922 -0.22799798 183.37561064 -0.26122197 200.54369719 -0.3028851 C218.16980623 -0.34530914 235.79586226 -0.3688734 253.42202222 -0.37409842 C263.31847546 -0.37751191 273.21476684 -0.38925993 283.11116982 -0.42220116 C291.53931144 -0.45020919 299.96725801 -0.46119765 308.39544256 -0.4500057 C312.6944808 -0.44482106 316.99311062 -0.44769298 321.29208946 -0.47247124 C325.2316163 -0.49498785 329.1704419 -0.49420568 333.10998122 -0.47526737 C334.53130497 -0.4724707 335.9526765 -0.47804745 337.3739235 -0.4930803 C347.41669487 -0.59276708 354.75995072 0.80718431 362.59705162 7.31279564 C363.49617271 8.37047142 363.49617271 8.37047142 364.41345787 9.44951439 C365.03091881 10.1468972 365.64837975 10.84428001 366.28455162 11.56279564 C370.62500069 18.16869849 371.41755086 24.21835609 371.36414146 31.91435814 C371.3720269 33.33060982 371.3720269 33.33060982 371.38007164 34.77547264 C371.39320194 37.87532491 371.38455819 40.97465751 371.37439537 44.07451439 C371.3764181 46.24110067 371.3793312 48.40768629 371.38309288 50.57427025 C371.3875068 55.10664438 371.3811151 59.63884068 371.36707115 64.17119408 C371.34998 69.96814697 371.35982616 75.7646831 371.37778854 81.56162071 C371.38865149 86.03300148 371.38516849 90.50428416 371.37740517 94.97566795 C371.37541011 97.11261101 371.37783793 99.24956309 371.38484383 101.38649559 C371.39249956 104.37779246 371.3807962 107.36842312 371.36414146 110.35967064 C371.37021416 111.23471245 371.37628685 112.10975426 371.38254356 113.01131248 C371.28878534 122.14414492 368.44271321 128.49017479 362.14783287 135.15263939 C356.19234613 140.59398339 351.22595468 141.22034808 342.97595787 142.13701439 C343.30595787 153.02701439 343.63595787 163.91701439 343.97595787 175.13701439 C348.43095787 176.62201439 348.43095787 176.62201439 352.97595787 178.13701439 C355.74935045 179.40284587 358.455152 180.68733333 361.16345787 182.07451439 C361.83570396 182.40902611 362.50795006 182.74353783 363.20056725 183.08818626 C382.61679042 192.90027957 398.22108136 209.49967494 405.68738365 230.09990501 C406.97551926 234.06613684 408.01732775 238.08043832 408.97595787 242.13701439 C409.15244981 242.71085324 409.32894176 243.28469209 409.51078194 243.87592 C410.15755643 247.01971587 410.10570952 250.03064639 410.11017895 253.2403059 C410.11253118 253.95967452 410.11488341 254.67904314 410.11730692 255.42021081 C410.12399167 257.84338995 410.12353885 260.2665154 410.12312889 262.68970299 C410.12642787 264.4396306 410.13015351 266.18955746 410.13427037 267.93948334 C410.1442951 272.75855833 410.14800794 277.57762086 410.15065968 282.39670479 C410.15456146 287.59056766 410.16414005 292.78442064 410.17287254 297.97827721 C410.19264297 310.52851627 410.20270498 323.07875615 410.21160033 335.62900689 C410.21598324 341.53999861 410.22135013 347.45098943 410.2265892 353.36198044 C410.24360386 373.01427366 410.25809698 392.66656632 410.26533794 412.31886578 C410.26724783 417.41978837 410.26916816 422.52071096 410.27112389 427.62163353 C410.27160763 428.88943876 410.27209137 430.15724399 410.27258977 431.46346756 C410.28088605 451.99079574 410.30621514 472.51806558 410.33870456 493.04536829 C410.3717938 514.12368984 410.38978849 535.20198175 410.39298218 556.28032941 C410.3951458 568.11354354 410.40387261 579.94667265 410.42944336 591.77986145 C410.45117599 601.86022846 410.45918823 611.9404898 410.44947658 622.02087758 C410.44493902 627.16094763 410.44678641 632.30079976 410.46623802 637.44083977 C410.48392174 642.15461619 410.48282984 646.86801656 410.46734073 651.58179726 C410.46497252 653.27911157 410.46924697 654.97645227 410.48116938 656.67372636 C410.62266088 678.16289887 404.66713893 695.96347993 389.97595787 712.13701439 C389.43584068 712.76994408 388.8957235 713.40287376 388.33923912 714.05498314 C376.97505376 726.56417458 358.26390865 735.03102095 341.6025089 736.41779602 C337.87291459 736.52397969 334.1534932 736.54182682 330.42241478 736.52469444 C328.98731376 736.52887608 327.55221605 736.53435812 326.11712438 736.54101425 C322.20538111 736.55537897 318.29385014 736.55125249 314.38209569 736.54384744 C310.15087659 736.53909563 305.9197021 736.55164338 301.68849754 736.56186485 C293.41126546 736.57901934 285.13410941 736.57989977 276.85686418 736.57465195 C270.12529177 736.57060249 263.39374175 736.57206301 256.66217041 736.57740021 C255.22236693 736.57852284 255.22236693 736.57852284 253.7534765 736.57966815 C251.80318488 736.58119971 249.85289325 736.58273806 247.90260164 736.58428312 C229.6323085 736.59799623 211.36205824 736.592579 193.0917661 736.58109791 C176.39958197 736.57116846 159.70750874 736.58410335 143.01534172 736.6080321 C125.85111951 736.63245102 108.68694889 736.642024 91.52270967 736.63537937 C81.89620922 736.63189314 72.269794 736.63407967 62.64330673 736.6516304 C54.44789943 736.66638741 46.25263738 736.66694232 38.05723282 736.64955949 C33.88112568 736.64107554 29.70527764 736.63883566 25.52918434 736.65421104 C21.6964837 736.66814667 17.86426192 736.66318268 14.03158835 736.64397181 C12.00921012 736.63848764 9.98680694 736.65240891 7.96447629 736.66732591 C-4.01511381 736.57210245 -15.60523829 734.07601422 -26.27404213 728.44951439 C-26.93678139 728.1070266 -27.59952065 727.7645388 -28.28234291 727.41167259 C-46.93590289 717.4204697 -59.486748 700.98575525 -66.02404213 681.13701439 C-67.53528973 675.77507641 -68.27514666 671.15532082 -68.28131104 665.54432487 C-68.28481711 664.82064047 -68.28832318 664.09695607 -68.2919355 663.35134184 C-68.30120534 660.93749556 -68.29633768 658.52389288 -68.29146767 656.11003685 C-68.29520618 654.35736855 -68.2998085 652.60470191 -68.30519831 650.85203791 C-68.31741933 646.04391291 -68.31716889 641.23585753 -68.31480956 636.42772055 C-68.31440116 631.23867505 -68.32544295 626.0496518 -68.3349247 620.86061668 C-68.3515318 610.6962096 -68.35703415 600.53182571 -68.35814945 590.36740619 C-68.35910026 582.1020934 -68.36321221 573.83678826 -68.3695507 565.57147789 C-68.38716394 542.1260027 -68.39638969 518.68054582 -68.39488976 495.23506397 C-68.39480984 493.97133066 -68.39472993 492.70759734 -68.3946476 491.40556908 C-68.39456584 490.14028816 -68.39448408 488.87500725 -68.39439984 487.57138449 C-68.39358738 467.07731513 -68.41271476 446.58331934 -68.44092433 426.08927125 C-68.46967634 405.03454443 -68.48346328 383.97985347 -68.48173678 362.92510653 C-68.48107358 351.10925153 -68.48653497 339.29347362 -68.50809288 327.47763634 C-68.52633535 317.41458995 -68.53062698 307.35165558 -68.51707403 297.28859979 C-68.5105593 292.15850858 -68.51037296 287.02863206 -68.52778053 281.89856148 C-68.54358302 277.19290388 -68.54057482 272.48762993 -68.52321227 267.78198129 C-68.52015805 266.08880927 -68.52371452 264.3956081 -68.53493242 262.70247048 C-68.6208573 248.80170772 -67.01544853 235.27532211 -60.27404213 222.82451439 C-59.92897621 222.16556175 -59.58391029 221.50660912 -59.22838783 220.82768822 C-48.02239853 199.9547842 -31.00585637 186.31925868 -9.38732338 177.51201439 C-5.87576581 176.12577887 -5.87576581 176.12577887 -2.02404213 174.13701439 C-1.69404213 163.24701439 -1.36404213 152.35701439 -1.02404213 141.13701439 C-3.33404213 141.13701439 -5.64404213 141.13701439 -8.02404213 141.13701439 C-16.26825556 138.58523404 -21.68664086 133.4609755 -26.18677711 126.28217125 C-30.62936173 117.0800468 -29.58033383 106.65884263 -29.52013588 96.69560814 C-29.52029107 94.60153719 -29.52178332 92.50746596 -29.52454567 90.41339684 C-29.52592551 86.03834295 -29.51344001 81.66361854 -29.49059486 77.28862572 C-29.46219418 71.69806888 -29.46495808 66.10805818 -29.47768497 60.51746082 C-29.48465958 56.19786527 -29.47683279 51.8783946 -29.46442795 47.558815 C-29.45993202 45.4980632 -29.45956029 43.43729791 -29.46349335 41.37654495 C-29.46642354 38.49100461 -29.44981308 35.60620147 -29.42809486 32.72075462 C-29.43259651 31.8805024 -29.43709816 31.04025017 -29.44173622 30.17453575 C-29.32490491 20.77029849 -26.68710721 13.91544218 -20.21544838 7.08623314 C-14.23824971 1.76961614 -7.86442677 0.01705826 0 0 Z M18.97595787 142.13701439 C18.64595787 154.01701439 18.31595787 165.89701439 17.97595787 178.13701439 C12.39100309 189.30692394 7.14341734 192.90520424 -3.95324135 197.51665306 C-23.46058524 205.6814094 -37.75918611 220.55854112 -45.82124966 240.06598467 C-48.71352041 248.32640807 -48.43945411 256.59784633 -48.39826393 265.22382164 C-48.40100719 266.95845659 -48.40506154 268.69308987 -48.41030759 270.42771906 C-48.42086422 275.17647678 -48.41278505 279.92504545 -48.40155709 284.67379487 C-48.39269787 289.80200003 -48.40116355 294.93018091 -48.4074192 300.05838585 C-48.41689899 310.09720092 -48.41031462 320.13594401 -48.39815626 330.17475373 C-48.38452348 341.86723292 -48.38617524 353.55969504 -48.38828959 365.25218015 C-48.39147825 386.11492938 -48.37981858 406.97764444 -48.36022377 427.84038353 C-48.34121772 448.08160505 -48.33413703 468.32278654 -48.33971596 488.56401634 C-48.34577446 510.61037729 -48.34559555 532.65672063 -48.33423012 554.70308012 C-48.33302284 557.05407393 -48.33181686 559.40506774 -48.33061218 561.75606155 C-48.33000864 562.91277158 -48.32940511 564.06948161 -48.32878328 565.26124345 C-48.32490495 573.41043396 -48.32529742 581.55961791 -48.32719803 589.7088089 C-48.32932065 599.63986967 -48.32409072 609.57089538 -48.30958448 619.50194628 C-48.3023436 624.56833796 -48.29826089 629.63467861 -48.30282784 634.7010746 C-48.30690791 639.3401972 -48.30172829 643.97921448 -48.28920176 648.61832111 C-48.286277 650.29515398 -48.28670215 651.97199679 -48.29084484 653.64882708 C-48.33039492 671.25829724 -44.93006708 685.94438842 -32.34826088 698.95342064 C-13.31601388 716.83413672 8.25905091 716.74197654 33.00490761 716.65991306 C37.08407007 716.65078364 41.16316641 716.66487102 45.24231529 716.67583275 C53.21322147 716.69353915 61.18397625 716.68981335 69.15488815 716.67818218 C75.63798188 716.66911693 82.12103344 716.66793718 88.6041317 716.67227745 C89.99273266 716.67319685 89.99273266 716.67319685 91.40938616 716.67413482 C93.29050192 716.67541383 95.17161768 716.67671069 97.05273342 716.67802519 C114.65639592 716.6894079 132.25997484 716.67635362 149.86362362 716.65482372 C164.94017269 716.63695485 180.01659852 716.64005961 195.09314537 716.65849876 C212.63751564 716.67994638 230.18181283 716.68830948 247.72619438 716.67604971 C249.60005759 716.67477563 251.47392081 716.67351814 253.34778404 716.67227745 C254.73043882 716.6713518 254.73043882 716.6713518 256.14102602 716.67040744 C262.60986568 716.6669662 269.07865865 716.67275634 275.54749107 716.68219566 C283.44011865 716.69346038 291.33258727 716.69028218 299.22519684 716.66907269 C303.24550807 716.65862207 307.26555511 716.65433694 311.28586388 716.6676693 C334.87186687 716.73936494 356.88400573 716.50874551 374.97595787 699.13701439 C388.57162987 683.83105881 391.28709785 668.2984926 391.23665428 648.50818443 C391.23967809 646.8231992 391.24356872 645.13821535 391.24824685 643.4532339 C391.25850625 638.8415191 391.25635026 634.22988222 391.25206625 629.61816108 C391.24959524 624.63708149 391.25861793 619.65602048 391.26610374 614.67494774 C391.27884303 604.92289975 391.28064534 595.17087932 391.27830348 585.41882441 C391.27651905 577.48917283 391.27827266 569.55952959 391.28252792 561.629879 C391.28342071 559.93572349 391.28342071 559.93572349 391.28433153 558.20734262 C391.28554331 555.91271093 391.28675744 553.61807924 391.2879739 551.32344755 C391.29884679 529.8107774 391.29668833 508.29812294 391.29058906 486.78545191 C391.28542198 467.12179461 391.29667028 447.45818687 391.31568728 427.79453937 C391.33507859 407.58839393 391.34331929 387.38227192 391.33956403 367.17611712 C391.33765371 355.83820985 391.34012289 344.50034474 391.35427856 333.16244507 C391.36620992 323.50859382 391.36757769 313.85481069 391.3554884 304.20095847 C391.34961162 299.27961385 391.34846692 294.35839372 391.3604908 289.4370575 C391.37138999 284.92341064 391.36819855 280.40999161 391.35422911 275.89635523 C391.35159322 274.27190282 391.35391353 272.64743231 391.36196498 271.02299771 C391.4598297 249.7878251 387.16559071 231.54561051 372.47595787 215.38701439 C371.65095787 214.64451439 370.82595787 213.90201439 369.97595787 213.13701439 C369.45130943 212.62010033 368.926661 212.10318626 368.38611412 211.57060814 C360.40721871 204.03029895 350.74320056 199.13888333 340.60095787 195.19951439 C334.11279778 192.52405961 329.6961094 189.13725879 325.97595787 183.13701439 C321.64262454 170.13701439 323.36731826 155.83462786 322.97595787 142.13701439 C222.65595787 142.13701439 122.33595787 142.13701439 18.97595787 142.13701439 Z " fill="#080708" transform="translate(341.0240421295166,143.8629856109619)"/>
<path d="M0 0 C1.80308007 -0.00576172 1.80308007 -0.00576172 3.64258599 -0.01163983 C4.98850399 -0.0108595 6.33442194 -0.0099807 7.68033981 -0.00901413 C9.10084672 -0.01159633 10.52135289 -0.01460909 11.94185805 -0.01801753 C15.85930227 -0.02610791 19.77672819 -0.02787823 23.69417977 -0.028615 C27.91379939 -0.03046204 32.13340943 -0.03800763 36.35302353 -0.04475021 C45.58648325 -0.05834887 54.81993864 -0.06436073 64.05340672 -0.06876087 C69.81613444 -0.0715209 75.57886048 -0.07575783 81.34158707 -0.08026505 C97.28882492 -0.09246008 113.23606142 -0.10275869 129.18330383 -0.10614014 C130.2045501 -0.1063597 131.22579637 -0.10657927 132.27798949 -0.10680549 C133.30171759 -0.10702377 134.32544569 -0.10724204 135.38019586 -0.10746694 C137.45475149 -0.10791041 139.52930713 -0.10835697 141.60386276 -0.10880661 C142.63291999 -0.10902804 143.66197722 -0.10924947 144.72221801 -0.10947761 C161.39846265 -0.11342602 178.0746636 -0.13088029 194.75089136 -0.15416613 C211.86163316 -0.17786632 228.97235304 -0.19034139 246.08311152 -0.19150805 C255.69437459 -0.19242561 265.30558074 -0.19819795 274.91682816 -0.21632767 C283.10099552 -0.23171074 291.28508839 -0.23685977 299.46926746 -0.22858956 C303.64618041 -0.22467658 307.82294329 -0.2256441 311.99983788 -0.23964691 C315.82313376 -0.25234723 319.64616621 -0.25122258 323.46946153 -0.2390562 C324.85308193 -0.23709245 326.23672074 -0.24020884 327.62031522 -0.24890056 C329.50083905 -0.25996663 331.38144954 -0.25072969 333.26197815 -0.24050903 C334.30664379 -0.24110612 335.35130944 -0.24170321 336.42763162 -0.24231839 C340.70304982 0.29842598 344.03437238 1.91914194 347.2344017 4.79636002 C348.94848126 8.28203247 348.79169388 11.69250107 348.75498581 15.49251175 C348.75863647 16.33362503 348.76228714 17.17473831 348.76604843 18.04133987 C348.77415069 20.82027283 348.7605454 23.59862204 348.74595261 26.37752151 C348.74543391 28.31038793 348.74595197 30.24325487 348.74746323 32.17612076 C348.74737351 36.2271398 348.73694698 40.27795979 348.718853 44.32893753 C348.69618114 49.51865856 348.69561914 54.70808836 348.70237064 59.89784527 C348.7057144 63.8895768 348.69907259 67.88124209 348.68924141 71.87296104 C348.68539501 73.78630158 348.68423887 75.6996495 348.68582726 77.61299324 C348.68619864 80.28912097 348.67355661 82.96487737 348.65732956 85.64094925 C348.66104568 86.82482979 348.66104568 86.82482979 348.66483688 88.03262711 C348.62505541 92.14914765 348.44676074 95.52029962 346.38267136 99.13142776 C343.13979522 102.19384757 340.84782295 102.50638682 336.45119095 102.50615788 C335.22998849 102.51336442 334.00878604 102.52057096 332.75057745 102.52799588 C331.39344355 102.52081861 330.03631112 102.5133597 328.67918015 102.50564957 C327.23902038 102.5083893 325.79886261 102.51244064 324.35870981 102.51769322 C320.39624222 102.52830166 316.4339995 102.52013719 312.47154164 102.50894272 C308.20018348 102.50011606 303.92885523 102.50853978 299.65749741 102.51480484 C291.28793317 102.52430385 282.91845501 102.51768336 274.54889715 102.5055419 C264.80763741 102.49193581 255.0663983 102.49355853 245.32513148 102.49567523 C227.94732108 102.49886673 210.56955164 102.48718819 193.19175339 102.46760941 C176.31901934 102.44860457 159.44633331 102.44152166 142.57358932 102.44710159 C124.21200037 102.45315591 105.85043255 102.45298869 87.48884535 102.44161576 C85.53187911 102.44040844 83.57491287 102.43920245 81.61794662 102.43799782 C80.1735491 102.43709251 80.1735491 102.43709251 78.69997182 102.43616891 C71.905548 102.4322854 65.11113202 102.43268506 58.31670761 102.43458366 C50.03957606 102.4367032 41.76248662 102.43149986 33.48536694 102.41697011 C29.26011891 102.4097138 25.03493228 102.4056596 20.80967903 102.41021347 C16.94466393 102.41427783 13.07977583 102.40915891 9.21478003 102.39658739 C7.81376395 102.39364979 6.41273596 102.39410647 5.01172286 102.39823047 C3.11253486 102.40331493 1.21332492 102.39497339 -0.68584824 102.38590336 C-1.74234023 102.38503658 -2.79883222 102.3841698 -3.88733912 102.38327676 C-6.6929213 102.12445414 -8.28666606 101.68795775 -10.61732864 100.13142776 C-13.20147157 96.25521337 -12.92013342 93.01406735 -12.92372513 88.51668167 C-12.93204865 87.63670013 -12.94037216 86.7567186 -12.94894791 85.85007095 C-12.97307766 82.93599928 -12.98182358 80.0221513 -12.98842239 77.10799026 C-12.99738634 75.08401293 -13.00650814 73.06003628 -13.0157814 71.03606033 C-13.03228196 66.79081485 -13.03997348 62.54564834 -13.04286575 58.30037308 C-13.04825115 52.86040756 -13.08593336 47.42118405 -13.13160992 41.98142815 C-13.16135138 37.80011154 -13.16858868 33.61897424 -13.1695919 29.43756104 C-13.17379986 27.43207653 -13.18625713 25.42659176 -13.20710945 23.42121124 C-13.23396383 20.61524004 -13.22921632 17.81099698 -13.21669388 15.00496292 C-13.23152817 14.17673523 -13.24636246 13.34850754 -13.26164627 12.49518204 C-13.2068778 8.18587216 -13.0088827 6.61705951 -10.20486832 3.13933182 C-6.46289834 0.23560178 -4.68386812 0.00559228 0 0 Z " fill="#FDFDFD" transform="translate(344.6173286437988,162.86857223510742)"/>
<path d="M0 0 C19.8 0 39.6 0 60 0 C60.03738281 5.57261719 60.07476563 11.14523437 60.11328125 16.88671875 C60.14355996 20.41865064 60.17470713 23.95053206 60.20898438 27.48242188 C60.26329889 33.08745785 60.31440925 38.69239401 60.34643555 44.29760742 C60.37245944 48.81705836 60.41285535 53.33617393 60.46318626 57.85541725 C60.47986117 59.57892495 60.49137157 61.30249067 60.49761391 63.02606773 C60.50724832 65.44180774 60.53529873 67.85668855 60.56762695 70.2722168 C60.56619186 70.98359802 60.56475677 71.69497925 60.5632782 72.42791748 C60.64555403 76.77971397 61.32217731 79.54561095 64 83 C67.64523159 85.43015439 70.37590501 85.30633438 74.5925293 85.31884766 C75.36349945 85.32889328 76.1344696 85.3389389 76.92880249 85.34928894 C79.47726699 85.38018105 82.02562615 85.39717267 84.57421875 85.4140625 C86.34113983 85.43276932 88.10805194 85.45234236 89.87495422 85.4727478 C94.52571322 85.52412646 99.1765012 85.56372145 103.82739258 85.60089111 C109.40753027 85.64792813 114.98752352 85.70955049 120.56754303 85.76873779 C129.04497057 85.85701995 137.52236944 85.92673415 146 86 C146 105.8 146 125.6 146 146 C137.76675781 146.05607422 137.76675781 146.05607422 129.3671875 146.11328125 C125.88538554 146.14356509 122.40363445 146.17471561 118.921875 146.20898438 C113.39813829 146.26326861 107.8745022 146.31438022 102.35058594 146.34643555 C97.89596707 146.37248679 93.4416869 146.41290206 88.98727798 146.46318626 C87.28971705 146.47984267 85.59209755 146.49136459 83.8944664 146.49761391 C81.51245556 146.50726849 79.13130878 146.53534286 76.74951172 146.56762695 C76.05107651 146.56619186 75.3526413 146.56475677 74.63304138 146.5632782 C70.05095172 146.65083741 66.87910853 147.56076882 63 150 C60.56984561 153.64523159 60.69366562 156.37590501 60.68115234 160.5925293 C60.67110672 161.36349945 60.6610611 162.1344696 60.65071106 162.92880249 C60.61981895 165.47726699 60.60282733 168.02562615 60.5859375 170.57421875 C60.56723068 172.34113983 60.54765764 174.10805194 60.5272522 175.87495422 C60.47587354 180.52571322 60.43627855 185.1765012 60.39910889 189.82739258 C60.35207187 195.40753027 60.29044951 200.98752352 60.23126221 206.56754303 C60.14298005 215.04497057 60.07326585 223.52236944 60 232 C40.2 232 20.4 232 0 232 C-0.02578125 226.35519531 -0.0515625 220.71039062 -0.078125 214.89453125 C-0.10329355 211.31701193 -0.12962639 207.73957714 -0.16015625 204.16210938 C-0.20849659 198.48461593 -0.25253905 192.80731816 -0.27099609 187.12963867 C-0.2861477 182.55176736 -0.32056643 177.97440813 -0.36830902 173.39676476 C-0.3831383 171.65093119 -0.3910419 169.90502453 -0.39188385 168.15912819 C-0.39425067 165.71205777 -0.42130533 163.26640584 -0.45410156 160.81958008 C-0.4490712 160.09884811 -0.44404083 159.37811615 -0.43885803 158.63554382 C-0.53816175 153.84201005 -1.54425029 151.32799932 -5 148 C-8.55340652 146.81553116 -11.80082447 146.82431247 -15.50073242 146.79467773 C-16.26194901 146.78477814 -17.02316559 146.77487854 -17.80744934 146.76467896 C-20.32342418 146.73309271 -22.83941789 146.70831791 -25.35546875 146.68359375 C-27.09996532 146.66302174 -28.84445693 146.6420252 -30.58894348 146.62062073 C-35.18053167 146.56542558 -39.77216465 146.51600501 -44.36383057 146.46777344 C-49.8730128 146.40870778 -55.38211317 146.34249386 -60.89122772 146.27747345 C-69.26076848 146.17949609 -77.63036174 146.09061806 -86 146 C-86 126.2 -86 106.4 -86 86 C-80.49957031 85.95101562 -74.99914062 85.90203125 -69.33203125 85.8515625 C-65.84568482 85.81617354 -62.35936313 85.78021205 -58.87304688 85.7421875 C-53.34044959 85.68189913 -47.8078869 85.62372182 -42.27514648 85.578125 C-37.81411395 85.54122773 -33.35327098 85.49485564 -28.89240074 85.44193649 C-27.19121313 85.42341616 -25.48998492 85.40829948 -23.78873634 85.39665604 C-21.40428924 85.37975311 -19.02027403 85.35070864 -16.63598633 85.31884766 C-15.5829406 85.31560738 -15.5829406 85.31560738 -14.50862122 85.31230164 C-10.59064154 85.24550146 -7.41269428 84.99577036 -4 83 C-0.70659632 79.04894572 -0.55764744 75.21911232 -0.56762695 70.2722168 C-0.5574353 69.51070816 -0.54724365 68.74919952 -0.53674316 67.96461487 C-0.50666276 65.45940751 -0.49735501 62.95458283 -0.48828125 60.44921875 C-0.47143085 58.70757278 -0.45328012 56.96593894 -0.43388367 55.22431946 C-0.38641659 50.64919832 -0.35658598 46.07412639 -0.33044434 41.49884033 C-0.29537524 36.00456296 -0.23837185 30.51047453 -0.18505096 25.01634979 C-0.1065756 16.67759056 -0.05594107 8.33907801 0 0 Z " fill="#FEFEFE" transform="translate(482,456)"/>
<path d="M0 0 C0.81170654 -0.0049649 1.62341309 -0.00992981 2.4597168 -0.01504517 C5.14649298 -0.02965703 7.83321013 -0.03646692 10.52001953 -0.04199219 C12.38705446 -0.04774414 14.25408937 -0.05350186 16.12112427 -0.05926514 C20.036807 -0.06977213 23.95246922 -0.07561687 27.86816406 -0.07910156 C32.88419204 -0.08458778 37.89994877 -0.1086198 42.91589165 -0.13707352 C46.77292675 -0.15570146 50.62989652 -0.16090556 54.48697281 -0.16243744 C56.33613697 -0.16546379 58.18529999 -0.17349173 60.03442001 -0.18662262 C62.62211479 -0.20368755 65.2091467 -0.20180196 67.796875 -0.1953125 C68.55964752 -0.20452728 69.32242004 -0.21374207 70.10830688 -0.22323608 C74.60019655 -0.18796881 77.52802488 0.27790943 81.02783203 3.16113281 C84.29252784 7.17911514 84.4440307 10.9012206 84.3684082 15.88891602 C84.36884628 16.65042465 84.36928436 17.41193329 84.36973572 18.19651794 C84.36765343 20.70191502 84.34434948 23.20663456 84.32080078 25.71191406 C84.31520282 27.45354344 84.31093367 29.19517756 84.30793762 30.93681335 C84.29650459 35.51210664 84.26705074 40.08711246 84.23382568 44.66229248 C84.20309152 49.33439241 84.18942514 54.00653897 84.17431641 58.67871094 C84.14217951 67.83964426 84.09100184 77.00036459 84.02783203 86.16113281 C84.9916983 86.15225037 85.95556458 86.14336792 86.94863892 86.13421631 C96.04128054 86.05305726 105.13384847 85.99313233 114.2267704 85.95388412 C118.90133408 85.93302765 123.57560487 85.90474557 128.25 85.859375 C132.76281988 85.81584785 137.2753584 85.79198111 141.78837204 85.78162384 C143.50834964 85.77424478 145.2283122 85.75983503 146.94816971 85.73821259 C149.36129024 85.70908652 151.77325483 85.70518053 154.18652344 85.70703125 C154.89430939 85.69265015 155.60209534 85.67826904 156.33132935 85.66345215 C161.34477944 85.7049346 164.21342112 86.94503055 168.02783203 90.16113281 C170.80506043 93.71778407 170.31634813 98.01707353 170.30249023 102.33862305 C170.31015663 103.57103226 170.31015663 103.57103226 170.31797791 104.82833862 C170.33186931 107.54220886 170.33091751 110.25582502 170.32861328 112.96972656 C170.33250041 114.85775344 170.33683512 116.74577945 170.34159851 118.63380432 C170.34905971 122.59061518 170.34877013 126.54733682 170.34350586 130.50415039 C170.33771084 135.57285991 170.3546435 140.64120406 170.37785053 145.70985317 C170.39258743 149.60893385 170.39345964 153.50792652 170.39034081 157.40703011 C170.39085402 159.27572414 170.39609184 161.14442311 170.40615273 163.01309013 C170.41849919 165.62705049 170.4117364 168.24029896 170.40014648 170.85424805 C170.40779022 171.62480026 170.41543396 172.39535248 170.42330933 173.18925476 C170.37933401 177.67997719 169.90613377 180.65092375 167.02783203 184.16113281 C163.53360734 186.82052673 159.52889211 186.42994852 155.32177734 186.38818359 C154.55066116 186.38847565 153.77954498 186.3887677 152.98506165 186.3890686 C150.44191143 186.38767774 147.89905593 186.37212809 145.35595703 186.35644531 C143.59047607 186.35271432 141.82499305 186.34986775 140.05950928 186.34786987 C135.41687281 186.34024024 130.77436185 186.32059748 126.1317749 186.29846191 C121.39271746 186.27798907 116.65363971 186.26886508 111.91455078 186.25878906 C102.61892278 186.23735098 93.32338785 186.20322309 84.02783203 186.16113281 C84.03782478 187.60693222 84.03782478 187.60693222 84.04801941 189.0819397 C84.1088889 198.17461145 84.15383269 207.26724175 84.18326855 216.36007118 C84.19891068 221.03456757 84.22012241 225.7088992 84.25415039 230.38330078 C84.28679566 234.89610789 84.30469598 239.40875672 84.31246376 243.92167282 C84.31799799 245.64163071 84.32880506 247.36158015 84.3450222 249.08147049 C84.36686542 251.49444408 84.36979612 253.90676734 84.3684082 256.31982422 C84.37919403 257.02761017 84.38997986 257.73539612 84.40109253 258.46463013 C84.37240973 263.08665782 83.56893395 266.28796712 81.02783203 270.16113281 C77.52498206 273.00806821 73.06706988 272.44944192 68.75854492 272.43579102 C67.51150536 272.44345741 67.51150536 272.44345741 66.23927307 272.45127869 C63.49293811 272.46517112 60.74685419 272.46421821 58.00048828 272.46191406 C56.09004117 272.46580113 54.17959491 272.47013583 52.26914978 272.47489929 C48.26526081 272.48236071 44.26146001 272.48207074 40.25756836 272.47680664 C35.12832636 272.47101158 29.9994454 272.4879443 24.8702631 272.51115131 C20.92485954 272.52588756 16.97954295 272.52676051 13.03411674 272.52364159 C11.1430941 272.52415483 9.25206659 272.52939325 7.36107063 272.53945351 C4.71598005 272.5517987 2.07159311 272.5450379 -0.57348633 272.53344727 C-1.35338928 272.541091 -2.13329224 272.54873474 -2.93682861 272.55661011 C-7.43906219 272.51303395 -10.49695702 272.12194659 -13.97216797 269.16113281 C-16.35235154 265.11960986 -16.24538492 261.00069677 -16.19921875 256.43334961 C-16.1995108 255.67184097 -16.19980286 254.91033234 -16.20010376 254.12574768 C-16.19871565 251.62049783 -16.18317908 249.11554916 -16.16748047 246.61035156 C-16.16374849 244.86872012 -16.16090239 243.12708657 -16.15890503 241.38545227 C-16.15128313 236.81023319 -16.13164705 232.23514188 -16.10949707 227.65997314 C-16.08900753 222.98785124 -16.07989667 218.31570861 -16.06982422 213.64355469 C-16.04839978 204.48269138 -16.01428127 195.32192274 -15.97216797 186.16113281 C-16.94856232 186.17223587 -17.92495667 186.18333893 -18.93093872 186.19477844 C-28.14127218 186.2962224 -37.351492 186.37113068 -46.56225777 186.42019367 C-51.29743901 186.44626584 -56.03216855 186.48162015 -60.76708984 186.53833008 C-65.33828025 186.59273517 -69.90903674 186.62257126 -74.48052597 186.63551903 C-76.22285669 186.64474371 -77.96516418 186.6627578 -79.70730972 186.6897831 C-82.15174555 186.72618796 -84.59439834 186.73107362 -87.0390625 186.72875977 C-88.11476753 186.75572433 -88.11476753 186.75572433 -89.21220398 186.78323364 C-93.02713337 186.74426996 -95.45903535 186.14618776 -98.40548706 183.81315613 C-102.47856962 179.60464315 -102.1296872 175.7495288 -102.14916992 170.20483398 C-102.15574112 169.39473373 -102.16231232 168.58463348 -102.16908264 167.74998474 C-102.18879969 165.06802273 -102.20047431 162.38611666 -102.21044922 159.70410156 C-102.21452475 158.78760645 -102.21860027 157.87111134 -102.2227993 156.92684364 C-102.24365264 152.07647553 -102.25795789 147.22613566 -102.26733398 142.37573242 C-102.27840051 137.36868941 -102.31280528 132.36209055 -102.35250568 127.35520458 C-102.37866135 123.50241779 -102.38702486 119.64973704 -102.39061546 115.79686928 C-102.39548366 113.95130728 -102.40710432 112.10575009 -102.42565346 110.26027489 C-102.4500242 107.67503091 -102.44908396 105.09093913 -102.44213867 102.50561523 C-102.46135376 101.36684937 -102.46135376 101.36684937 -102.48095703 100.20507812 C-102.43063549 95.054656 -101.42797136 91.99681538 -97.97216797 88.16113281 C-93.52558022 85.97776926 -89.18256436 85.88328361 -84.31445312 85.93408203 C-83.20123184 85.93364395 -83.20123184 85.93364395 -82.06552124 85.93319702 C-79.63063562 85.93458209 -77.19606214 85.9501041 -74.76123047 85.96582031 C-73.06586881 85.96955338 -71.37050498 85.97239896 -69.67514038 85.97439575 C-65.22652159 85.98200912 -60.77803468 86.00163776 -56.32946777 86.02380371 C-51.78460473 86.04431174 -47.23972025 86.05340805 -42.69482422 86.06347656 C-33.78721439 86.08488592 -24.87970217 86.118994 -15.97216797 86.16113281 C-15.98327103 85.18473846 -15.99437408 84.20834412 -16.0058136 83.20236206 C-16.10725755 73.99202861 -16.18216583 64.78180878 -16.23122883 55.57104301 C-16.257301 50.83586177 -16.29265531 46.10113223 -16.34936523 41.36621094 C-16.40377032 36.79502053 -16.43360641 32.22426404 -16.44655418 27.65277481 C-16.45577886 25.91044409 -16.47379295 24.1681366 -16.50081825 22.42599106 C-16.53722312 19.98155523 -16.54210878 17.53890244 -16.53979492 15.09423828 C-16.5577713 14.37710159 -16.57574768 13.6599649 -16.5942688 12.9210968 C-16.55530512 9.10616741 -15.95722292 6.67426543 -13.62419128 3.72781372 C-9.40873334 -0.35199031 -5.55235561 0.00809413 0 0 Z M4.02783203 20.16113281 C3.99044922 25.73375 3.95306641 31.30636719 3.91455078 37.04785156 C3.88427207 40.57978345 3.85312491 44.11166488 3.81884766 47.64355469 C3.76453315 53.24859066 3.71342278 58.85352682 3.68139648 64.45874023 C3.6553726 68.97819117 3.61497668 73.49730674 3.56464577 78.01655006 C3.54797086 79.74005777 3.53646046 81.46362349 3.53021812 83.18720055 C3.52058371 85.60294055 3.4925333 88.01782137 3.46020508 90.43334961 C3.46235771 91.50042145 3.46235771 91.50042145 3.46455383 92.58905029 C3.38254373 96.92679183 2.83166149 99.79741447 0.02783203 103.16113281 C-3.97992772 105.50490212 -8.07912348 105.46604439 -12.6081543 105.47998047 C-13.35990936 105.49002609 -14.11166443 105.50007172 -14.88619995 105.51042175 C-17.35885895 105.5411914 -19.83140997 105.55827139 -22.30419922 105.57519531 C-24.02342148 105.59391198 -25.7426346 105.61348577 -27.46183777 105.63388062 C-31.97775886 105.68515515 -36.49370972 105.72480588 -41.00976562 105.76202393 C-46.43310057 105.80914291 -51.85628836 105.87072069 -57.27950287 105.92987061 C-65.51033168 106.01802586 -73.7411331 106.08783088 -81.97216797 106.16113281 C-81.97216797 125.96113281 -81.97216797 145.76113281 -81.97216797 166.16113281 C-76.39955078 166.19851563 -70.82693359 166.23589844 -65.08544922 166.27441406 C-61.55351733 166.30469278 -58.02163591 166.33583994 -54.48974609 166.37011719 C-48.88471012 166.4244317 -43.27977396 166.47554206 -37.67456055 166.50756836 C-33.15510961 166.53359225 -28.63599404 166.57398816 -24.11675072 166.62431908 C-22.39324301 166.64099398 -20.6696773 166.65250438 -18.94610023 166.65874672 C-16.53036023 166.66838114 -14.11547941 166.69643154 -11.69995117 166.72875977 C-10.98856995 166.72732468 -10.27718872 166.72588959 -9.54425049 166.72441101 C-5.192454 166.80668684 -2.42655702 167.48331012 1.02783203 170.16113281 C3.45798642 173.8063644 3.33416641 176.53703783 3.34667969 180.75366211 C3.35672531 181.52463226 3.36677094 182.29560242 3.37712097 183.0899353 C3.40801308 185.6383998 3.42500471 188.18675896 3.44189453 190.73535156 C3.46060135 192.50227265 3.48017439 194.26918475 3.50057983 196.03608704 C3.5519585 200.68684604 3.59155348 205.33763402 3.62872314 209.98852539 C3.67576016 215.56866309 3.73738252 221.14865634 3.79656982 226.72867584 C3.88485198 235.20610338 3.95456618 243.68350226 4.02783203 252.16113281 C23.82783203 252.16113281 43.62783203 252.16113281 64.02783203 252.16113281 C64.04201172 246.51632812 64.05619141 240.87152344 64.07080078 235.05566406 C64.09085945 231.47812754 64.11237817 227.90071926 64.13916016 224.32324219 C64.18152463 218.64570096 64.21849936 212.96848477 64.22338867 207.29077148 C64.2276693 202.71282864 64.25611208 198.13561338 64.30126381 193.55789757 C64.31424642 191.81206183 64.31854377 190.06613906 64.31398582 188.320261 C64.30908499 185.87294734 64.33514563 183.42776448 64.3684082 180.98071289 C64.35978256 180.25998093 64.35115692 179.53924896 64.3422699 178.79667664 C64.43019595 174.93401234 64.92991903 173.28286185 67.38154602 170.23490906 C71.60460782 166.925484 75.2955843 166.99753222 80.43676758 166.95581055 C81.18823059 166.94591095 81.9396936 166.93601135 82.71392822 166.92581177 C85.19743704 166.89422785 87.68096499 166.86945165 90.16455078 166.84472656 C91.88662716 166.82415435 93.60869853 166.8031578 95.33076477 166.78175354 C99.86316869 166.72656048 104.39561797 166.67713899 108.92810059 166.62890625 C114.36636568 166.56983868 119.80454788 166.5036259 125.24274445 166.43860626 C133.50438967 166.34063152 141.76608809 166.25175171 150.02783203 166.16113281 C150.02783203 146.36113281 150.02783203 126.56113281 150.02783203 106.16113281 C141.560625 106.12246094 141.560625 106.12246094 132.92236328 106.08300781 C129.34484396 106.05783926 125.76740917 106.03150642 122.18994141 106.00097656 C116.51244796 105.95263622 110.83515019 105.90859376 105.1574707 105.89013672 C100.57959939 105.87498511 96.00224017 105.84056638 91.42459679 105.79282379 C89.67876323 105.77799451 87.93285656 105.77009091 86.18696022 105.76924896 C83.7398898 105.76688214 81.29423787 105.73982748 78.84741211 105.70703125 C78.12668015 105.71206161 77.40594818 105.71709198 76.66337585 105.72227478 C71.86984208 105.62297106 69.35583135 104.61688253 66.02783203 101.16113281 C64.84336319 97.60772629 64.8521445 94.36030834 64.82250977 90.66040039 C64.81261017 89.89918381 64.80271057 89.13796722 64.79251099 88.35368347 C64.76092474 85.83770864 64.73614994 83.32171492 64.71142578 80.80566406 C64.69085377 79.06116749 64.66985723 77.31667588 64.64845276 75.57218933 C64.59325761 70.98060114 64.54383704 66.38896816 64.49560547 61.79730225 C64.43653981 56.28812001 64.37032589 50.77901965 64.30530548 45.26990509 C64.20732812 36.90036433 64.11845009 28.53077107 64.02783203 20.16113281 C44.22783203 20.16113281 24.42783203 20.16113281 4.02783203 20.16113281 Z " fill="#070708" transform="translate(477.97216796875,435.8388671875)"/>
<path d="M0 0 C3.49890004 2.11391877 4.70578686 3.11736059 6 7 C6.11329871 8.88481826 6.1691442 10.77330558 6.19287109 12.66137695 C6.21696548 14.40382439 6.21696548 14.40382439 6.24154663 16.18147278 C6.28601009 21.48906928 6.3274902 26.79651868 6.35009766 32.10424805 C6.36343242 34.90471087 6.39127878 37.70444422 6.43212891 40.50463867 C6.49100336 44.54097743 6.50876545 48.57653544 6.5234375 52.61328125 C6.54610687 53.86345535 6.56877625 55.11362946 6.59213257 56.40168762 C6.56856539 66.0855063 6.56856539 66.0855063 3.62353516 69.7890625 C-0.01056847 72.85163857 -2.04801726 72.80095354 -6.62109375 72.53515625 C-10.21651623 71.72633379 -11.85664862 69.90389542 -14 67 C-15.30515178 64.38969643 -15.14138712 62.45129711 -15.16113281 59.52807617 C-15.17074036 58.38316208 -15.1803479 57.23824799 -15.19024658 56.05863953 C-15.19449646 54.81596817 -15.19874634 53.57329681 -15.203125 52.29296875 C-15.20882507 51.02028641 -15.21452515 49.74760406 -15.22039795 48.43635559 C-15.2298593 45.73870262 -15.23675014 43.0411612 -15.24023438 40.34350586 C-15.2457118 36.89343566 -15.2697232 33.44376159 -15.29820633 29.99381542 C-15.32135968 26.69772994 -15.32328454 23.40162417 -15.328125 20.10546875 C-15.3404718 18.86887009 -15.3528186 17.63227142 -15.36553955 16.35820007 C-15.36253845 15.2038295 -15.35953735 14.04945892 -15.35644531 12.86010742 C-15.36009094 11.84687912 -15.36373657 10.83365082 -15.36749268 9.78971863 C-14.93420918 6.50056729 -13.95978996 4.6583014 -12 2 C-7.97685134 -0.68209911 -4.72780081 -0.68843415 0 0 Z " fill="#0E0E0E" transform="translate(579,178)"/>
<path d="M0 0 C0.74378906 0.0309375 1.48757813 0.061875 2.25390625 0.09375 C4.70121033 0.54906239 6.35600012 1.1270022 8.4375 2.5 C10.5723089 5.8157 10.70479482 8.57994648 10.74389648 12.47436523 C10.75988388 13.67919052 10.77587128 14.88401581 10.79234314 16.12535095 C10.80038719 18.07230614 10.80038719 18.07230614 10.80859375 20.05859375 C10.81756504 21.40853473 10.82668697 22.75847471 10.83595276 24.1084137 C10.85242245 26.93533745 10.86013936 29.76214304 10.86303711 32.58911133 C10.86842445 36.20533586 10.90612491 39.82044518 10.95178127 43.43635464 C10.98157174 46.2236992 10.98876103 49.01077555 10.98976326 51.79826546 C10.99599591 53.77752183 11.02545475 55.7566611 11.05528259 57.73570251 C11.00503841 67.72197253 11.00503841 67.72197253 8.06103516 70.81860352 C5.19510893 72.65534592 3.74781149 73.12511202 0.375 73 C-0.46160156 72.9896875 -1.29820312 72.979375 -2.16015625 72.96875 C-5.02950902 72.40887629 -6.44678483 71.49791365 -8.5625 69.5 C-9.61349827 66.34700518 -9.71445742 64.05905564 -9.75537109 60.74682617 C-9.77946548 58.97434761 -9.77946548 58.97434761 -9.80404663 57.1660614 C-9.84850332 51.76687151 -9.88999036 46.36782632 -9.91259766 40.96850586 C-9.92593297 38.11954613 -9.95378036 35.27130337 -9.99462891 32.42260742 C-10.05349556 28.31677203 -10.07126457 24.21170419 -10.0859375 20.10546875 C-10.10860687 18.83342087 -10.13127625 17.56137299 -10.15463257 16.2507782 C-10.13106569 6.40153063 -10.13106569 6.40153063 -7.17456055 2.69067383 C-4.44333813 0.40006174 -3.48957119 -0.24275278 0 0 Z " fill="#070707" transform="translate(637.5625,177.5)"/>
<path d="M0 0 C3.2207122 0.64180859 4.96792156 2.03620327 7.15625 4.4296875 C8.18508751 7.51620004 8.29501825 9.67188214 8.31738281 12.9074707 C8.32699036 14.02906082 8.3365979 15.15065094 8.34649658 16.30622864 C8.35074646 17.51872787 8.35499634 18.73122711 8.359375 19.98046875 C8.36507507 21.22716843 8.37077515 22.4738681 8.37664795 23.75834656 C8.38610166 26.39874929 8.39299653 29.03903826 8.39648438 31.67944336 C8.40087437 34.38270531 8.41478566 37.08564903 8.4375 39.78881836 C8.46796079 43.68613383 8.47853257 47.5830475 8.484375 51.48046875 C8.4967218 52.68689529 8.5090686 53.89332184 8.52178955 55.13630676 C8.50331953 62.09724221 8.3215062 67.2644313 3.15625 72.4296875 C0.94921875 72.765625 0.94921875 72.765625 -1.65625 72.8046875 C-2.50832031 72.83304687 -3.36039062 72.86140625 -4.23828125 72.890625 C-7.77041341 72.26575005 -9.30658722 70.94387517 -11.84375 68.4296875 C-12.47866821 65.59059143 -12.47866821 65.59059143 -12.49072266 62.27172852 C-12.50648346 61.02686172 -12.52224426 59.78199493 -12.53848267 58.49940491 C-12.52953184 57.14412552 -12.51927659 55.78885421 -12.5078125 54.43359375 C-12.51118247 53.03880897 -12.5160366 51.64402707 -12.52230835 50.24925232 C-12.52967387 47.32791142 -12.51898796 44.40733578 -12.49560547 41.48608398 C-12.46714215 37.74864678 -12.4835049 34.01300673 -12.51346779 30.27563572 C-12.53157335 27.39554918 -12.52576785 24.51588564 -12.51282883 21.63578606 C-12.50950233 20.25832848 -12.51355537 18.88083202 -12.52522659 17.50341988 C-12.53798193 15.57463481 -12.51507921 13.64571447 -12.49072266 11.71704102 C-12.48674469 10.62102066 -12.48276672 9.52500031 -12.47866821 8.39576721 C-11.00823056 1.52648044 -6.33419538 -0.35893774 0 0 Z " fill="#0C0B0C" transform="translate(513.84375,177.5703125)"/>
<path d="M0 0 C3.4203866 1.17013226 3.91540482 1.87310723 6 5 C6.27415466 7.68087769 6.27415466 7.68087769 6.30639648 10.95263672 C6.32238388 12.17755829 6.33837128 13.40247986 6.35484314 14.66452026 C6.36121993 16.00290511 6.36661265 17.34129496 6.37109375 18.6796875 C6.38006191 20.05347797 6.38918379 21.42726744 6.39845276 22.80105591 C6.41494025 25.68103406 6.42264233 28.560896 6.42553711 31.44091797 C6.43091954 35.12554459 6.46859223 38.80907411 6.51428127 42.49339104 C6.54407336 45.33134923 6.55126111 48.16904397 6.55226326 51.00714493 C6.55646176 52.36511381 6.56888158 53.72308374 6.58978081 55.08089828 C6.75913949 67.03618411 6.75913949 67.03618411 3.62133789 70.32788086 C0.81548551 72.11769952 -0.69390445 72.70299732 -4 72.6875 C-4.825 72.71199219 -5.65 72.73648438 -6.5 72.76171875 C-9.44778059 71.86356685 -11.02508362 70.53179331 -12.93481445 68.12998962 C-15.30240311 63.39566021 -14.6619119 57.85500083 -14.59375 52.68359375 C-14.59379028 51.39437515 -14.59383057 50.10515656 -14.59387207 48.77687073 C-14.59222361 46.05574269 -14.57361383 43.33544329 -14.54199219 40.61450195 C-14.50227498 37.13527479 -14.49795414 33.6571291 -14.50545502 30.17771816 C-14.50927026 26.8462127 -14.48843862 23.51504582 -14.46875 20.18359375 C-14.46844788 18.31470741 -14.46844788 18.31470741 -14.46813965 16.4080658 C-14.45222778 15.24658524 -14.43631592 14.08510468 -14.41992188 12.88842773 C-14.41150269 11.86949936 -14.4030835 10.85057098 -14.39440918 9.80076599 C-13.93248522 6.52056615 -12.95527212 4.65642373 -11 2 C-7.28428072 -0.47714618 -4.3028023 -0.42593397 0 0 Z " fill="#070707" transform="translate(452,178)"/>
<path d="M0 0 C2.8100346 1.79363911 4.50940468 3.01880935 6 6 C6.11672445 7.91329272 6.16970707 9.8306045 6.19287109 11.74731445 C6.21696548 13.55477898 6.21696548 13.55477898 6.24154663 15.39875793 C6.2858948 20.91191461 6.32750088 26.42493982 6.35009766 31.93823242 C6.36343429 34.84935957 6.39128034 37.75978527 6.43212891 40.6706543 C6.48147812 44.18733383 6.50622113 47.70337741 6.51332474 51.22038841 C6.52328846 53.20854168 6.55752711 55.19652542 6.59213257 57.18440247 C6.56856309 67.22762429 6.56856309 67.22762429 3.62353516 70.31640625 C0.815465 72.11842112 -0.68625184 72.70303319 -4 72.6875 C-4.825 72.71199219 -5.65 72.73648438 -6.5 72.76171875 C-9.44391017 71.86474612 -11.02502255 70.54290568 -12.93258667 68.14341736 C-15.32285329 63.3436469 -14.68379215 57.70485258 -14.62890625 52.46484375 C-14.63131821 51.15342911 -14.63373016 49.84201447 -14.63621521 48.49085999 C-14.63906528 45.7226745 -14.62445011 42.9553017 -14.59692383 40.18725586 C-14.5628068 36.64733409 -14.56887667 33.10886119 -14.5875864 29.56886959 C-14.60072109 26.17988464 -14.58243639 22.79131859 -14.56640625 19.40234375 C-14.57136612 18.13454575 -14.57632599 16.86674774 -14.58143616 15.56053162 C-14.56559982 14.3790303 -14.54976349 13.19752899 -14.53344727 11.98022461 C-14.52724869 10.94353134 -14.52105011 9.90683807 -14.5146637 8.83872986 C-13.86921611 5.27863547 -12.47535892 3.59024329 -10 1 C-6.79826746 -0.60086627 -3.47422941 -0.49917089 0 0 Z " fill="#0B0B0B" transform="translate(389,178)"/>
<path d="M0 0 C0.66 0 1.32 0 2 0 C2 27.06 2 54.12 2 82 C-0.72478152 83.36239076 -2.86840855 83.11969958 -5.91845703 83.11352539 C-7.80624878 83.11334412 -7.80624878 83.11334412 -9.73217773 83.11315918 C-11.07405649 83.10812321 -12.41593476 83.1029566 -13.7578125 83.09765625 C-15.58300415 83.09614563 -15.58300415 83.09614563 -17.44506836 83.09460449 C-22.00505511 83.08935922 -26.56502847 83.07539804 -31.125 83.0625 C-41.31375 83.041875 -51.5025 83.02125 -62 83 C-62 56.27 -62 29.54 -62 2 C-61.67 2 -61.34 2 -61 2 C-61 28.07 -61 54.14 -61 81 C-41.2 81 -21.4 81 -1 81 C-1.01160156 75.32039062 -1.02320313 69.64078125 -1.03515625 63.7890625 C-1.04026381 60.19791553 -1.04507764 56.60677302 -1.04882812 53.015625 C-1.05481347 47.31151402 -1.06190558 41.60741903 -1.07543945 35.90332031 C-1.08627885 31.3062561 -1.09227908 26.70920903 -1.09487724 22.11213303 C-1.09672958 20.35539861 -1.10034657 18.59866516 -1.10573006 16.84193802 C-1.11295443 14.38760576 -1.11399035 11.93334503 -1.11352539 9.47900391 C-1.11712067 8.74748611 -1.12071594 8.01596832 -1.12442017 7.26228333 C-1.11405216 2.22810432 -1.11405216 2.22810432 0 0 Z " fill="#272727" transform="translate(543,607)"/>
<path d="M0 0 C-0.33 138.27 -0.66 276.54 -1 419 C-1.33 419 -1.66 419 -2 419 C-2.33 281.06 -2.66 143.12 -3 1 C-1 0 -1 0 0 0 Z " fill="#111011" transform="translate(276,390)"/>
<path d="M0 0 C0.99 0 1.98 0 3 0 C2.67 26.73 2.34 53.46 2 81 C1.67 81 1.34 81 1 81 C0.67 54.27 0.34 27.54 0 0 Z " fill="#131313" transform="translate(463,441)"/>
<path d="M0 0 C0.66 0.33 1.32 0.66 2 1 C2 1.66 2 2.32 2 3 C-3 3 -8 3 -13 3 C-9.28282996 -0.87878613 -5.02421098 -0.50436095 0 0 Z " fill="#121213" transform="translate(516,178)"/>
<path d="M0 0 C2.3129482 2.3129482 2.49580975 3.47904875 3.125 6.625 C3.29257812 7.44226563 3.46015625 8.25953125 3.6328125 9.1015625 C3.81457031 10.04128906 3.81457031 10.04128906 4 11 C3.01 10.67 2.02 10.34 1 10 C0.234375 8.22265625 0.234375 8.22265625 -0.25 6.0625 C-0.42015625 5.35222656 -0.5903125 4.64195312 -0.765625 3.91015625 C-1 2 -1 2 0 0 Z " fill="#0E0E0E" transform="translate(276,821)"/>
<path d="M0 0 C2 1 2 1 3 3 C2.236875 3.28875 1.47375 3.5775 0.6875 3.875 C-2.15029308 4.96269013 -2.15029308 4.96269013 -5 7 C-3.75023244 3.34683329 -3.32901247 2.21934164 0 0 Z " fill="#151515" transform="translate(570,178)"/>
</svg>
