<?xml version="1.0" encoding="UTF-8"?>
<svg version="1.1" xmlns="http://www.w3.org/2000/svg" width="500" height="500">
<path d="M0 0 C0.68707881 -0.00226556 1.37415762 -0.00453111 2.082057 -0.00686532 C4.36567593 -0.01315444 6.64923474 -0.01237927 8.93286133 -0.0115509 C10.57768835 -0.01454549 12.22251468 -0.01794871 13.86734009 -0.02172852 C18.32180274 -0.03054016 22.77624618 -0.03290538 27.23071671 -0.0335443 C30.01566008 -0.03425618 32.8005986 -0.03639306 35.58554077 -0.03904152 C45.30646067 -0.04828409 55.02736687 -0.05237759 64.74829102 -0.05158997 C73.80226809 -0.0509888 82.85618566 -0.06155112 91.91014767 -0.07733363 C99.69207762 -0.09041431 107.47398813 -0.09577367 115.25592899 -0.09513456 C119.90008197 -0.09487981 124.54418198 -0.0977182 129.18832397 -0.10831261 C133.55499925 -0.11800298 137.92157101 -0.11806632 142.28824997 -0.11079597 C143.88819912 -0.10975145 145.48815475 -0.11210518 147.0880928 -0.11815643 C149.27711128 -0.12589787 151.4657741 -0.12121764 153.65478516 -0.11352539 C154.87813065 -0.11407016 156.10147614 -0.11461493 157.3618927 -0.1151762 C162.54177235 0.25683792 166.55541542 1.11613104 170.63989258 4.38371277 C175.29524603 10.23615711 175.14656347 16.34322705 175.16333008 23.50090027 C175.17331528 24.99123276 175.17331528 24.99123276 175.1835022 26.51167297 C175.19360057 28.60783545 175.19832009 30.7040299 175.19799805 32.80021667 C175.2023688 35.99135286 175.23871241 39.18110239 175.27661133 42.37199402 C175.28248071 44.41495807 175.28644929 46.45792865 175.28833008 48.50090027 C175.30270111 49.44698151 175.31707214 50.39306274 175.33187866 51.36781311 C175.28136778 58.7638136 173.69559096 64.26551439 168.38989258 69.57121277 C165.82739258 71.13371277 165.82739258 71.13371277 160.82739258 72.13371277 C160.82739258 76.42371277 160.82739258 80.71371277 160.82739258 85.13371277 C166.10739258 87.77371277 171.38739258 90.41371277 176.82739258 93.13371277 C176.82739258 93.79371277 176.82739258 94.45371277 176.82739258 95.13371277 C177.48739258 95.13371277 178.14739258 95.13371277 178.82739258 95.13371277 C178.82739258 95.79371277 178.82739258 96.45371277 178.82739258 97.13371277 C180.14739258 97.79371277 181.46739258 98.45371277 182.82739258 99.13371277 C182.82739258 99.79371277 182.82739258 100.45371277 182.82739258 101.13371277 C183.48739258 101.13371277 184.14739258 101.13371277 184.82739258 101.13371277 C185.97242175 103.05944365 187.09229168 105.00013794 188.20239258 106.94621277 C188.82887695 108.02515808 189.45536133 109.10410339 190.10083008 110.21574402 C195.27295401 120.86846406 194.13100938 133.57387562 194.13378906 145.10221863 C194.14142085 147.11390487 194.14985008 149.12558821 194.15901184 151.13726807 C194.18085699 156.57527125 194.18974169 162.01321824 194.19483829 167.45126033 C194.19849222 170.85404477 194.20473748 174.2568147 194.21183968 177.65959358 C194.23629473 189.54542304 194.24937855 201.43120906 194.25292969 213.31706238 C194.2565669 224.3740185 194.28648592 235.43069741 194.32833427 246.4875688 C194.36307548 256.00213405 194.37847875 265.51660753 194.37917572 275.03123575 C194.3799669 280.70454347 194.3886335 286.37756804 194.41717339 292.05080986 C194.44342123 297.38701718 194.44552161 302.7227078 194.42951775 308.05895042 C194.42770891 310.00996278 194.43434256 311.96100534 194.45033646 313.91195297 C194.53300409 324.65601525 194.24781127 333.50632242 188.82739258 343.13371277 C188.26164599 344.1462432 188.26164599 344.1462432 187.68447018 345.17922878 C186.63989258 346.88371277 186.63989258 346.88371277 184.82739258 349.13371277 C184.16739258 349.13371277 183.50739258 349.13371277 182.82739258 349.13371277 C182.82739258 349.79371277 182.82739258 350.45371277 182.82739258 351.13371277 C182.16739258 351.13371277 181.50739258 351.13371277 180.82739258 351.13371277 C180.82739258 351.79371277 180.82739258 352.45371277 180.82739258 353.13371277 C178.85083008 354.57121277 178.85083008 354.57121277 176.20239258 356.13371277 C175.34387695 356.64933777 174.48536133 357.16496277 173.60083008 357.69621277 C168.14154276 360.52581521 163.5298743 361.38647898 157.39108276 361.41459656 C156.66346713 361.4205388 155.9358515 361.42648105 155.18618691 361.43260336 C152.75908709 361.4498835 150.33218565 361.45298577 147.9050293 361.45597839 C146.16008589 361.46524155 144.41514651 361.47529178 142.67021179 361.48606873 C137.93644274 361.51225831 133.20273035 361.52519553 128.4689002 361.53409004 C125.50752984 361.53996188 122.54617479 361.5481735 119.58481216 361.55709839 C110.30820505 361.58443493 101.03163314 361.60377391 91.75498855 361.61150217 C81.06743013 361.62045613 70.38038424 361.6555231 59.6929816 361.71350336 C51.41842103 361.75682614 43.14400418 361.77691551 34.86933148 361.77958441 C29.93363088 361.78167445 24.99841248 361.79335843 20.06283188 361.82922363 C15.41522747 361.86234 10.76846369 361.86642285 6.12078285 361.84894562 C4.42293472 361.84741295 2.72503995 361.85598331 1.02730751 361.87586212 C-10.87358514 362.00694444 -19.13521781 359.82530584 -29.17260742 353.13371277 C-29.17260742 352.47371277 -29.17260742 351.81371277 -29.17260742 351.13371277 C-29.83260742 351.13371277 -30.49260742 351.13371277 -31.17260742 351.13371277 C-31.17260742 350.47371277 -31.17260742 349.81371277 -31.17260742 349.13371277 C-31.83260742 349.13371277 -32.49260742 349.13371277 -33.17260742 349.13371277 C-34.82885742 346.82511902 -34.82885742 346.82511902 -36.67260742 343.69621277 C-37.28104492 342.68687683 -37.88948242 341.67754089 -38.51635742 340.63761902 C-41.75443508 333.7872519 -42.47063522 326.88827058 -42.43330383 319.38754272 C-42.43712938 318.55527501 -42.44095493 317.72300729 -42.4448964 316.86551934 C-42.45513954 314.10223074 -42.45125089 311.33915331 -42.44726562 308.57585144 C-42.45161694 306.58416554 -42.45680149 304.59248132 -42.4627533 302.60079956 C-42.47611017 297.20811782 -42.47672559 291.81550632 -42.47419 286.42281127 C-42.47311791 281.91261431 -42.47800979 277.40243142 -42.48279542 272.89223748 C-42.49387942 262.24672564 -42.49433441 251.60124908 -42.48828125 240.95573425 C-42.48224341 229.99318459 -42.49455026 219.03076334 -42.51585132 208.06823558 C-42.53349645 198.63863694 -42.53946403 189.20907907 -42.53621358 179.77946454 C-42.53440503 174.15539228 -42.53699399 168.53141159 -42.55092812 162.90735435 C-42.56354903 157.61558848 -42.56152209 152.32402198 -42.54851723 147.03225899 C-42.54616107 145.09738471 -42.54885142 143.16249621 -42.55714035 141.22763824 C-42.60651304 128.80027899 -42.52256107 116.9247456 -35.98510742 105.88371277 C-35.45530273 104.97105652 -34.92549805 104.05840027 -34.37963867 103.11808777 C-33.98131836 102.46324402 -33.58299805 101.80840027 -33.17260742 101.13371277 C-32.51260742 101.13371277 -31.85260742 101.13371277 -31.17260742 101.13371277 C-30.94702148 100.55621277 -30.72143555 99.97871277 -30.48901367 99.38371277 C-26.28033532 92.19024473 -16.64605289 88.07408476 -9.17260742 85.13371277 C-9.17260742 80.84371277 -9.17260742 76.55371277 -9.17260742 72.13371277 C-10.57510742 71.57683777 -11.97760742 71.01996277 -13.42260742 70.44621277 C-17.49691544 68.59483695 -20.03851295 67.22406051 -22.17260742 63.13371277 C-23.84460144 54.66902963 -23.35875727 45.65784616 -23.35791016 37.06559753 C-23.36010571 34.57315712 -23.37834454 32.08115394 -23.3972168 29.58879089 C-23.468512 10.47761601 -23.468512 10.47761601 -19.69213867 4.97746277 C-19.12881836 4.53402527 -18.56549805 4.09058777 -17.98510742 3.63371277 C-17.43467773 3.16965027 -16.88424805 2.70558777 -16.31713867 2.22746277 C-11.37320109 -0.29403545 -5.43823732 0.00744977 0 0 Z M-11.17260742 13.13371277 C-11.28100872 14.53476779 -11.32161304 15.94116925 -11.33374023 17.34635925 C-11.34334778 18.24076218 -11.35295532 19.1351651 -11.362854 20.05667114 C-11.36710388 21.02955582 -11.37135376 22.00244049 -11.37573242 23.00480652 C-11.3814325 23.99747025 -11.38713257 24.99013397 -11.39300537 26.01287842 C-11.40247054 28.1170291 -11.40899535 30.22119471 -11.4128418 32.32536316 C-11.42255581 35.55405854 -11.45356855 38.78211988 -11.48510742 42.01066589 C-11.49163619 44.05037564 -11.49688716 46.09008995 -11.50073242 48.12980652 C-11.51307922 49.10066696 -11.52542603 50.0715274 -11.53814697 51.07180786 C-11.53514587 51.96936295 -11.53214478 52.86691803 -11.52905273 53.79167175 C-11.53269836 54.58363449 -11.53634399 55.37559723 -11.5401001 56.19155884 C-11.41882751 56.83246964 -11.29755493 57.47338043 -11.17260742 58.13371277 C-7.52613941 60.56469144 -5.80661713 60.38930519 -1.46083069 60.40113831 C-0.43216398 60.40793498 -0.43216398 60.40793498 0.61728388 60.41486895 C2.92037971 60.42755205 5.22324025 60.4258901 7.52636719 60.42424011 C9.17547409 60.43022289 10.82457819 60.43702785 12.47367859 60.44459534 C16.95711253 60.462287 21.44047018 60.46695201 25.92393565 60.46822691 C29.6641364 60.47012428 33.4043193 60.47747985 37.14451319 60.4845711 C45.96679401 60.50086429 54.78903399 60.50573916 63.61132812 60.50431824 C72.71875096 60.50311619 81.82593705 60.52422847 90.93329996 60.55580556 C98.74738239 60.58193533 106.56138733 60.59268694 114.37551314 60.59140742 C119.04484439 60.59089686 123.71396527 60.59663178 128.3832531 60.61776352 C132.77376788 60.63709077 137.16387039 60.63730844 141.55439949 60.62273026 C143.16689784 60.62063425 144.77942162 60.62539 146.39187622 60.63745117 C148.59128323 60.65283885 150.7892571 60.6436406 152.9886322 60.62818909 C154.21993834 60.62927862 155.45124449 60.63036816 156.71986294 60.63149071 C160.41068143 60.04027896 161.58442952 59.06446573 163.82739258 56.13371277 C164.40867664 54.11404871 164.40867664 54.11404871 164.31323242 51.96354675 C164.31938568 51.15268112 164.32553894 50.34181549 164.33187866 49.50637817 C164.31750763 48.63960953 164.3031366 47.77284088 164.28833008 46.87980652 C164.28741364 45.98254349 164.28649719 45.08528046 164.28555298 44.16082764 C164.27951912 42.26705118 164.26377954 40.37328416 164.23901367 38.47966003 C164.20248031 35.57818018 164.19799456 32.67797685 164.19848633 29.77629089 C164.18865588 27.93578505 164.17699919 26.09528786 164.16333008 24.25480652 C164.16110443 23.38601364 164.15887878 22.51722076 164.15658569 21.62210083 C164.14382599 20.81438736 164.13106628 20.00667389 164.11791992 19.17448425 C164.11029633 18.46485031 164.10267273 17.75521637 164.09481812 17.02407837 C163.91972371 14.80346869 163.91972371 14.80346869 161.82739258 12.13371277 C158.75614591 11.68072061 158.75614591 11.68072061 155.06382751 11.76622009 C154.36045322 11.76295125 153.65707893 11.75968241 152.93239027 11.75631452 C150.56376025 11.74900259 148.19574116 11.76322006 145.82714844 11.77726746 C144.13391514 11.77647703 142.44068203 11.77438114 140.74745178 11.77107239 C136.14012596 11.76592597 131.53302241 11.77949793 126.92573237 11.79659939 C122.11354397 11.81159985 117.30135887 11.8104605 112.489151 11.81126404 C104.40776762 11.81495989 96.32646901 11.82994395 88.24511719 11.85246277 C77.85804905 11.88134671 67.4710492 11.89168621 57.08394527 11.89614487 C48.17135695 11.90011923 39.25878359 11.91262183 30.34620595 11.92649174 C27.47270126 11.93059782 24.5991971 11.93351983 21.72569084 11.93628693 C17.21876036 11.94116726 12.71187166 11.95134914 8.20496178 11.96572495 C6.54606249 11.97026146 4.88715757 11.97308979 3.22825241 11.97413254 C0.97345047 11.97586847 -1.28124562 11.98372529 -3.536026 11.99327087 C-4.80089372 11.99624554 -6.06576143 11.9992202 -7.36895847 12.002285 C-10.07727509 11.81397372 -10.07727509 11.81397372 -11.17260742 13.13371277 Z M2.82739258 71.13371277 C2.49739258 76.41371277 2.16739258 81.69371277 1.82739258 87.13371277 C-1.54760742 95.00871277 -1.54760742 95.00871277 -5.18432617 96.78605652 C-5.94165039 97.16955261 -6.69897461 97.55304871 -7.47924805 97.94816589 C-8.26493164 98.31877136 -9.05061523 98.68937683 -9.86010742 99.07121277 C-10.65739258 99.46888855 -11.45467773 99.86656433 -12.27612305 100.27629089 C-14.23284416 101.248793 -16.19715273 102.20001795 -18.17260742 103.13371277 C-18.17260742 103.79371277 -18.17260742 104.45371277 -18.17260742 105.13371277 C-19.49260742 105.79371277 -20.81260742 106.45371277 -22.17260742 107.13371277 C-22.17260742 107.79371277 -22.17260742 108.45371277 -22.17260742 109.13371277 C-22.83260742 109.13371277 -23.49260742 109.13371277 -24.17260742 109.13371277 C-24.98563067 110.59175446 -25.79800873 112.05015592 -26.61010742 113.50871277 C-27.28879883 114.72687683 -27.28879883 114.72687683 -27.98120117 115.96965027 C-30.30422867 120.18918218 -30.32086682 123.53300075 -30.31977844 128.28607178 C-30.32345513 129.13897653 -30.32713182 129.99188128 -30.33091992 130.87063164 C-30.3419849 133.74552209 -30.3458054 136.62037644 -30.34960938 139.49528503 C-30.35587204 141.54991776 -30.36251866 143.60454935 -30.36952209 145.65917969 C-30.38695325 151.25452448 -30.39749019 156.84986072 -30.40572762 162.44522595 C-30.41087461 165.94056615 -30.41695056 169.43590368 -30.42323875 172.93124199 C-30.44229901 183.86572634 -30.45652687 194.80020391 -30.46485072 205.73470169 C-30.47461916 218.35899403 -30.50092503 230.98311085 -30.54135162 243.60734135 C-30.57151713 253.36200788 -30.58632013 263.11662413 -30.58963174 272.8713364 C-30.59198224 278.69834638 -30.60094249 284.52516902 -30.62609291 290.35212898 C-30.64938527 295.83751969 -30.65360201 301.32259991 -30.64333153 306.80802727 C-30.6428363 308.81834318 -30.64915282 310.82867443 -30.66288757 312.83894348 C-30.68063051 315.59048827 -30.67348848 318.34092173 -30.66035461 321.09246826 C-30.67132386 321.88198759 -30.68229311 322.67150692 -30.69359475 323.48495108 C-30.62551534 329.42104212 -28.89609304 333.89250329 -26.17260742 339.13371277 C-25.51260742 339.13371277 -24.85260742 339.13371277 -24.17260742 339.13371277 C-23.83229492 339.99996277 -23.83229492 339.99996277 -23.48510742 340.88371277 C-20.41867183 346.1404595 -15.88540963 347.90259974 -10.29512024 349.50714302 C-3.89409327 350.79158606 2.63233366 350.55842786 9.1340332 350.5377655 C10.76458705 350.54347713 12.3951369 350.55044444 14.02568054 350.55856323 C18.42857022 350.57642035 22.8312598 350.5753406 27.23417473 350.56962085 C30.91949014 350.56651878 34.60476768 350.57263259 38.29007769 350.57865959 C46.98760697 350.59267818 55.68503798 350.59116523 64.38256836 350.57975769 C73.33609385 350.56827345 82.2893199 350.58236335 91.24280596 350.60915416 C98.95012782 350.63134718 106.65735594 350.6379406 114.36470747 350.63207775 C118.95921984 350.62871627 123.55354021 350.63106955 128.14802551 350.64832878 C132.46890627 350.66385391 136.78934487 350.65978107 141.11020851 350.64102364 C142.68954703 350.6373534 144.26891873 350.64040027 145.84822655 350.65090942 C156.16988953 350.71431391 165.06510281 350.06671793 173.45239258 343.50871277 C174.23614258 342.72496277 175.01989258 341.94121277 175.82739258 341.13371277 C175.82739258 340.47371277 175.82739258 339.81371277 175.82739258 339.13371277 C176.48739258 339.13371277 177.14739258 339.13371277 177.82739258 339.13371277 C181.21631456 333.20629469 182.41166682 328.99305292 182.33532715 322.21513367 C182.34156711 321.35231325 182.34780707 320.48949283 182.35423613 319.60052633 C182.37010935 316.72784164 182.3575842 313.85601217 182.3449707 310.98332214 C182.35039434 308.91632596 182.35751835 306.84933365 182.36621094 304.78234863 C182.38441836 299.18112743 182.37738729 293.58020154 182.3646946 287.9789753 C182.35455363 282.11172323 182.36396333 276.24449612 182.37023926 270.37724304 C182.37751245 260.52502411 182.3679365 250.67292519 182.34887695 240.82072449 C182.32710893 229.43715277 182.33416053 218.05386764 182.35618258 206.67030287 C182.37434586 196.88918085 182.37689033 187.10814502 182.3664279 177.32701159 C182.36019811 171.4884169 182.35934329 165.64995684 182.37257385 159.81137085 C182.38414513 154.32175496 182.37608292 148.83250788 182.35299683 143.34293175 C182.34771661 141.33059488 182.34921171 139.31822688 182.35804749 137.30590248 C182.36901368 134.55428271 182.35522647 131.80383726 182.33532715 129.05229187 C182.34425004 128.26006147 182.35317292 127.46783107 182.3623662 126.65159369 C182.26082645 119.38979305 179.50700686 113.56720327 174.70239258 108.13371277 C174.20481445 107.55621277 173.70723633 106.97871277 173.19458008 106.38371277 C171.89013052 104.9087897 171.89013052 104.9087897 169.82739258 105.13371277 C169.82739258 104.47371277 169.82739258 103.81371277 169.82739258 103.13371277 C169.32288574 102.8767865 168.81837891 102.61986023 168.29858398 102.35514832 C166.01232766 101.1851602 163.7323828 100.00336204 161.45239258 98.82121277 C160.26129883 98.21503113 160.26129883 98.21503113 159.04614258 97.59660339 C158.2855957 97.20021667 157.52504883 96.80382996 156.74145508 96.39543152 C156.03972168 96.03409119 155.33798828 95.67275085 154.61499023 95.30046082 C152.82739258 94.13371277 152.82739258 94.13371277 150.82739258 91.13371277 C150.49739258 84.53371277 150.16739258 77.93371277 149.82739258 71.13371277 C101.31739258 71.13371277 52.80739258 71.13371277 2.82739258 71.13371277 Z " fill="#161616" transform="translate(174.172607421875,68.86628723144531)"/>
<path d="M0 0 C1.37350868 -0.00218285 1.37350868 -0.00218285 2.77476501 -0.00440979 C4.70542593 -0.00275367 6.63610044 0.00877549 8.56665039 0.02954102 C11.52091507 0.05853067 14.47338819 0.05013711 17.42773438 0.03710938 C19.3059983 0.04334613 21.18425656 0.05173658 23.0625 0.0625 C24.38605247 0.05809654 24.38605247 0.05809654 25.73634338 0.05360413 C29.11992755 0.10566181 31.85177021 0.26275326 35.02807617 1.47167969 C37.38626853 4.79438675 36.95197247 8.4050624 36.85546875 12.3203125 C36.84980896 13.18171341 36.84414917 14.04311432 36.83831787 14.93061829 C36.81592505 17.68217523 36.76572455 20.43243038 36.71484375 23.18359375 C36.69478245 25.04880932 36.67653103 26.9140453 36.66015625 28.77929688 C36.61605088 33.35206417 36.54700432 37.92385825 36.46484375 42.49609375 C38.16012207 42.46467285 38.16012207 42.46467285 39.88964844 42.43261719 C44.08645944 42.36016679 48.28321527 42.31427591 52.48046875 42.27636719 C54.29631855 42.25626314 56.1121037 42.2289754 57.92773438 42.19433594 C60.5392248 42.14576336 63.14985873 42.12311348 65.76171875 42.10546875 C66.57227722 42.08482361 67.38283569 42.06417847 68.21795654 42.04290771 C71.79602513 42.04148623 73.99433388 42.15964493 76.94628906 44.27050781 C79.99967185 48.74552992 79.63797313 53.27148189 79.66796875 58.55078125 C79.67366882 59.32994904 79.6793689 60.10911682 79.6852417 60.91189575 C79.69467021 62.55762381 79.70121713 64.20337056 79.70507812 65.84912109 C79.71478329 68.35548088 79.74582582 70.86101997 79.77734375 73.3671875 C79.78387467 74.97004724 79.78912479 76.57291281 79.79296875 78.17578125 C79.80531555 78.91972137 79.81766235 79.6636615 79.8303833 80.43014526 C79.81018157 85.19185473 79.01029825 88.46256314 76.46484375 92.49609375 C73.1859245 94.13555338 69.55870841 93.61639553 65.95703125 93.59375 C65.11641144 93.59233505 64.27579163 93.5909201 63.40969849 93.58946228 C60.719711 93.58385612 58.02980616 93.57130261 55.33984375 93.55859375 C53.51823037 93.55357954 51.69661568 93.5490165 49.875 93.54492188 C45.40491598 93.53388469 40.93489389 93.51661595 36.46484375 93.49609375 C36.50411987 95.24466675 36.50411987 95.24466675 36.54418945 97.02856445 C36.63463337 101.35014684 36.69207141 105.67164551 36.73950195 109.99389648 C36.76465953 111.86513329 36.79878968 113.7362717 36.84204102 115.60717773 C36.90264052 118.29565678 36.93103978 120.98283811 36.953125 123.671875 C36.97893143 124.50946854 37.00473785 125.34706207 37.03132629 126.21003723 C37.03408246 131.90680843 37.03408246 131.90680843 34.50292969 134.52709961 C30.38272641 135.84123388 26.66718606 135.88767972 22.3671875 135.82421875 C21.49590714 135.82234558 20.62462677 135.82047241 19.72694397 135.81854248 C17.89043331 135.81183752 16.05393655 135.79795402 14.2175293 135.77734375 C11.40855611 135.74616271 8.60014485 135.73636667 5.79101562 135.73046875 C4.00389942 135.72129887 2.21678891 135.71092314 0.4296875 135.69921875 C-0.82824364 135.69284393 -0.82824364 135.69284393 -2.11158752 135.68634033 C-2.89597702 135.67673279 -3.68036652 135.66712524 -4.48852539 135.65722656 C-5.51847374 135.64698456 -5.51847374 135.64698456 -6.56922913 135.63653564 C-8.68729238 135.48522545 -10.52285717 135.17990859 -12.53515625 134.49609375 C-14.17173379 131.22293866 -13.77823695 127.58987144 -13.8515625 123.98828125 C-13.8723436 123.14766144 -13.89312469 122.30704163 -13.91453552 121.44094849 C-13.98001064 118.7510814 -14.03890645 116.06111532 -14.09765625 113.37109375 C-14.14084341 111.54946886 -14.18445777 109.72785404 -14.22851562 107.90625 C-14.33568993 103.43629981 -14.4369631 98.96624989 -14.53515625 94.49609375 C-16.18499512 94.4820752 -16.18499512 94.4820752 -17.86816406 94.46777344 C-21.95369791 94.42786438 -26.03847944 94.36210371 -30.12353516 94.28857422 C-31.89068936 94.26036978 -33.65796959 94.23915257 -35.42529297 94.22509766 C-37.96777847 94.20366017 -40.50874963 94.15700872 -43.05078125 94.10546875 C-43.83946594 94.10424011 -44.62815063 94.10301147 -45.44073486 94.10174561 C-48.73316674 94.01406803 -51.15089969 93.71421575 -54.03442383 92.07739258 C-56.38240412 88.03880536 -56.08656031 84.17654479 -56.03125 79.5859375 C-56.03270523 78.62208633 -56.03416046 77.65823517 -56.03565979 76.66517639 C-56.03400153 74.63018771 -56.0224485 72.5951864 -56.00170898 70.56030273 C-55.97272836 67.44135457 -55.98110677 64.32410328 -55.99414062 61.20507812 C-55.98790396 59.22785631 -55.97951359 57.25063986 -55.96875 55.2734375 C-55.97168564 54.33902328 -55.97462128 53.40460907 -55.97764587 52.44187927 C-55.9649617 51.57410355 -55.95227753 50.70632782 -55.93920898 49.81225586 C-55.933806 49.04932724 -55.92840302 48.28639862 -55.9228363 47.50035095 C-55.42385669 44.92068898 -54.64399744 44.03587898 -52.53515625 42.49609375 C-49.59330884 42.23441696 -46.86778415 42.14735454 -43.9296875 42.203125 C-43.09048264 42.20736984 -42.25127777 42.21161469 -41.38664246 42.21598816 C-38.7066538 42.23277911 -36.02741755 42.27043145 -33.34765625 42.30859375 C-31.53060982 42.32364008 -29.7135516 42.33732857 -27.89648438 42.34960938 C-23.44241849 42.38268393 -18.98891493 42.43446862 -14.53515625 42.49609375 C-14.56134033 41.3659082 -14.58752441 40.23572266 -14.61450195 39.07128906 C-14.70506339 34.87455067 -14.76242656 30.67789844 -14.80981445 26.48046875 C-14.83494525 24.66456576 -14.86905586 22.84876379 -14.91235352 21.03320312 C-14.97307136 18.42162152 -15.00137906 15.81137781 -15.0234375 13.19921875 C-15.04924393 12.38866028 -15.07505035 11.57810181 -15.10163879 10.74298096 C-15.10346601 7.06349848 -14.87146454 4.93294651 -12.60058594 1.9831543 C-8.32949041 -0.08878285 -4.69066668 -0.0598571 0 0 Z M-2.53515625 11.49609375 C-2.59574219 14.37199219 -2.65632813 17.24789062 -2.71875 20.2109375 C-2.78048928 22.98432174 -2.8438977 25.75766312 -2.9074707 28.53100586 C-2.95088666 30.4642356 -2.99255667 32.39750534 -3.0324707 34.33081055 C-3.09001256 37.10347577 -3.15375245 39.87593832 -3.21875 42.6484375 C-3.24381874 43.95312233 -3.24381874 43.95312233 -3.26939392 45.28416443 C-3.42128454 51.38222204 -3.42128454 51.38222204 -4.53515625 52.49609375 C-7.49045129 52.65639063 -10.42498082 52.75566703 -13.3828125 52.8125 C-14.26923935 52.8332811 -15.1556662 52.85406219 -16.06895447 52.87547302 C-18.91177325 52.94106775 -21.75468742 52.99989927 -24.59765625 53.05859375 C-26.52019231 53.10176955 -28.44271859 53.14538353 -30.36523438 53.18945312 C-35.08844518 53.29758711 -39.81172417 53.39658622 -44.53515625 53.49609375 C-44.53515625 62.73609375 -44.53515625 71.97609375 -44.53515625 81.49609375 C-40.47267578 81.56957031 -40.47267578 81.56957031 -36.328125 81.64453125 C-33.70689335 81.69853167 -31.08575359 81.75584283 -28.46459961 81.81347656 C-26.64207801 81.8517737 -24.81948062 81.8866253 -22.99682617 81.91796875 C-20.37781684 81.96360354 -17.75932951 82.02159997 -15.140625 82.08203125 C-14.32490524 82.09358246 -13.50918549 82.10513367 -12.66874695 82.11703491 C-8.80151121 82.21806649 -6.8235584 82.30382565 -3.53515625 84.49609375 C-3.2097392 87.38650674 -3.07011146 90.07329426 -3.05859375 92.96875 C-3.04301422 93.80699814 -3.02743469 94.64524628 -3.01138306 95.50889587 C-2.96375641 98.19211891 -2.93606306 100.87508037 -2.91015625 103.55859375 C-2.87372046 106.24549387 -2.83314912 108.93224391 -2.7875061 111.6190033 C-2.76018822 113.29271197 -2.73887692 114.96653091 -2.72396851 116.64039612 C-3.03084899 120.37337708 -3.03084899 120.37337708 -1.53515625 123.49609375 C0.39151882 123.58357582 2.32136236 123.60306709 4.25 123.59375 C5.41982422 123.59052734 6.58964844 123.58730469 7.79492188 123.58398438 C9.02662109 123.57560547 10.25832031 123.56722656 11.52734375 123.55859375 C12.76291016 123.55408203 13.99847656 123.54957031 15.27148438 123.54492188 C18.33598492 123.53308983 21.40039096 123.51660548 24.46484375 123.49609375 C25.50340518 119.21007471 25.6307858 115.02612947 25.67578125 110.640625 C25.70381993 109.11652517 25.73248413 107.59243674 25.76171875 106.06835938 C25.80314915 103.67846644 25.84006039 101.28879368 25.86621094 98.89868164 C25.89370734 96.58305801 25.93953561 94.26838543 25.98828125 91.953125 C25.99153412 91.23542435 25.99478699 90.51772369 25.99813843 89.77827454 C26.04833984 87.76489258 26.04833984 87.76489258 26.46484375 84.49609375 C30.320888 81.92539758 33.59230718 82.14544319 38.0703125 82.08203125 C38.90951736 82.0626651 39.74872223 82.04329895 40.61335754 82.02334595 C43.29291633 81.96358162 45.97251815 81.91717763 48.65234375 81.87109375 C50.46941974 81.83291105 52.28647769 81.79385914 54.10351562 81.75390625 C58.55719761 81.65624671 63.01068816 81.57665439 67.46484375 81.49609375 C67.46484375 72.25609375 67.46484375 63.01609375 67.46484375 53.49609375 C63.15099609 53.40521484 63.15099609 53.40521484 58.75 53.3125 C55.97661576 53.25076072 53.20327438 53.1873523 50.42993164 53.1237793 C48.4967019 53.08036334 46.56343216 53.03869333 44.63012695 52.9987793 C41.85746173 52.94123744 39.08499918 52.87749755 36.3125 52.8125 C35.44271011 52.79578751 34.57292023 52.77907501 33.67677307 52.76185608 C27.57871546 52.60996546 27.57871546 52.60996546 26.46484375 51.49609375 C26.30454687 48.54079871 26.20527047 45.60626918 26.1484375 42.6484375 C26.1276564 41.76201065 26.10687531 40.8755838 26.08546448 39.96229553 C26.01986975 37.11947675 25.96103823 34.27656258 25.90234375 31.43359375 C25.85916795 29.51105769 25.81555397 27.58853141 25.77148438 25.66601562 C25.66335039 20.94280482 25.56435128 16.21952583 25.46484375 11.49609375 C16.22484375 11.49609375 6.98484375 11.49609375 -2.53515625 11.49609375 Z " fill="#151515" transform="translate(238.53515625,211.50390625)"/>
<path d="M0 0 C2.38895586 2.31528762 2.96590162 3.7318452 3.38818359 7.05273438 C3.39156738 8.22126953 3.39495117 9.38980469 3.3984375 10.59375 C3.40230469 11.87121094 3.40617187 13.14867188 3.41015625 14.46484375 C3.40387207 15.12726074 3.39758789 15.78967773 3.39111328 16.47216797 C3.37504886 18.49385089 3.39097765 20.51353513 3.41015625 22.53515625 C3.40628906 23.81261719 3.40242188 25.09007813 3.3984375 26.40625 C3.39505371 27.57478516 3.39166992 28.74332031 3.38818359 29.94726562 C2.96469773 33.2776224 2.43571921 34.7100195 0 37 C-3.6875 37.25 -3.6875 37.25 -7 37 C-7 36.34 -7 35.68 -7 35 C-7.66 35 -8.32 35 -9 35 C-10.39471542 32.21056915 -10.12973765 29.90239581 -10.1328125 26.78515625 C-10.13410156 25.54185547 -10.13539063 24.29855469 -10.13671875 23.01757812 C-10.13285156 21.71240234 -10.12898437 20.40722656 -10.125 19.0625 C-10.12886719 17.76119141 -10.13273438 16.45988281 -10.13671875 15.11914062 C-10.13542969 13.87455078 -10.13414062 12.62996094 -10.1328125 11.34765625 C-10.13168457 10.20304932 -10.13055664 9.05844238 -10.12939453 7.87915039 C-10 5 -10 5 -9 2 C-5.52957297 -0.31361802 -4.08165827 -0.51020728 0 0 Z " fill="#1A1A1A" transform="translate(253,86)"/>
<path d="M0 0 C2.91377313 3.74121984 3.36856834 6.58235195 3.328125 11.25390625 C3.32296875 12.43791016 3.3178125 13.62191406 3.3125 14.84179688 C3.291875 16.06962891 3.27125 17.29746094 3.25 18.5625 C3.24484375 19.79419922 3.2396875 21.02589844 3.234375 22.29492188 C3.14220005 32.86623663 3.14220005 32.86623663 2 36 C-0.79870027 37.39935013 -2.90498792 37.25265405 -6 37 C-7.66650391 35.91992188 -7.66650391 35.91992188 -9 34 C-9.38818359 30.86132812 -9.38818359 30.86132812 -9.3984375 27.03125 C-9.40130768 26.35453247 -9.40417786 25.67781494 -9.40713501 24.98059082 C-9.40917397 23.55166791 -9.40365569 22.12271698 -9.39111328 20.69384766 C-9.37505511 18.50750275 -9.39096534 16.32300621 -9.41015625 14.13671875 C-9.40817379 12.74739176 -9.40433004 11.35806591 -9.3984375 9.96875 C-9.39505371 8.70482422 -9.39166992 7.44089844 -9.38818359 6.13867188 C-9 3 -9 3 -7.66259766 1.09570312 C-4.98872423 -0.66646191 -3.1020205 -0.51700342 0 0 Z " fill="#1F1F1F" transform="translate(191,86)"/>
<path d="M0 0 C2.27924545 6.37462273 2.33288372 12.39837281 2.3125 19.125 C2.32861328 20.19621094 2.34472656 21.26742187 2.36132812 22.37109375 C2.36197266 23.40621094 2.36261719 24.44132812 2.36328125 25.5078125 C2.36775269 26.90990967 2.36775269 26.90990967 2.37231445 28.34033203 C1.92354008 31.54619962 0.95352294 33.43254544 -1 36 C-4.10997071 36.51832845 -5.99382935 36.66960156 -8.66699219 34.890625 C-10.67185669 32.04709557 -10.35447145 29.69502496 -10.328125 26.25 C-10.32625183 25.59547852 -10.32437866 24.94095703 -10.32244873 24.26660156 C-10.31573534 22.88471369 -10.30183474 21.5028446 -10.28125 20.12109375 C-10.25011245 18.00763246 -10.2402791 15.89491791 -10.234375 13.78125 C-10.16415164 3.49245493 -10.16415164 3.49245493 -9 0 C-5.93109813 -1.53445094 -3.29905734 -0.54984289 0 0 Z " fill="#111111" transform="translate(285,87)"/>
<path d="M0 0 C2.46002787 2.46002787 2.24552005 3.84793839 2.27789307 7.20666504 C2.2738446 7.91190308 2.26979614 8.61714111 2.265625 9.34375 C2.26753845 10.06864624 2.2694519 10.79354248 2.27142334 11.54040527 C2.27278487 13.07365262 2.26909064 14.6069115 2.26074219 16.14013672 C2.25004178 18.49082259 2.26063808 20.84074423 2.2734375 23.19140625 C2.2721159 24.67968919 2.26955349 26.16797166 2.265625 27.65625 C2.26967346 28.36148804 2.27372192 29.06672607 2.27789307 29.79333496 C2.22992486 34.77007514 2.22992486 34.77007514 0 37 C-3.5 37.3125 -3.5 37.3125 -7 37 C-10.24964548 32.12553178 -9.33300751 26.39855582 -9.31567383 20.69384766 C-9.31251104 18.50763231 -9.33598905 16.32276708 -9.36132812 14.13671875 C-9.36360094 12.74739754 -9.3643047 11.35807269 -9.36328125 9.96875 C-9.36626221 8.70482422 -9.36924316 7.44089844 -9.37231445 6.13867188 C-9 3 -9 3 -7.66870117 1.08398438 C-5.09136158 -0.59024939 -2.9874107 -0.31780965 0 0 Z " fill="#161616" transform="translate(222,86)"/>
<path d="M0 0 C1.670625 0.4021875 1.670625 0.4021875 3.375 0.8125 C5.62715426 5.31680853 4.56084447 11.51106211 4.56030273 16.52539062 C4.56249143 18.80357477 4.58065804 21.08127643 4.59960938 23.359375 C4.60254293 24.80208167 4.60452798 26.24479065 4.60546875 27.6875 C4.60957764 29.00492188 4.61368652 30.32234375 4.61791992 31.6796875 C4.375 34.8125 4.375 34.8125 2.375 36.8125 C-1.125 37.125 -1.125 37.125 -4.625 36.8125 C-7.87464548 31.93803178 -6.95800751 26.21105582 -6.94067383 20.50634766 C-6.93751104 18.32013231 -6.96098905 16.13526708 -6.98632812 13.94921875 C-6.98860094 12.55989754 -6.9893047 11.17057269 -6.98828125 9.78125 C-6.99126221 8.51732422 -6.99424316 7.25339844 -6.99731445 5.95117188 C-6.625 2.8125 -6.625 2.8125 -5.32885742 0.86523438 C-3.625 -0.1875 -3.625 -0.1875 0 0 Z " fill="#0B0B0B" transform="translate(312.625,86.1875)"/>
<path d="M0 0 C0.33 1.32 0.66 2.64 1 4 C-0.65 4 -2.3 4 -4 4 C-4 4.66 -4 5.32 -4 6 C-4.99 6.33 -5.98 6.66 -7 7 C-8.25838557 9.51677113 -8.20818973 11.41293288 -8.31640625 14.2265625 C-8.35830078 15.2578125 -8.40019531 16.2890625 -8.44335938 17.3515625 C-8.48267578 18.43179688 -8.52199219 19.51203125 -8.5625 20.625 C-8.60568359 21.71296875 -8.64886719 22.8009375 -8.69335938 23.921875 C-8.7996453 26.6144517 -8.90168057 29.30712253 -9 32 C-9.33 32 -9.66 32 -10 32 C-10.0247345 27.92489562 -10.04287637 23.84982036 -10.05493164 19.7746582 C-10.05995777 18.38858275 -10.06677966 17.00251259 -10.07543945 15.61645508 C-10.08758018 13.62323285 -10.09271021 11.62997181 -10.09765625 9.63671875 C-10.10289307 8.43748779 -10.10812988 7.23825684 -10.11352539 6.00268555 C-10 3 -10 3 -9 0 C-5.93109813 -1.53445094 -3.29905734 -0.54984289 0 0 Z " fill="#333333" transform="translate(285,87)"/>
<path d="M0 0 C0.33 0.66 0.66 1.32 1 2 C2.32 1.67 3.64 1.34 5 1 C4.52436589 5.28070699 2.19688467 7.3004085 -1 10 C-4.3125 11.3125 -4.3125 11.3125 -7 12 C-8.125 10.25 -8.125 10.25 -9 8 C-8.125 5.75 -8.125 5.75 -7 4 C-6.01 4.33 -5.02 4.66 -4 5 C-4 4.34 -4 3.68 -4 3 C-2.68 2.67 -1.36 2.34 0 2 C0 1.34 0 0.68 0 0 Z " fill="#1F1F1F" transform="translate(171,156)"/>
<path d="M0 0 C0.33 0 0.66 0 1 0 C1 5.61 1 11.22 1 17 C-0.32 17.33 -1.64 17.66 -3 18 C-3.33 17.01 -3.66 16.02 -4 15 C-2.68 14.67 -1.36 14.34 0 14 C0 9.38 0 4.76 0 0 Z " fill="#030303" transform="translate(175,140)"/>
<path d="M0 0 C0.66 1.32 1.32 2.64 2 4 C0.625 5.5 0.625 5.5 -1 7 C-1.66 7 -2.32 7 -3 7 C-3 6.34 -3 5.68 -3 5 C-3.66 4.67 -4.32 4.34 -5 4 C-4.360625 3.71125 -3.72125 3.4225 -3.0625 3.125 C-0.84793921 2.17176549 -0.84793921 2.17176549 0 0 Z " fill="#2E2E2E" transform="translate(337,125)"/>
<path d="M0 0 C1.010625 0.0825 2.02125 0.165 3.0625 0.25 C3.7225 1.24 4.3825 2.23 5.0625 3.25 C2.8125 3.9375 2.8125 3.9375 0.0625 4.25 C-2.25 2.8125 -2.25 2.8125 -3.9375 1.25 C-2.9375 0.25 -2.9375 0.25 0 0 Z " fill="#484848" transform="translate(249.9375,85.75)"/>
<path d="M0 0 C-1.32 0.33 -2.64 0.66 -4 1 C-3.67 1.99 -3.34 2.98 -3 4 C-4.65 4.33 -6.3 4.66 -8 5 C-7.625 3.0625 -7.625 3.0625 -7 1 C-4.53721199 -0.231394 -2.7204945 -0.07159196 0 0 Z " fill="#404040" transform="translate(314,86)"/>
<path d="M0 0 C1.32 0.33 2.64 0.66 4 1 C3.67 2.65 3.34 4.3 3 6 C2.01 6.33 1.02 6.66 0 7 C0 4.69 0 2.38 0 0 Z " fill="#030303" transform="translate(338,121)"/>
</svg>
