<?xml version="1.0" encoding="UTF-8"?>
<svg version="1.1" xmlns="http://www.w3.org/2000/svg" width="1024" height="1024">
<path d="M0 0 C337.92 0 675.84 0 1024 0 C1024 337.92 1024 675.84 1024 1024 C686.08 1024 348.16 1024 0 1024 C0 686.08 0 348.16 0 0 Z " fill="#FEFEFE" transform="translate(0,0)"/>
<path d="M0 0 C0.9032555 -0.00205263 1.806511 -0.00410527 2.73713788 -0.0062201 C5.79178348 -0.01191605 8.84638435 -0.01042967 11.90103436 -0.00901413 C14.10199129 -0.01159628 16.30294776 -0.01460901 18.50390357 -0.01801753 C24.57398459 -0.0261084 30.6440538 -0.02787826 36.71413958 -0.028615 C42.58133485 -0.03027243 48.44852393 -0.03658793 54.31571598 -0.04269341 C70.0383115 -0.0587638 85.76090606 -0.06465772 101.48350832 -0.06944216 C108.91874612 -0.07177691 116.35398315 -0.07537941 123.78922035 -0.07913754 C149.23225408 -0.0919735 174.67528738 -0.10269302 200.11832428 -0.10614014 C201.71588961 -0.10636177 203.31345493 -0.10658355 204.91102026 -0.10680549 C206.51248003 -0.10702613 208.1139398 -0.10724661 209.71539956 -0.10746694 C212.92829406 -0.10790949 216.14118856 -0.10835661 219.35408306 -0.10880661 C220.15069585 -0.108916 220.94730863 -0.10902539 221.7680612 -0.1091381 C247.60605254 -0.11276981 273.44401584 -0.12869395 299.28199644 -0.15199697 C326.58860666 -0.1765796 353.89520085 -0.19031223 381.20182246 -0.19150805 C384.19798196 -0.19167951 387.19414145 -0.19189494 390.19030094 -0.19214249 C390.92805926 -0.19219826 391.66581758 -0.19225402 392.42593221 -0.19231148 C404.31065209 -0.19346325 416.19534325 -0.20449587 428.08005343 -0.21902954 C440.02009261 -0.23337868 451.96009489 -0.23664049 463.90014032 -0.22858956 C470.37166723 -0.22467155 476.84309728 -0.22566866 483.31461239 -0.23964691 C489.23436644 -0.25231684 495.15395015 -0.25124941 501.07370373 -0.2390562 C503.21973783 -0.23708717 505.36578372 -0.24023274 507.51180122 -0.24890056 C510.42086254 -0.25991007 513.32931382 -0.25256401 516.23835754 -0.24050903 C517.07845839 -0.24810423 517.91855923 -0.25569942 518.78411767 -0.26352477 C523.70012021 -0.21931444 527.03584326 0.43723357 531.30794048 3.13142776 C534.5525826 6.56198455 536.58242611 10.31020456 538.68025494 14.51961136 C538.99146282 15.13998276 539.30267071 15.76035416 539.62330914 16.39952469 C540.64510385 18.44012074 541.65825921 20.48487242 542.67122173 22.52986526 C543.38813454 23.96675503 544.1055248 25.40340668 544.82336712 26.83983231 C546.32734126 29.85237697 547.82737796 32.86683668 549.3242979 35.88289261 C551.22156496 39.7054731 553.12557611 43.52463902 555.03227234 47.34252357 C556.87276104 51.02872325 558.70953642 54.71676949 560.54622173 58.40486526 C560.88691504 59.08813259 561.22760834 59.77139992 561.57862568 60.47537231 C563.20919314 63.74812675 564.83044218 67.02481221 566.43191814 70.31190872 C567.69118236 72.89644362 568.99106184 75.45482085 570.3181181 78.00514603 C574.35960384 85.9338299 576.33740346 92.65559878 576.13215923 101.66267776 C576.13153233 103.34206436 576.13153233 103.34206436 576.13089275 105.05537796 C576.12259367 107.39806718 576.09742578 109.74075485 576.05574322 112.08308792 C575.9955499 115.62498956 575.99418672 119.16330526 576.00129986 122.70564651 C575.94952764 134.73141914 575.52668072 145.77962978 571.30794048 157.13142776 C570.86236797 158.33968216 570.86236797 158.33968216 570.407794 159.57234573 C569.60538477 161.54796582 568.72475886 163.42568229 567.74544048 165.31892776 C567.41245953 165.97546341 567.07947857 166.63199905 566.73640728 167.30842972 C563.00517802 174.27434968 557.93835747 179.63566948 552.30794048 185.13142776 C550.96796001 186.53328323 550.96796001 186.53328323 549.60090923 187.96345901 C547.30794048 190.13142776 547.30794048 190.13142776 545.30794048 190.13142776 C545.30794048 323.45142776 545.30794048 456.77142776 545.30794048 594.13142776 C560.15794048 594.13142776 575.00794048 594.13142776 590.30794048 594.13142776 C595.30794048 598.13142776 595.30794048 598.13142776 596.30794048 600.13142776 C596.88905428 607.22101614 596.88905428 607.22101614 594.43294048 611.06892776 C591.42985245 613.98368968 589.87540038 614.25664522 585.80886006 614.2613796 C584.37674068 614.26667223 584.37674068 614.26667223 582.91568959 614.27207178 C581.85737333 614.270874 580.79905707 614.26967623 579.70867062 614.26844215 C578.02628526 614.27241989 578.02628526 614.27241989 576.30991232 614.27647799 C572.50653278 614.28421045 568.7031853 614.28473167 564.89979839 614.28532791 C562.16347923 614.28879195 559.42716319 614.29374079 556.6908462 614.29860747 C549.93027106 614.30969939 543.16970112 614.31533575 536.40911848 614.31931634 C528.31561344 614.32431902 520.22211851 614.33504549 512.12861944 614.34579808 C492.56418836 614.37144729 472.99975336 614.38646683 453.43531029 614.39930855 C446.95718294 614.40356133 440.47905587 614.408127 434.00092888 614.41289186 C399.57728928 614.43814907 365.15364923 614.46020345 330.7300024 614.47262001 C322.75174997 614.47554148 314.77349756 614.47850897 306.79524517 614.48152542 C305.30840734 614.48208178 305.30840734 614.48208178 303.79153238 614.48264939 C271.6416089 614.49480941 239.4917401 614.52576017 207.34184231 614.56744695 C174.30671997 614.61020361 141.27162652 614.63685705 108.23647575 614.64209472 C103.57371028 614.64283521 98.91094485 614.6437459 94.24817944 614.6447525 C92.87160787 614.64503842 92.87160787 614.64503842 91.46722677 614.64533012 C76.67856471 614.64884818 61.88997099 614.66916664 47.10133406 614.69554914 C32.24526318 614.72165297 17.38927152 614.72943851 2.53318098 614.71844785 C-6.29948751 614.71245736 -15.1318879 614.72045421 -23.96451598 614.74827869 C-29.85970343 614.76547986 -35.75470724 614.76462491 -41.64989844 614.748911 C-45.01227402 614.74046744 -48.37371739 614.74276415 -51.73611423 614.76152246 C-55.35434964 614.78048196 -58.97122285 614.76893701 -62.58942509 614.74946022 C-64.16285248 614.76873405 -64.16285248 614.76873405 -65.76806629 614.78839725 C-70.30168094 614.73439064 -73.65930258 614.67088093 -77.31956792 611.81155074 C-80.27816652 608.46932264 -80.77134201 606.57124722 -80.69205952 602.13142776 C-78.93114396 598.05351806 -77.37032307 596.89012543 -73.69205952 594.13142776 C-58.84205952 594.13142776 -43.99205952 594.13142776 -28.69205952 594.13142776 C-28.69205952 460.81142776 -28.69205952 327.49142776 -28.69205952 190.13142776 C-30.01205952 189.47142776 -31.33205952 188.81142776 -32.69205952 188.13142776 C-47.04489685 175.89585681 -57.32058468 158.44084839 -58.92182636 139.39906693 C-59.05311303 136.35054606 -59.12607858 133.30749132 -59.16862202 130.25642776 C-59.18476551 129.13309036 -59.200909 128.00975296 -59.21754169 126.85237503 C-59.24508186 124.48240065 -59.26658885 122.11234931 -59.28239155 119.74226761 C-59.30536833 117.34912277 -59.34617384 114.9560779 -59.40543842 112.56355667 C-59.76395408 98.05268542 -59.30250228 86.63001665 -51.79057026 74.00975418 C-50.01930831 70.98110095 -48.52050677 67.82517325 -46.98112202 64.67439651 C-46.31619502 63.35125652 -45.64978209 62.0288625 -44.98209858 60.70711136 C-42.70839922 56.18249801 -40.48322534 51.63460799 -38.25840473 47.08580399 C-36.09368052 42.66496194 -33.91585301 38.25063322 -31.73698139 33.83675003 C-30.61519629 31.55759103 -29.49840333 29.27596875 -28.38639545 26.99202347 C-26.75927912 23.65291638 -25.11424931 20.32317511 -23.46549702 16.99470901 C-22.97471668 15.97701935 -22.48393635 14.95932968 -21.97828388 13.91080093 C-19.21425902 8.3796697 -16.8754122 4.58535469 -11.69205952 1.13142776 C-7.78342377 -0.17145082 -4.07386934 -0.00850949 0 0 Z " fill="#FEFEFE" transform="translate(253.69205951690674,194.86857223510742)"/>
<path d="M0 0 C0.9032555 -0.00205263 1.806511 -0.00410527 2.73713788 -0.0062201 C5.79178348 -0.01191605 8.84638435 -0.01042967 11.90103436 -0.00901413 C14.10199129 -0.01159628 16.30294776 -0.01460901 18.50390357 -0.01801753 C24.57398459 -0.0261084 30.6440538 -0.02787826 36.71413958 -0.028615 C42.58133485 -0.03027243 48.44852393 -0.03658793 54.31571598 -0.04269341 C70.0383115 -0.0587638 85.76090606 -0.06465772 101.48350832 -0.06944216 C108.91874612 -0.07177691 116.35398315 -0.07537941 123.78922035 -0.07913754 C149.23225408 -0.0919735 174.67528738 -0.10269302 200.11832428 -0.10614014 C201.71588961 -0.10636177 203.31345493 -0.10658355 204.91102026 -0.10680549 C206.51248003 -0.10702613 208.1139398 -0.10724661 209.71539956 -0.10746694 C212.92829406 -0.10790949 216.14118856 -0.10835661 219.35408306 -0.10880661 C220.15069585 -0.108916 220.94730863 -0.10902539 221.7680612 -0.1091381 C247.60605254 -0.11276981 273.44401584 -0.12869395 299.28199644 -0.15199697 C326.58860666 -0.1765796 353.89520085 -0.19031223 381.20182246 -0.19150805 C384.19798196 -0.19167951 387.19414145 -0.19189494 390.19030094 -0.19214249 C390.92805926 -0.19219826 391.66581758 -0.19225402 392.42593221 -0.19231148 C404.31065209 -0.19346325 416.19534325 -0.20449587 428.08005343 -0.21902954 C440.02009261 -0.23337868 451.96009489 -0.23664049 463.90014032 -0.22858956 C470.37166723 -0.22467155 476.84309728 -0.22566866 483.31461239 -0.23964691 C489.23436644 -0.25231684 495.15395015 -0.25124941 501.07370373 -0.2390562 C503.21973783 -0.23708717 505.36578372 -0.24023274 507.51180122 -0.24890056 C510.42086254 -0.25991007 513.32931382 -0.25256401 516.23835754 -0.24050903 C517.07845839 -0.24810423 517.91855923 -0.25569942 518.78411767 -0.26352477 C523.70012021 -0.21931444 527.03584326 0.43723357 531.30794048 3.13142776 C534.5525826 6.56198455 536.58242611 10.31020456 538.68025494 14.51961136 C538.99146282 15.13998276 539.30267071 15.76035416 539.62330914 16.39952469 C540.64510385 18.44012074 541.65825921 20.48487242 542.67122173 22.52986526 C543.38813454 23.96675503 544.1055248 25.40340668 544.82336712 26.83983231 C546.32734126 29.85237697 547.82737796 32.86683668 549.3242979 35.88289261 C551.22156496 39.7054731 553.12557611 43.52463902 555.03227234 47.34252357 C556.87276104 51.02872325 558.70953642 54.71676949 560.54622173 58.40486526 C560.88691504 59.08813259 561.22760834 59.77139992 561.57862568 60.47537231 C563.20919314 63.74812675 564.83044218 67.02481221 566.43191814 70.31190872 C567.69118236 72.89644362 568.99106184 75.45482085 570.3181181 78.00514603 C574.35960384 85.9338299 576.33740346 92.65559878 576.13215923 101.66267776 C576.13153233 103.34206436 576.13153233 103.34206436 576.13089275 105.05537796 C576.12259367 107.39806718 576.09742578 109.74075485 576.05574322 112.08308792 C575.9955499 115.62498956 575.99418672 119.16330526 576.00129986 122.70564651 C575.94952764 134.73141914 575.52668072 145.77962978 571.30794048 157.13142776 C570.86236797 158.33968216 570.86236797 158.33968216 570.407794 159.57234573 C569.60538477 161.54796582 568.72475886 163.42568229 567.74544048 165.31892776 C567.41245953 165.97546341 567.07947857 166.63199905 566.73640728 167.30842972 C563.00517802 174.27434968 557.93835747 179.63566948 552.30794048 185.13142776 C550.96796001 186.53328323 550.96796001 186.53328323 549.60090923 187.96345901 C547.30794048 190.13142776 547.30794048 190.13142776 545.30794048 190.13142776 C545.30794048 323.45142776 545.30794048 456.77142776 545.30794048 594.13142776 C560.15794048 594.13142776 575.00794048 594.13142776 590.30794048 594.13142776 C595.30794048 598.13142776 595.30794048 598.13142776 596.30794048 600.13142776 C596.88905428 607.22101614 596.88905428 607.22101614 594.43294048 611.06892776 C591.42985245 613.98368968 589.87540038 614.25664522 585.80886006 614.2613796 C584.37674068 614.26667223 584.37674068 614.26667223 582.91568959 614.27207178 C581.85737333 614.270874 580.79905707 614.26967623 579.70867062 614.26844215 C578.02628526 614.27241989 578.02628526 614.27241989 576.30991232 614.27647799 C572.50653278 614.28421045 568.7031853 614.28473167 564.89979839 614.28532791 C562.16347923 614.28879195 559.42716319 614.29374079 556.6908462 614.29860747 C549.93027106 614.30969939 543.16970112 614.31533575 536.40911848 614.31931634 C528.31561344 614.32431902 520.22211851 614.33504549 512.12861944 614.34579808 C492.56418836 614.37144729 472.99975336 614.38646683 453.43531029 614.39930855 C446.95718294 614.40356133 440.47905587 614.408127 434.00092888 614.41289186 C399.57728928 614.43814907 365.15364923 614.46020345 330.7300024 614.47262001 C322.75174997 614.47554148 314.77349756 614.47850897 306.79524517 614.48152542 C305.30840734 614.48208178 305.30840734 614.48208178 303.79153238 614.48264939 C271.6416089 614.49480941 239.4917401 614.52576017 207.34184231 614.56744695 C174.30671997 614.61020361 141.27162652 614.63685705 108.23647575 614.64209472 C103.57371028 614.64283521 98.91094485 614.6437459 94.24817944 614.6447525 C92.87160787 614.64503842 92.87160787 614.64503842 91.46722677 614.64533012 C76.67856471 614.64884818 61.88997099 614.66916664 47.10133406 614.69554914 C32.24526318 614.72165297 17.38927152 614.72943851 2.53318098 614.71844785 C-6.29948751 614.71245736 -15.1318879 614.72045421 -23.96451598 614.74827869 C-29.85970343 614.76547986 -35.75470724 614.76462491 -41.64989844 614.748911 C-45.01227402 614.74046744 -48.37371739 614.74276415 -51.73611423 614.76152246 C-55.35434964 614.78048196 -58.97122285 614.76893701 -62.58942509 614.74946022 C-64.16285248 614.76873405 -64.16285248 614.76873405 -65.76806629 614.78839725 C-70.30168094 614.73439064 -73.65930258 614.67088093 -77.31956792 611.81155074 C-80.27816652 608.46932264 -80.77134201 606.57124722 -80.69205952 602.13142776 C-78.93114396 598.05351806 -77.37032307 596.89012543 -73.69205952 594.13142776 C-58.84205952 594.13142776 -43.99205952 594.13142776 -28.69205952 594.13142776 C-28.69205952 460.81142776 -28.69205952 327.49142776 -28.69205952 190.13142776 C-30.01205952 189.47142776 -31.33205952 188.81142776 -32.69205952 188.13142776 C-47.04489685 175.89585681 -57.32058468 158.44084839 -58.92182636 139.39906693 C-59.05311303 136.35054606 -59.12607858 133.30749132 -59.16862202 130.25642776 C-59.18476551 129.13309036 -59.200909 128.00975296 -59.21754169 126.85237503 C-59.24508186 124.48240065 -59.26658885 122.11234931 -59.28239155 119.74226761 C-59.30536833 117.34912277 -59.34617384 114.9560779 -59.40543842 112.56355667 C-59.76395408 98.05268542 -59.30250228 86.63001665 -51.79057026 74.00975418 C-50.01930831 70.98110095 -48.52050677 67.82517325 -46.98112202 64.67439651 C-46.31619502 63.35125652 -45.64978209 62.0288625 -44.98209858 60.70711136 C-42.70839922 56.18249801 -40.48322534 51.63460799 -38.25840473 47.08580399 C-36.09368052 42.66496194 -33.91585301 38.25063322 -31.73698139 33.83675003 C-30.61519629 31.55759103 -29.49840333 29.27596875 -28.38639545 26.99202347 C-26.75927912 23.65291638 -25.11424931 20.32317511 -23.46549702 16.99470901 C-22.97471668 15.97701935 -22.48393635 14.95932968 -21.97828388 13.91080093 C-19.21425902 8.3796697 -16.8754122 4.58535469 -11.69205952 1.13142776 C-7.78342377 -0.17145082 -4.07386934 -0.00850949 0 0 Z M73.30794048 168.13142776 C72.91864361 168.73728714 72.52934673 169.34314651 72.12825298 169.96736526 C60.6636311 187.13788191 45.58908917 197.2005227 25.57747173 201.75252151 C20.69548434 202.31829544 15.84313458 202.27521677 10.93294048 202.25642776 C9.42860455 202.26222855 9.42860455 202.26222855 7.89387798 202.26814651 C6.90903423 202.26685745 5.92419048 202.26556839 4.90950298 202.26424026 C4.02601177 202.26311234 3.14252056 202.26198441 2.23225689 202.2608223 C-1.42501185 202.09899625 -5.05948182 201.58549998 -8.69205952 201.13142776 C-8.69205952 330.82142776 -8.69205952 460.51142776 -8.69205952 594.13142776 C167.52794048 594.13142776 343.74794048 594.13142776 525.30794048 594.13142776 C525.30794048 464.44142776 525.30794048 334.75142776 525.30794048 201.13142776 C522.00794048 201.46142776 518.70794048 201.79142776 515.30794048 202.13142776 C493.51496075 203.453928 474.18493158 200.02103486 457.30794048 185.13142776 C451.63838744 180.03613884 447.28121101 174.63314317 443.30794048 168.13142776 C442.73172955 168.85845901 442.15551861 169.58549026 441.56184673 170.33455276 C428.2979215 186.79377368 412.18618783 200.04209728 390.4534483 202.44734573 C387.52234225 202.60331924 384.6180691 202.65013966 381.68294048 202.63142776 C380.12023418 202.62393509 380.12023418 202.62393509 378.52595806 202.61629105 C359.25915852 202.18665845 342.24084061 194.38638231 328.78840923 180.53767776 C325.44156053 176.86101037 322.2446456 173.14523162 319.30794048 169.13142776 C318.56350689 170.09242386 318.56350689 170.09242386 317.80403423 171.07283401 C305.68915108 186.49804578 290.38162192 199.17297035 270.30794048 202.13142776 C249.84619908 203.9326374 230.99120195 200.58855442 214.42512798 187.92830276 C208.07925283 182.3780878 201.99419087 176.16080335 197.30794048 169.13142776 C196.64794048 169.13142776 195.98794048 169.13142776 195.30794048 169.13142776 C194.03144393 170.85291033 194.03144393 170.85291033 192.74544048 173.06892776 C183.01887423 187.97366598 167.13861027 198.00046066 149.83943462 201.71467972 C130.31087791 204.92957472 110.69093563 201.27059762 94.30794048 190.13142776 C87.47743453 184.9534321 81.65254047 178.84178546 76.61262798 171.90877151 C75.28882661 170.01125624 75.28882661 170.01125624 73.30794048 168.13142776 Z " fill="#0A0A0A" transform="translate(253.69205951690674,194.86857223510742)"/>
<path d="M0 0 C19.01940312 14.68514634 30.89313421 34.31433991 33.98095703 58.20556641 C36.33346652 80.77964681 30.10767537 103.17342883 15.875 120.875 C7.07465137 130.94646941 -2.0788645 140.607913 -11.54296875 150.05078125 C-12.6292394 151.13772848 -13.71536183 152.22482386 -14.80134583 153.3120575 C-17.05434379 155.5665133 -19.30909789 157.8191929 -21.56518555 160.07055664 C-24.43619285 162.93584012 -27.30264772 165.80562949 -30.16781139 168.67675495 C-32.40093937 170.91351724 -34.63646907 173.14786699 -36.87270546 175.38152122 C-37.93024065 176.4383965 -38.98705352 177.49599512 -40.04308128 178.5543766 C-45.26675077 183.78714591 -50.49951555 188.9518087 -56.16792297 193.70817566 C-58.45145737 195.76225277 -60.32027786 198.09036657 -62.27030945 200.45602417 C-63.89725085 202.28265299 -65.61862867 203.8141641 -67.48754883 205.39111328 C-71.88882994 209.19517577 -75.95149982 213.26753196 -80.01171875 217.4296875 C-81.5665989 219.00696243 -83.12195252 220.58377073 -84.67773438 222.16015625 C-87.08681737 224.60616662 -89.49269843 227.05501722 -91.89038086 229.51220703 C-110.83723172 248.90539354 -131.39518063 265.01419928 -159.78662109 265.47973633 C-170.87537413 265.54461484 -180.42511087 265.38636536 -190.8125 261.1875 C-191.83988281 260.81367187 -192.86726563 260.43984375 -193.92578125 260.0546875 C-205.5474119 255.59505287 -214.97214012 248.88027457 -223.8125 240.1875 C-224.86244141 239.15689453 -224.86244141 239.15689453 -225.93359375 238.10546875 C-241.01079211 222.26412389 -247.62368813 200.56089184 -248.1875 179.0625 C-247.77767513 164.83338059 -244.16254547 152.80986287 -237.8125 140.1875 C-237.28785156 139.12660156 -236.76320313 138.06570313 -236.22265625 136.97265625 C-226.52694458 118.932469 -208.44544289 104.62397568 -194.0703125 90.20703125 C-192.87320984 89.00586988 -191.67613648 87.80467931 -190.47909164 86.60346031 C-184.85716939 80.96257531 -179.23289755 75.32404612 -173.60568345 69.68844014 C-167.1571291 63.23010255 -160.71696155 56.76354911 -154.28371155 50.28996736 C-149.27468458 45.25063857 -144.25787048 40.21914565 -139.23531997 35.19329566 C-136.25109275 32.20673715 -133.27014691 29.21708179 -130.29748917 26.21900368 C-127.50072691 23.39870209 -124.69428267 20.5883854 -121.88064575 17.78492165 C-120.8606458 16.76541068 -119.84394592 15.7425833 -118.83117294 14.71589279 C-85.48967569 -19.05735014 -39.95509402 -27.61768539 0 0 Z " fill="#0A0A0A" transform="translate(616.8125,463.8125)"/>
<path d="M0 0 C171.93 0 343.86 0 521 0 C533.55644778 23.97140032 533.55644778 23.97140032 537.6875 32.8125 C541.25404598 40.36847965 544.88549548 47.87949908 548.71557617 55.3059082 C551 59.7881742 551 59.7881742 551 62 C359.6 62 168.2 62 -29 62 C-27.46128003 57.3838401 -25.87887289 53.54669328 -23.69140625 49.2578125 C-23.36518784 48.61294891 -23.03896942 47.96808533 -22.7028656 47.30368042 C-21.32679624 44.58353619 -19.94173425 41.86801583 -18.5559082 39.15283203 C-11.98402544 26.25312372 -6.04357997 13.18599266 0 0 Z " fill="#FEFEFE" transform="translate(251,216)"/>
<path d="M0 0 C13.28192079 10.0125249 22.37027745 25.00323932 25.71875 41.26171875 C28.24804099 60.26036254 25.75519859 77.24889116 14.23046875 93.10546875 C7.60056565 100.85298326 0.41750179 108.05167769 -6.8046875 115.23828125 C-7.93547742 116.36720068 -9.06604276 117.49634511 -10.19639587 118.6257019 C-13.13843188 121.56396239 -16.08346052 124.49920461 -19.0291748 127.43377686 C-22.04799591 130.44227563 -25.06390509 133.45369057 -28.08007812 136.46484375 C-33.97375502 142.34787118 -39.87060432 148.22770557 -45.76953125 154.10546875 C-51.32106682 149.48114574 -56.45485721 144.55690715 -61.55053711 139.43798828 C-62.40011993 138.58855148 -63.24970276 137.73911469 -64.12503052 136.86393738 C-66.4342086 134.55418553 -68.74116527 132.2422433 -71.04711986 129.92927408 C-73.46495474 127.50515144 -75.88565695 125.08389539 -78.30604553 122.662323 C-82.88002622 118.08524489 -87.45145369 113.50562562 -92.0219503 108.92506874 C-97.22921309 103.70659524 -102.43934487 98.49099013 -107.64970958 93.27561402 C-118.35949324 82.555402 -129.06570124 71.83162558 -139.76953125 61.10546875 C-136.24009616 56.9167034 -132.64900315 52.85430311 -128.79663086 48.95556641 C-128.33871155 48.4910759 -127.88079224 48.02658539 -127.40899658 47.54801941 C-125.91612152 46.03568995 -124.4194836 44.52717265 -122.921875 43.01953125 C-122.40300783 42.49658855 -121.88414066 41.97364586 -121.34955025 41.43485641 C-118.60130022 38.66586168 -115.84986485 35.90007628 -113.09594727 33.13671875 C-110.28612203 30.31586626 -107.4881785 27.48353119 -104.69278622 24.648386 C-102.51079064 22.43996295 -100.31968484 20.24074151 -98.12622261 18.04371262 C-97.09243882 17.00512841 -96.0619661 15.96323531 -95.03523064 14.91768265 C-85.03332701 4.74398515 -74.26927049 -3.80217399 -60.76953125 -8.89453125 C-59.980625 -9.21292969 -59.19171875 -9.53132813 -58.37890625 -9.859375 C-38.76436469 -16.55175789 -16.59318658 -11.35076938 0 0 Z " fill="#FDFDFD" transform="translate(604.76953125,478.89453125)"/>
<path d="M0 0 C5.55153557 4.62432301 10.68532596 9.5485616 15.78100586 14.66748047 C17.0553801 15.94163567 17.0553801 15.94163567 18.35549927 17.24153137 C20.66467735 19.55128322 22.97163402 21.86322545 25.27758861 24.17619467 C27.69542349 26.60031731 30.1161257 29.02157336 32.53651428 31.44314575 C37.11049497 36.02022386 41.68192244 40.59984313 46.25241905 45.18040001 C51.45968184 50.39887351 56.66981362 55.61447862 61.88017833 60.82985473 C72.58996199 71.55006675 83.29616999 82.27384317 94 93 C90.77120501 96.81552587 87.53818276 100.58455913 84.02099609 104.14013672 C82.93859146 105.23695267 82.93859146 105.23695267 81.83432007 106.35592651 C81.07172882 107.12276764 80.30913757 107.88960876 79.5234375 108.6796875 C78.71693756 109.49188751 77.91043762 110.30408752 77.07949829 111.14089966 C75.37812855 112.85167343 73.67533312 114.56103041 71.97119141 116.26904297 C69.39668643 118.85323199 66.83307099 121.44790806 64.26953125 124.04296875 C46.84790211 141.57888765 29.2425945 156.95844177 3.1875 157.4375 C-14.72517327 157.28224389 -30.54006557 150.47878994 -43.2734375 137.890625 C-56.6315146 123.72876676 -62.57653496 107.27848458 -62.48974609 87.89770508 C-61.67216143 64.27051141 -47.29991888 46.90859309 -31.15234375 30.95703125 C-30.25504044 30.06255783 -29.35773712 29.16808441 -28.4332428 28.24650574 C-26.08442523 25.90688359 -23.73134726 23.57166852 -21.37597656 21.23864746 C-18.95850067 18.84189162 -16.54690955 16.43922923 -14.13476562 14.03710938 C-9.42848387 9.35271048 -4.71652046 4.67408866 0 0 Z " fill="#FEFEFE" transform="translate(451,553)"/>
<path d="M0 0 C33.99 0 67.98 0 103 0 C103 50.68181818 103 50.68181818 89 65 C75.06300727 77.51586825 61.7945149 80.99280887 43.42089844 80.19091797 C38.41935814 79.79648427 34.36802335 78.39674008 30 76 C29.0821875 75.50242187 28.164375 75.00484375 27.21875 74.4921875 C13.14979828 66.18222975 5.36977857 55.5298503 1 40 C-1.61569882 26.92150588 0 13.33749935 0 0 Z " fill="#FDFDFD" transform="translate(583,298)"/>
<path d="M0 0 C33.99 0 67.98 0 103 0 C103 50.04574132 103 50.04574132 89.5234375 64.69140625 C78.45486928 75.39314872 66.24175422 80.42501398 50.98828125 80.36572266 C36.07368783 80.03529772 24.02220825 73.55823729 13.32421875 63.46484375 C-3.3557258 45.77569247 0 23.2587916 0 0 Z " fill="#FEFEFE" transform="translate(460,298)"/>
<path d="M0 0 C33.66 0 67.32 0 102 0 C102 50.37230216 102 50.37230216 87.75 65.75 C76.37026307 76.29522289 63.41879511 80.68602027 48.09765625 80.53881836 C33.08271983 79.93876231 21.41188827 72.86417152 11.125 62.1875 C-4.15360872 44.39434387 0 23.02006322 0 0 Z " fill="#FEFEFE" transform="translate(338,298)"/>
<path d="M0 0 C33.66 0 67.32 0 102 0 C102 50.83117174 102 50.83117174 88.8125 64.75 C77.20413514 75.5831819 64.49117855 80.66975374 48.67163086 80.47070312 C33.44304331 79.8620129 22.38194017 73.22101747 12.03515625 62.36328125 C-3.27649624 44.58295542 0 22.52488829 0 0 Z " fill="#FEFEFE" transform="translate(215,298)"/>
<path d="M0 0 C33.33 0 66.66 0 101 0 C101 50.65635776 101 50.65635776 85.5625 66.8125 C74.63006979 77.24883674 62.33891129 80.67658912 47.38598633 80.53833008 C32.58981616 79.98022276 21.20640383 72.66816735 11.125 62.1875 C-4.15360872 44.39434387 0 23.02006322 0 0 Z " fill="#FEFEFE" transform="translate(707,298)"/>
<path d="M0 0 C34.65 0 69.3 0 105 0 C105 0.66 105 1.32 105 2 C71.01 2 37.02 2 2 2 C2 15.2 2 28.4 2 42 C-0.51864485 36.9627103 -1.1482726 33.99083064 -1.1328125 28.4375 C-1.13376923 27.69040771 -1.13472595 26.94331543 -1.13571167 26.17358398 C-1.13639249 24.59326086 -1.13454503 23.01293494 -1.13037109 21.43261719 C-1.12502142 19.0097019 -1.13031935 16.586972 -1.13671875 14.1640625 C-1.13605795 12.63020792 -1.13477675 11.09635346 -1.1328125 9.5625 C-1.13483673 8.83538818 -1.13686096 8.10827637 -1.13894653 7.35913086 C-1.1149618 2.22992361 -1.1149618 2.22992361 0 0 Z " fill="#141414" transform="translate(336,296)"/>
<path d="M0 0 C0 0.99 0 1.98 0 3 C-0.99 3.495 -0.99 3.495 -2 4 C-1.34 2.68 -0.68 1.36 0 0 Z M-4 5 C-3.67 5.99 -3.34 6.98 -3 8 C-4.65 9.32 -6.3 10.64 -8 12 C-8 9 -8 9 -6 6.8125 C-5.34 6.214375 -4.68 5.61625 -4 5 Z M-11 11 C-10.34 11.33 -9.68 11.66 -9 12 C-9.99 12 -10.98 12 -12 12 C-11.67 11.67 -11.34 11.34 -11 11 Z M-14 13 C-13.34 13.33 -12.68 13.66 -12 14 C-12.99 14 -13.98 14 -15 14 C-14.67 13.67 -14.34 13.34 -14 13 Z " fill="#100F10" transform="translate(431,356)"/>
<path d="M0 0 C0.66 0.33 1.32 0.66 2 1 C-0.64 3.64 -3.28 6.28 -6 9 C-6.66 8.67 -7.32 8.34 -8 8 C-5.36 5.36 -2.72 2.72 0 0 Z M-10 9 C-9.34 9.33 -8.68 9.66 -8 10 C-9.32 11.32 -10.64 12.64 -12 14 C-12.33 13.01 -12.66 12.02 -13 11 C-12.01 10.34 -11.02 9.68 -10 9 Z " fill="#1A1A1A" transform="translate(796,360)"/>
<path d="M0 0 C4.29 0.99 8.58 1.98 13 3 C12.67 3.66 12.34 4.32 12 5 C9.69 5 7.38 5 5 5 C5 4.34 5 3.68 5 3 C3.35 2.67 1.7 2.34 0 2 C0 1.34 0 0.68 0 0 Z " fill="#141414" transform="translate(491,374)"/>
<path d="M0 0 C0.99 0 1.98 0 3 0 C2.67 2.64 2.34 5.28 2 8 C1.01 8 0.02 8 -1 8 C-0.67 5.36 -0.34 2.72 0 0 Z " fill="#1D1D1C" transform="translate(174,794)"/>
<path d="M0 0 C0.66 0 1.32 0 2 0 C5.22265625 5.17578125 5.22265625 5.17578125 6 7 C5.67 7.99 5.34 8.98 5 10 C2.35534962 6.8745041 1.15585285 3.91211733 0 0 Z " fill="#141414" transform="translate(790,252)"/>
<path d="M0 0 C2.33944736 0.28730055 4.6739143 0.61936779 7 1 C3.00439392 3.83022097 -0.42737323 2.76210446 -5 2 C-4.360625 1.855625 -3.72125 1.71125 -3.0625 1.5625 C-1.02454854 1.18992819 -1.02454854 1.18992819 0 0 Z " fill="#121212" transform="translate(403,394)"/>
<path d="M0 0 C1.69752187 0.25245197 3.38471545 0.57645775 5.0625 0.9375 C5.98160156 1.13214844 6.90070313 1.32679688 7.84765625 1.52734375 C8.91306641 1.76130859 8.91306641 1.76130859 10 2 C6.328125 4.03125 6.328125 4.03125 3.375 3.75 C1 3 1 3 -1 1 C-0.67 0.67 -0.34 0.34 0 0 Z " fill="#151515" transform="translate(247,375)"/>
<path d="M0 0 C2.64 0.33 5.28 0.66 8 1 C8.33 1.99 8.66 2.98 9 4 C6.03 3.67 3.06 3.34 0 3 C0 2.01 0 1.02 0 0 Z " fill="#111111" transform="translate(438,708)"/>
<path d="M0 0 C3.465 1.98 3.465 1.98 7 4 C7 4.99 7 5.98 7 7 C4.36 5.35 1.72 3.7 -1 2 C-0.67 1.34 -0.34 0.68 0 0 Z " fill="#121212" transform="translate(593,383)"/>
</svg>
