<?xml version="1.0" encoding="UTF-8"?>
<svg version="1.1" xmlns="http://www.w3.org/2000/svg" width="1024" height="1024">
<path d="M0 0 C337.92 0 675.84 0 1024 0 C1024 337.92 1024 675.84 1024 1024 C686.08 1024 348.16 1024 0 1024 C0 686.08 0 348.16 0 0 Z " fill="#FEFEFE" transform="translate(0,0)"/>
<path d="M0 0 C1.11847321 -0.00571014 2.23694641 -0.01142029 3.38931274 -0.01730347 C4.60705383 -0.01842133 5.82479492 -0.01953918 7.07943726 -0.02069092 C8.36947662 -0.02565582 9.65951599 -0.03062073 10.98864746 -0.03573608 C14.52203463 -0.04882397 18.05540283 -0.05529838 21.58881044 -0.05974674 C23.80055652 -0.06268431 26.01229749 -0.06679047 28.22404099 -0.07125092 C35.15613709 -0.08491854 42.08822143 -0.09458786 49.02033007 -0.09845281 C56.99951612 -0.10292693 64.97853031 -0.12044777 72.95766413 -0.1494534 C79.1396302 -0.17113897 85.32154817 -0.1811608 91.50355184 -0.18249393 C95.18881245 -0.18353737 98.87391135 -0.18934587 102.55913162 -0.20731354 C106.67798364 -0.22700506 110.79648067 -0.22247801 114.91537476 -0.21600342 C116.12097046 -0.2252182 117.32656616 -0.23443298 118.56869507 -0.243927 C129.47974604 -0.19040777 140.12290939 1.44039555 148.3855896 9.14044189 C153.44457749 15.81700317 156.66822032 22.72526192 156.5809021 31.19512939 C156.57445679 32.30372314 156.56801147 33.41231689 156.56137085 34.55450439 C156.54461304 35.69661377 156.52785522 36.83872314 156.5105896 38.01544189 C156.50156616 39.18075439 156.49254272 40.34606689 156.48324585 41.54669189 C156.45976392 44.41148767 156.42692101 47.27585724 156.3855896 50.14044189 C157.53436081 50.13155945 158.68313202 50.122677 159.86671448 50.11352539 C170.73784019 50.03213888 181.6089034 49.97233281 192.48026562 49.93319321 C198.06822174 49.91239409 203.65593024 49.88421768 209.2437439 49.83868408 C214.64487933 49.79495137 220.04577785 49.77124718 225.4470768 49.76093292 C227.49898312 49.75359052 229.55087774 49.73925364 231.60268211 49.71752167 C247.98693023 49.55102124 261.86201891 50.5336251 274.53793335 62.10528564 C282.33775073 70.13749982 286.51320114 80.36454819 286.50863743 91.55021381 C286.51062848 92.6295715 286.51261953 93.70892918 286.51467091 94.82099468 C286.51175807 96.00095159 286.50884523 97.18090851 286.50584412 98.3966217 C286.50712575 100.28350575 286.50712575 100.28350575 286.50843328 102.20850867 C286.51066904 105.6975066 286.5066695 109.18647383 286.50165522 112.67546785 C286.49733775 116.43887797 286.49879807 120.20228635 286.4995575 123.96569824 C286.50008191 130.4852165 286.49694374 137.00472475 286.49131966 143.52424049 C286.48319346 152.95037167 286.48058829 162.376498 286.47933166 171.80263229 C286.47714291 187.09582092 286.47048759 202.38900421 286.46102905 217.68218994 C286.45185038 232.53830946 286.44477177 247.39442753 286.44052124 262.25054932 C286.44012715 263.62409035 286.44012715 263.62409035 286.43972511 265.02537969 C286.43842007 269.61913639 286.43715636 274.21289309 286.43591321 278.8066498 C286.42554608 316.91791757 286.40793255 355.02917938 286.3855896 393.14044189 C286.9319104 392.85907883 287.4782312 392.57771576 288.04110718 392.28782654 C288.75935669 391.92232193 289.4776062 391.55681732 290.21762085 391.18023682 C290.92894165 390.81637375 291.64026245 390.45251068 292.37313843 390.07762146 C296.45579744 388.17636559 300.0427864 388.245357 304.3855896 389.14044189 C306.30664062 390.42750549 306.30664062 390.42750549 308.13412476 392.12994385 C308.8229071 392.76630768 309.51168945 393.40267151 310.22134399 394.05831909 C310.93554504 394.74541962 311.64974609 395.43252014 312.3855896 396.14044189 C313.09737366 396.8237558 313.80915771 397.5070697 314.54251099 398.21109009 C316.8487745 400.45573296 319.13175358 402.72187102 321.4090271 404.99591064 C322.23641388 405.81996902 323.06380066 406.6440274 323.91625977 407.49305725 C325.65034354 409.22211051 327.38310397 410.95249192 329.11459351 412.68414307 C331.76852655 415.33587226 334.43037855 417.97948004 337.09262085 420.62286377 C338.78191163 422.30922332 340.47073059 423.99605568 342.1590271 425.68341064 C342.95481171 426.47200974 343.75059631 427.26060883 344.57049561 428.07310486 C345.30531158 428.81099747 346.04012756 429.54889008 346.79721069 430.30914307 C347.44370575 430.9542131 348.09020081 431.59928314 348.75628662 432.26390076 C352.13672164 436.15729902 353.01416564 439.70334969 352.88949585 444.77325439 C351.47468939 451.41955452 344.51570121 456.05105412 339.55941772 460.23468018 C337.32246514 462.19578214 335.22511762 464.24611122 333.13168335 466.35919189 C332.42584106 467.07010986 331.71999878 467.78102783 330.99276733 468.51348877 C330.46239868 469.0503833 329.93203003 469.58727783 329.3855896 470.14044189 C329.67804565 470.80575928 329.97050171 471.47107666 330.27182007 472.15655518 C331.60413821 475.19166151 332.93239714 478.228528 334.2605896 481.26544189 C334.72078491 482.31216064 335.18098022 483.35887939 335.65512085 484.43731689 C336.09984741 485.45567627 336.54457397 486.47403564 337.0027771 487.52325439 C337.41124878 488.45540771 337.81972046 489.38756104 338.24057007 490.34796143 C339.4273783 493.24235643 340.42892706 496.16287777 341.3855896 499.14044189 C342.38936646 499.14455078 343.39314331 499.14865967 344.42733765 499.15289307 C348.16450804 499.17472501 351.90063161 499.22905484 355.63729858 499.29302979 C357.25210509 499.31617475 358.86706181 499.33059732 360.48202515 499.33599854 C362.80890108 499.34531464 365.13342636 499.38635557 367.45980835 499.43341064 C368.53666145 499.42751167 368.53666145 499.42751167 369.63526917 499.42149353 C373.3121561 499.52765623 375.16036327 499.96170646 378.06620789 502.26773071 C380.84562862 505.71023134 381.0582527 507.38737916 381.18441772 511.76324463 C381.22200195 512.73011703 381.22200195 512.73011703 381.26034546 513.71652222 C381.33637413 515.83569527 381.37744358 517.95388982 381.4168396 520.07403564 C381.46006072 521.55472163 381.50496817 523.03535926 381.55148315 524.51594543 C381.64359975 527.61496266 381.71907727 530.71379473 381.78207397 533.8135376 C381.86341038 537.77665412 381.98017751 541.73773424 382.10874176 545.69956875 C382.20498389 548.75599215 382.28528556 551.81267086 382.36054993 554.86967659 C382.3978441 556.33015309 382.43934586 557.79052867 382.48521423 559.25076103 C382.54648797 561.29658798 382.58697044 563.34181994 382.62191772 565.38824463 C382.66258362 567.13100929 382.66258362 567.13100929 382.70407104 568.90898132 C382.22949616 573.72423841 380.4696893 576.97068823 377.2071228 580.49102783 C373.52715655 582.64226535 370.37861663 582.64653495 366.24105835 582.53106689 C365.0863781 582.52257721 365.0863781 582.52257721 363.90837097 582.51391602 C361.46263017 582.49162061 359.0183835 582.44144065 356.5730896 582.39044189 C354.90969938 582.37036789 353.24628607 582.35211869 351.58285522 582.33575439 C347.51652902 582.29177873 343.45131216 582.22280168 339.3855896 582.14044189 C338.9829187 583.76526489 338.9829187 583.76526489 338.57211304 585.4229126 C338.21311538 586.866529 337.85406299 588.31013179 337.4949646 589.75372314 C337.31884644 590.46500366 337.14272827 591.17628418 336.96127319 591.90911865 C335.71599208 596.90889363 334.36407872 601.86735364 332.9012146 606.80841064 C332.33692718 609.36052873 332.15602068 611.53571761 332.3855896 614.14044189 C334.32568482 615.84576513 334.32568482 615.84576513 336.3855896 617.14044189 C336.3855896 617.80044189 336.3855896 618.46044189 336.3855896 619.14044189 C336.95148804 619.38278564 337.51738647 619.62512939 338.10043335 619.87481689 C344.09679362 623.19587797 350.33235189 629.57008124 352.3855896 636.14044189 C353.01497998 639.34134156 353.06634898 641.94395009 352.3855896 645.14044189 C351.11479187 647.01594543 351.11479187 647.01594543 349.4180603 648.84967041 C348.78107208 649.54190704 348.14408386 650.23414368 347.48779297 650.94735718 C343.78101407 654.81438559 340.03356971 658.63474408 336.24105835 662.41778564 C335.39006058 663.26974014 334.53906281 664.12169464 333.66227722 664.99946594 C331.87767254 666.7847469 330.09182136 668.56878261 328.30477905 670.35162354 C325.56036798 673.0906385 322.82138528 675.83500141 320.08285522 678.57989502 C318.34424383 680.31784631 316.60532265 682.05548775 314.86605835 683.79278564 C314.04526291 684.61560532 313.22446747 685.43842499 312.37879944 686.28617859 C311.62073502 687.04109085 310.86267059 687.79600311 310.08163452 688.5737915 C309.08072029 689.57351234 309.08072029 689.57351234 308.05958557 690.59342957 C304.63831942 693.7551701 301.38183187 693.4829203 296.90512085 693.40606689 C291.18865832 692.80340108 287.97428486 688.76933292 284.1355896 684.89044189 C282.55490176 683.30446748 280.97148703 681.72120697 279.3855896 680.14044189 C278.58894897 679.32575439 277.79230835 678.51106689 276.9715271 677.67169189 C272.55659427 673.45071617 272.55659427 673.45071617 266.83480835 672.10137939 C263.85232623 672.85252304 261.20681259 673.91150006 258.3855896 675.14044189 C257.0438745 675.66778433 255.69998187 676.18960901 254.3543396 676.70684814 C250.67529566 678.13263382 247.02724968 679.6218549 243.3855896 681.14044189 C243.37100708 681.94151367 243.35642456 682.74258545 243.34140015 683.56793213 C243.26639544 687.23839236 243.16990752 690.90799484 243.0730896 694.57794189 C243.05053101 695.83800049 243.02797241 697.09805908 243.00473022 698.39630127 C242.53030004 714.91509786 242.53030004 714.91509786 236.9480896 720.64044189 C233.19589034 722.83685122 230.07147278 723.26554439 225.76327515 723.26983643 C224.39485725 723.27456467 224.39485725 723.27456467 222.99879456 723.27938843 C222.01655411 723.2773642 221.03431366 723.27533997 220.02230835 723.27325439 C218.48604546 723.27468948 218.48604546 723.27468948 216.91874695 723.27615356 C214.74582864 723.27683426 212.5729083 723.27498766 210.3999939 723.27081299 C207.12365958 723.26552354 203.84746618 723.27073016 200.57113647 723.27716064 C191.59835617 723.28177948 182.61799819 723.28604527 173.65512085 722.82012939 C172.54370728 722.76324951 171.4322937 722.70636963 170.28720093 722.64776611 C167.01116729 722.07497706 165.04515877 721.12003753 162.3855896 719.14044189 C159.32937023 713.73906985 158.77534484 708.63198954 158.3230896 702.51544189 C158.17088278 700.74697467 158.0159277 698.97874186 157.85824585 697.21075439 C157.78235229 696.35127197 157.70645874 695.49178955 157.62826538 694.60626221 C157.11749018 689.41629284 156.26704921 684.27916388 155.3855896 679.14044189 C152.22224661 678.15031554 149.05440604 677.17539469 145.8855896 676.20294189 C144.9987146 675.92514893 144.1118396 675.64735596 143.1980896 675.36114502 C137.92630962 673.75247687 132.91643278 672.27871297 127.3855896 672.14044189 C125.03352033 673.44842873 125.03352033 673.44842873 123.3855896 675.64044189 C122.39945679 676.74839111 122.39945679 676.74839111 121.3934021 677.87872314 C120.73082397 678.62509033 120.06824585 679.37145752 119.3855896 680.14044189 C116.78400575 682.55058844 114.08862467 684.845096 111.3855896 687.14044189 C110.80293335 687.63930908 110.2202771 688.13817627 109.6199646 688.65216064 C105.98618374 691.73029055 103.8954408 693.29913718 99.1355896 693.45294189 C98.38793335 693.49032471 97.6402771 693.52770752 96.8699646 693.56622314 C90.64271747 692.49897482 86.19449998 687.23347718 81.9480896 682.89044189 C81.41377319 682.35548096 80.87945679 681.82052002 80.32894897 681.26934814 C77.45534285 678.36469465 74.71189069 675.38847751 72.0496521 672.28887939 C67.27657475 666.7764417 62.01591036 661.757724 56.79379272 656.67559814 C47.03718664 647.05825512 47.03718664 647.05825512 45.8543396 641.76153564 C45.9061887 638.1385795 46.05895112 635.73691216 47.8230896 632.51544189 C50.00920526 630.48928592 52.21046797 628.69958223 54.5730896 626.89044189 C57.99078578 624.26888126 61.31808875 621.59661272 64.5105896 618.70294189 C65.27629272 618.02360596 66.04199585 617.34427002 66.8309021 616.64434814 C69.058757 613.05627027 68.27645285 610.08346922 67.3855896 606.14044189 C66.19901327 602.56713242 64.78292152 599.10974883 63.3230896 595.64044189 C62.94603882 594.72262939 62.56898804 593.80481689 62.18051147 592.85919189 C61.25747996 590.6158748 60.32574436 588.37662379 59.3855896 586.14044189 C58.42867124 586.13897533 57.47175287 586.13750877 56.48583698 586.13599777 C33.16469721 586.09934652 9.84370043 586.03982328 -13.47732067 585.95653915 C-24.75536006 585.9167884 -36.03333007 585.88437576 -47.31143188 585.8694458 C-57.14538907 585.85640875 -66.97919334 585.82939168 -76.8130644 585.78582883 C-82.01644998 585.76326026 -87.2196473 585.74752845 -92.42308617 585.74855804 C-97.32907818 585.74930738 -102.23465473 585.7312473 -107.14053917 585.69927406 C-108.93306074 585.69081346 -110.72562911 585.68899879 -112.51816177 585.69463921 C-126.24147093 585.73204163 -138.99562014 584.84503167 -149.6144104 575.14044189 C-150.53673462 574.37087158 -150.53673462 574.37087158 -151.47769165 573.58575439 C-157.74521765 567.9758489 -162.19662323 559.52297842 -162.75272644 551.0273872 C-162.76216173 549.88045805 -162.76216173 549.88045805 -162.77178764 548.71035862 C-162.78619996 547.37961698 -162.78619996 547.37961698 -162.80090344 546.02199167 C-162.809242 544.56499671 -162.809242 544.56499671 -162.81774902 543.0785675 C-162.82744748 542.04209943 -162.83714594 541.00563136 -162.84713829 539.93775517 C-162.87840852 536.44682778 -162.90251104 532.95588982 -162.92642212 529.46490479 C-162.94681496 526.96110984 -162.96752011 524.45731743 -162.98851395 521.95352745 C-163.04425322 515.09711813 -163.09283453 508.24067694 -163.13937616 501.38419986 C-163.16897819 497.03312597 -163.20067091 492.68206859 -163.23254013 488.33101082 C-163.7067363 423.16096443 -163.76956197 357.99139558 -163.74387226 292.81990333 C-163.73933839 281.0923549 -163.74024039 269.36481636 -163.74478149 257.63726807 C-163.75020284 243.63207769 -163.75220747 229.62689305 -163.74916923 215.62170178 C-163.74885099 214.11651011 -163.74853661 212.61131845 -163.74822617 211.10612679 C-163.74807189 210.36748846 -163.74791761 209.62885013 -163.74775866 208.86782883 C-163.746921 203.84162209 -163.74832245 198.81541932 -163.75070572 193.78921318 C-163.75775373 176.85777867 -163.72290767 159.9269493 -163.63279438 142.99571371 C-163.61708207 139.70071209 -163.60561393 136.40575185 -163.59632518 133.11072962 C-163.57544671 125.81038162 -163.52700615 118.51079501 -163.45185828 111.21075642 C-163.43001079 108.73654675 -163.41632371 106.26224904 -163.41154313 103.78794754 C-163.3702793 87.01226507 -162.81376716 73.8713059 -150.6144104 61.14044189 C-143.84337605 55.06282673 -135.68086037 50.00837787 -126.37496948 50.02018738 C-125.53646957 50.01881271 -124.69796967 50.01743805 -123.83406067 50.01602173 C-122.92271866 50.019617 -122.01137665 50.02321228 -121.07241821 50.0269165 C-119.62313683 50.02669746 -119.62313683 50.02669746 -118.14457703 50.026474 C-114.95220695 50.02717045 -111.75989528 50.0349504 -108.5675354 50.04278564 C-106.35364819 50.04465077 -104.13976057 50.04607423 -101.9258728 50.04707336 C-96.09960795 50.05089107 -90.27336804 50.06071502 -84.44711304 50.07177734 C-78.50158017 50.08200748 -72.55604328 50.08657442 -66.61050415 50.09161377 C-54.94512861 50.10233793 -43.27977158 50.11940543 -31.6144104 50.14044189 C-31.6458313 49.38537354 -31.6772522 48.63030518 -31.70962524 47.85235596 C-31.83587276 44.36536752 -31.912862 40.87886164 -31.9894104 37.39044189 C-32.03968384 36.20321533 -32.08995728 35.01598877 -32.14175415 33.79278564 C-32.30026654 24.12352996 -30.16666322 16.19172828 -23.57217407 8.87432861 C-16.8075673 2.46263511 -9.24116405 0.02836099 0 0 Z " fill="#FEFEFE" transform="translate(429.6144104003906,135.85955810546875)"/>
<path d="M0 0 C1.11847321 -0.00571014 2.23694641 -0.01142029 3.38931274 -0.01730347 C4.60705383 -0.01842133 5.82479492 -0.01953918 7.07943726 -0.02069092 C8.36947662 -0.02565582 9.65951599 -0.03062073 10.98864746 -0.03573608 C14.52203463 -0.04882397 18.05540283 -0.05529838 21.58881044 -0.05974674 C23.80055652 -0.06268431 26.01229749 -0.06679047 28.22404099 -0.07125092 C35.15613709 -0.08491854 42.08822143 -0.09458786 49.02033007 -0.09845281 C56.99951612 -0.10292693 64.97853031 -0.12044777 72.95766413 -0.1494534 C79.1396302 -0.17113897 85.32154817 -0.1811608 91.50355184 -0.18249393 C95.18881245 -0.18353737 98.87391135 -0.18934587 102.55913162 -0.20731354 C106.67798364 -0.22700506 110.79648067 -0.22247801 114.91537476 -0.21600342 C116.12097046 -0.2252182 117.32656616 -0.23443298 118.56869507 -0.243927 C129.47974604 -0.19040777 140.12290939 1.44039555 148.3855896 9.14044189 C153.44457749 15.81700317 156.66822032 22.72526192 156.5809021 31.19512939 C156.57445679 32.30372314 156.56801147 33.41231689 156.56137085 34.55450439 C156.54461304 35.69661377 156.52785522 36.83872314 156.5105896 38.01544189 C156.50156616 39.18075439 156.49254272 40.34606689 156.48324585 41.54669189 C156.45976392 44.41148767 156.42692101 47.27585724 156.3855896 50.14044189 C157.53436081 50.13155945 158.68313202 50.122677 159.86671448 50.11352539 C170.73784019 50.03213888 181.6089034 49.97233281 192.48026562 49.93319321 C198.06822174 49.91239409 203.65593024 49.88421768 209.2437439 49.83868408 C214.64487933 49.79495137 220.04577785 49.77124718 225.4470768 49.76093292 C227.49898312 49.75359052 229.55087774 49.73925364 231.60268211 49.71752167 C247.98693023 49.55102124 261.86201891 50.5336251 274.53793335 62.10528564 C282.33775073 70.13749982 286.51320114 80.36454819 286.50863743 91.55021381 C286.51062848 92.6295715 286.51261953 93.70892918 286.51467091 94.82099468 C286.51175807 96.00095159 286.50884523 97.18090851 286.50584412 98.3966217 C286.50712575 100.28350575 286.50712575 100.28350575 286.50843328 102.20850867 C286.51066904 105.6975066 286.5066695 109.18647383 286.50165522 112.67546785 C286.49733775 116.43887797 286.49879807 120.20228635 286.4995575 123.96569824 C286.50008191 130.4852165 286.49694374 137.00472475 286.49131966 143.52424049 C286.48319346 152.95037167 286.48058829 162.376498 286.47933166 171.80263229 C286.47714291 187.09582092 286.47048759 202.38900421 286.46102905 217.68218994 C286.45185038 232.53830946 286.44477177 247.39442753 286.44052124 262.25054932 C286.44012715 263.62409035 286.44012715 263.62409035 286.43972511 265.02537969 C286.43842007 269.61913639 286.43715636 274.21289309 286.43591321 278.8066498 C286.42554608 316.91791757 286.40793255 355.02917938 286.3855896 393.14044189 C286.9319104 392.85907883 287.4782312 392.57771576 288.04110718 392.28782654 C288.75935669 391.92232193 289.4776062 391.55681732 290.21762085 391.18023682 C290.92894165 390.81637375 291.64026245 390.45251068 292.37313843 390.07762146 C296.45579744 388.17636559 300.0427864 388.245357 304.3855896 389.14044189 C306.30664062 390.42750549 306.30664062 390.42750549 308.13412476 392.12994385 C308.8229071 392.76630768 309.51168945 393.40267151 310.22134399 394.05831909 C310.93554504 394.74541962 311.64974609 395.43252014 312.3855896 396.14044189 C313.09737366 396.8237558 313.80915771 397.5070697 314.54251099 398.21109009 C316.8487745 400.45573296 319.13175358 402.72187102 321.4090271 404.99591064 C322.23641388 405.81996902 323.06380066 406.6440274 323.91625977 407.49305725 C325.65034354 409.22211051 327.38310397 410.95249192 329.11459351 412.68414307 C331.76852655 415.33587226 334.43037855 417.97948004 337.09262085 420.62286377 C338.78191163 422.30922332 340.47073059 423.99605568 342.1590271 425.68341064 C342.95481171 426.47200974 343.75059631 427.26060883 344.57049561 428.07310486 C345.30531158 428.81099747 346.04012756 429.54889008 346.79721069 430.30914307 C347.44370575 430.9542131 348.09020081 431.59928314 348.75628662 432.26390076 C352.13672164 436.15729902 353.01416564 439.70334969 352.88949585 444.77325439 C351.47468939 451.41955452 344.51570121 456.05105412 339.55941772 460.23468018 C337.32246514 462.19578214 335.22511762 464.24611122 333.13168335 466.35919189 C332.42584106 467.07010986 331.71999878 467.78102783 330.99276733 468.51348877 C330.46239868 469.0503833 329.93203003 469.58727783 329.3855896 470.14044189 C329.67804565 470.80575928 329.97050171 471.47107666 330.27182007 472.15655518 C331.60413821 475.19166151 332.93239714 478.228528 334.2605896 481.26544189 C334.72078491 482.31216064 335.18098022 483.35887939 335.65512085 484.43731689 C336.09984741 485.45567627 336.54457397 486.47403564 337.0027771 487.52325439 C337.41124878 488.45540771 337.81972046 489.38756104 338.24057007 490.34796143 C339.4273783 493.24235643 340.42892706 496.16287777 341.3855896 499.14044189 C342.38936646 499.14455078 343.39314331 499.14865967 344.42733765 499.15289307 C348.16450804 499.17472501 351.90063161 499.22905484 355.63729858 499.29302979 C357.25210509 499.31617475 358.86706181 499.33059732 360.48202515 499.33599854 C362.80890108 499.34531464 365.13342636 499.38635557 367.45980835 499.43341064 C368.53666145 499.42751167 368.53666145 499.42751167 369.63526917 499.42149353 C373.3121561 499.52765623 375.16036327 499.96170646 378.06620789 502.26773071 C380.84562862 505.71023134 381.0582527 507.38737916 381.18441772 511.76324463 C381.22200195 512.73011703 381.22200195 512.73011703 381.26034546 513.71652222 C381.33637413 515.83569527 381.37744358 517.95388982 381.4168396 520.07403564 C381.46006072 521.55472163 381.50496817 523.03535926 381.55148315 524.51594543 C381.64359975 527.61496266 381.71907727 530.71379473 381.78207397 533.8135376 C381.86341038 537.77665412 381.98017751 541.73773424 382.10874176 545.69956875 C382.20498389 548.75599215 382.28528556 551.81267086 382.36054993 554.86967659 C382.3978441 556.33015309 382.43934586 557.79052867 382.48521423 559.25076103 C382.54648797 561.29658798 382.58697044 563.34181994 382.62191772 565.38824463 C382.66258362 567.13100929 382.66258362 567.13100929 382.70407104 568.90898132 C382.22949616 573.72423841 380.4696893 576.97068823 377.2071228 580.49102783 C373.52715655 582.64226535 370.37861663 582.64653495 366.24105835 582.53106689 C365.0863781 582.52257721 365.0863781 582.52257721 363.90837097 582.51391602 C361.46263017 582.49162061 359.0183835 582.44144065 356.5730896 582.39044189 C354.90969938 582.37036789 353.24628607 582.35211869 351.58285522 582.33575439 C347.51652902 582.29177873 343.45131216 582.22280168 339.3855896 582.14044189 C338.9829187 583.76526489 338.9829187 583.76526489 338.57211304 585.4229126 C338.21311538 586.866529 337.85406299 588.31013179 337.4949646 589.75372314 C337.31884644 590.46500366 337.14272827 591.17628418 336.96127319 591.90911865 C335.71599208 596.90889363 334.36407872 601.86735364 332.9012146 606.80841064 C332.33692718 609.36052873 332.15602068 611.53571761 332.3855896 614.14044189 C334.32568482 615.84576513 334.32568482 615.84576513 336.3855896 617.14044189 C336.3855896 617.80044189 336.3855896 618.46044189 336.3855896 619.14044189 C336.95148804 619.38278564 337.51738647 619.62512939 338.10043335 619.87481689 C344.09679362 623.19587797 350.33235189 629.57008124 352.3855896 636.14044189 C353.01497998 639.34134156 353.06634898 641.94395009 352.3855896 645.14044189 C351.11479187 647.01594543 351.11479187 647.01594543 349.4180603 648.84967041 C348.78107208 649.54190704 348.14408386 650.23414368 347.48779297 650.94735718 C343.78101407 654.81438559 340.03356971 658.63474408 336.24105835 662.41778564 C335.39006058 663.26974014 334.53906281 664.12169464 333.66227722 664.99946594 C331.87767254 666.7847469 330.09182136 668.56878261 328.30477905 670.35162354 C325.56036798 673.0906385 322.82138528 675.83500141 320.08285522 678.57989502 C318.34424383 680.31784631 316.60532265 682.05548775 314.86605835 683.79278564 C314.04526291 684.61560532 313.22446747 685.43842499 312.37879944 686.28617859 C311.62073502 687.04109085 310.86267059 687.79600311 310.08163452 688.5737915 C309.08072029 689.57351234 309.08072029 689.57351234 308.05958557 690.59342957 C304.63831942 693.7551701 301.38183187 693.4829203 296.90512085 693.40606689 C291.18865832 692.80340108 287.97428486 688.76933292 284.1355896 684.89044189 C282.55490176 683.30446748 280.97148703 681.72120697 279.3855896 680.14044189 C278.58894897 679.32575439 277.79230835 678.51106689 276.9715271 677.67169189 C272.55659427 673.45071617 272.55659427 673.45071617 266.83480835 672.10137939 C263.85232623 672.85252304 261.20681259 673.91150006 258.3855896 675.14044189 C257.0438745 675.66778433 255.69998187 676.18960901 254.3543396 676.70684814 C250.67529566 678.13263382 247.02724968 679.6218549 243.3855896 681.14044189 C243.37100708 681.94151367 243.35642456 682.74258545 243.34140015 683.56793213 C243.26639544 687.23839236 243.16990752 690.90799484 243.0730896 694.57794189 C243.05053101 695.83800049 243.02797241 697.09805908 243.00473022 698.39630127 C242.53030004 714.91509786 242.53030004 714.91509786 236.9480896 720.64044189 C233.19589034 722.83685122 230.07147278 723.26554439 225.76327515 723.26983643 C224.39485725 723.27456467 224.39485725 723.27456467 222.99879456 723.27938843 C222.01655411 723.2773642 221.03431366 723.27533997 220.02230835 723.27325439 C218.48604546 723.27468948 218.48604546 723.27468948 216.91874695 723.27615356 C214.74582864 723.27683426 212.5729083 723.27498766 210.3999939 723.27081299 C207.12365958 723.26552354 203.84746618 723.27073016 200.57113647 723.27716064 C191.59835617 723.28177948 182.61799819 723.28604527 173.65512085 722.82012939 C172.54370728 722.76324951 171.4322937 722.70636963 170.28720093 722.64776611 C167.01116729 722.07497706 165.04515877 721.12003753 162.3855896 719.14044189 C159.32937023 713.73906985 158.77534484 708.63198954 158.3230896 702.51544189 C158.17088278 700.74697467 158.0159277 698.97874186 157.85824585 697.21075439 C157.78235229 696.35127197 157.70645874 695.49178955 157.62826538 694.60626221 C157.11749018 689.41629284 156.26704921 684.27916388 155.3855896 679.14044189 C152.22224661 678.15031554 149.05440604 677.17539469 145.8855896 676.20294189 C144.9987146 675.92514893 144.1118396 675.64735596 143.1980896 675.36114502 C137.92630962 673.75247687 132.91643278 672.27871297 127.3855896 672.14044189 C125.03352033 673.44842873 125.03352033 673.44842873 123.3855896 675.64044189 C122.39945679 676.74839111 122.39945679 676.74839111 121.3934021 677.87872314 C120.73082397 678.62509033 120.06824585 679.37145752 119.3855896 680.14044189 C116.78400575 682.55058844 114.08862467 684.845096 111.3855896 687.14044189 C110.80293335 687.63930908 110.2202771 688.13817627 109.6199646 688.65216064 C105.98618374 691.73029055 103.8954408 693.29913718 99.1355896 693.45294189 C98.38793335 693.49032471 97.6402771 693.52770752 96.8699646 693.56622314 C90.64271747 692.49897482 86.19449998 687.23347718 81.9480896 682.89044189 C81.41377319 682.35548096 80.87945679 681.82052002 80.32894897 681.26934814 C77.45534285 678.36469465 74.71189069 675.38847751 72.0496521 672.28887939 C67.27657475 666.7764417 62.01591036 661.757724 56.79379272 656.67559814 C47.03718664 647.05825512 47.03718664 647.05825512 45.8543396 641.76153564 C45.9061887 638.1385795 46.05895112 635.73691216 47.8230896 632.51544189 C50.00920526 630.48928592 52.21046797 628.69958223 54.5730896 626.89044189 C57.99078578 624.26888126 61.31808875 621.59661272 64.5105896 618.70294189 C65.27629272 618.02360596 66.04199585 617.34427002 66.8309021 616.64434814 C69.058757 613.05627027 68.27645285 610.08346922 67.3855896 606.14044189 C66.19901327 602.56713242 64.78292152 599.10974883 63.3230896 595.64044189 C62.94603882 594.72262939 62.56898804 593.80481689 62.18051147 592.85919189 C61.25747996 590.6158748 60.32574436 588.37662379 59.3855896 586.14044189 C58.42867124 586.13897533 57.47175287 586.13750877 56.48583698 586.13599777 C33.16469721 586.09934652 9.84370043 586.03982328 -13.47732067 585.95653915 C-24.75536006 585.9167884 -36.03333007 585.88437576 -47.31143188 585.8694458 C-57.14538907 585.85640875 -66.97919334 585.82939168 -76.8130644 585.78582883 C-82.01644998 585.76326026 -87.2196473 585.74752845 -92.42308617 585.74855804 C-97.32907818 585.74930738 -102.23465473 585.7312473 -107.14053917 585.69927406 C-108.93306074 585.69081346 -110.72562911 585.68899879 -112.51816177 585.69463921 C-126.24147093 585.73204163 -138.99562014 584.84503167 -149.6144104 575.14044189 C-150.53673462 574.37087158 -150.53673462 574.37087158 -151.47769165 573.58575439 C-157.74521765 567.9758489 -162.19662323 559.52297842 -162.75272644 551.0273872 C-162.76216173 549.88045805 -162.76216173 549.88045805 -162.77178764 548.71035862 C-162.78619996 547.37961698 -162.78619996 547.37961698 -162.80090344 546.02199167 C-162.809242 544.56499671 -162.809242 544.56499671 -162.81774902 543.0785675 C-162.82744748 542.04209943 -162.83714594 541.00563136 -162.84713829 539.93775517 C-162.87840852 536.44682778 -162.90251104 532.95588982 -162.92642212 529.46490479 C-162.94681496 526.96110984 -162.96752011 524.45731743 -162.98851395 521.95352745 C-163.04425322 515.09711813 -163.09283453 508.24067694 -163.13937616 501.38419986 C-163.16897819 497.03312597 -163.20067091 492.68206859 -163.23254013 488.33101082 C-163.7067363 423.16096443 -163.76956197 357.99139558 -163.74387226 292.81990333 C-163.73933839 281.0923549 -163.74024039 269.36481636 -163.74478149 257.63726807 C-163.75020284 243.63207769 -163.75220747 229.62689305 -163.74916923 215.62170178 C-163.74885099 214.11651011 -163.74853661 212.61131845 -163.74822617 211.10612679 C-163.74807189 210.36748846 -163.74791761 209.62885013 -163.74775866 208.86782883 C-163.746921 203.84162209 -163.74832245 198.81541932 -163.75070572 193.78921318 C-163.75775373 176.85777867 -163.72290767 159.9269493 -163.63279438 142.99571371 C-163.61708207 139.70071209 -163.60561393 136.40575185 -163.59632518 133.11072962 C-163.57544671 125.81038162 -163.52700615 118.51079501 -163.45185828 111.21075642 C-163.43001079 108.73654675 -163.41632371 106.26224904 -163.41154313 103.78794754 C-163.3702793 87.01226507 -162.81376716 73.8713059 -150.6144104 61.14044189 C-143.84337605 55.06282673 -135.68086037 50.00837787 -126.37496948 50.02018738 C-125.53646957 50.01881271 -124.69796967 50.01743805 -123.83406067 50.01602173 C-122.92271866 50.019617 -122.01137665 50.02321228 -121.07241821 50.0269165 C-119.62313683 50.02669746 -119.62313683 50.02669746 -118.14457703 50.026474 C-114.95220695 50.02717045 -111.75989528 50.0349504 -108.5675354 50.04278564 C-106.35364819 50.04465077 -104.13976057 50.04607423 -101.9258728 50.04707336 C-96.09960795 50.05089107 -90.27336804 50.06071502 -84.44711304 50.07177734 C-78.50158017 50.08200748 -72.55604328 50.08657442 -66.61050415 50.09161377 C-54.94512861 50.10233793 -43.27977158 50.11940543 -31.6144104 50.14044189 C-31.6458313 49.38537354 -31.6772522 48.63030518 -31.70962524 47.85235596 C-31.83587276 44.36536752 -31.912862 40.87886164 -31.9894104 37.39044189 C-32.03968384 36.20321533 -32.08995728 35.01598877 -32.14175415 33.79278564 C-32.30026654 24.12352996 -30.16666322 16.19172828 -23.57217407 8.87432861 C-16.8075673 2.46263511 -9.24116405 0.02836099 0 0 Z M-138.0519104 76.45294189 C-142.67341114 82.15049355 -144.06199149 88.00752889 -143.99193382 95.19465542 C-143.99629414 95.9803642 -144.00065447 96.76607298 -144.00514692 97.57559112 C-144.01608886 100.20646964 -144.00568618 102.83682251 -143.99536133 105.46769714 C-143.99881831 107.37369748 -144.00358315 109.27969583 -144.00954306 111.18568999 C-144.02207718 116.4220111 -144.01587164 121.65816838 -144.00658441 126.89449012 C-143.99980412 132.54216431 -144.01027012 138.18981008 -144.01852417 143.83747864 C-144.03187483 154.90106579 -144.02897774 165.96459193 -144.02028625 177.02818149 C-144.01351502 186.01917995 -144.01259055 195.0101613 -144.0158577 204.00116158 C-144.0163174 205.28012026 -144.01677709 206.55907894 -144.01725072 207.87679394 C-144.01820989 210.47487136 -144.01918253 213.07294877 -144.0201685 215.67102618 C-144.02848236 239.34748916 -144.01985572 263.02391285 -144.00414071 286.70036949 C-143.98990559 308.31151497 -143.99117632 329.92260742 -144.00552368 351.53375244 C-144.02159019 375.81557904 -144.02790069 400.09736809 -144.01868689 424.37920099 C-144.01773123 426.96810281 -144.01678812 429.55700463 -144.0158577 432.14590645 C-144.01539487 433.41973478 -144.01493204 434.69356311 -144.01445519 436.0059923 C-144.0118639 444.98668275 -144.01623933 453.96735439 -144.02329636 462.94804192 C-144.03170686 473.8918742 -144.02944071 484.83564192 -144.01345412 495.7794668 C-144.00556516 501.36420252 -144.00249054 506.94883057 -144.01240158 512.53356552 C-144.02133599 517.64526518 -144.01643616 522.75675727 -144.00046892 527.86843807 C-143.99711581 529.71828955 -143.99882709 531.56815854 -144.00609629 533.41799878 C-144.01521947 535.93237755 -144.0058615 538.44604549 -143.99193382 540.96038723 C-144.00246907 542.03767306 -144.00246907 542.03767306 -144.01321715 543.13672224 C-143.94660131 549.15408723 -142.65068195 554.64828865 -138.78237915 559.38262939 C-137.80204712 560.19087158 -137.80204712 560.19087158 -136.8019104 561.01544189 C-136.15609009 561.56973877 -135.51026978 562.12403564 -134.84487915 562.69512939 C-130.25582916 565.66876949 -125.77947263 566.39029469 -120.38812256 566.38095093 C-119.15982224 566.38370026 -117.93152191 566.38644958 -116.66600037 566.38928223 C-115.31823631 566.38220543 -113.97047326 566.37493583 -112.62271118 566.36749268 C-111.19327299 566.36692809 -109.76383422 566.36724604 -108.33439636 566.36837769 C-104.46498921 566.36895037 -100.59570663 566.3572098 -96.72632837 566.34322977 C-92.67843924 566.33070828 -88.63054711 566.32955079 -84.5826416 566.32717896 C-76.92234022 566.32096835 -69.26209608 566.30456322 -61.60181987 566.28447998 C-52.87875923 566.26210791 -44.15569582 566.25112426 -35.43261361 566.24108911 C-17.49318012 566.22019662 0.44620014 566.18502881 18.3855896 566.14044189 C18.37892776 565.42491653 18.37226593 564.70939117 18.36540222 563.97218323 C18.30521575 557.21907304 18.25957703 550.46603803 18.23015308 543.71271992 C18.21451717 540.2410008 18.19331747 536.76950386 18.15927124 533.2979126 C18.12034897 529.30399478 18.10586331 525.31030927 18.09262085 521.31622314 C18.07713699 520.07335037 18.06165314 518.8304776 18.04570007 517.54994202 C18.04536018 515.80870308 18.04536018 515.80870308 18.04501343 514.0322876 C18.03502068 512.50339653 18.03502068 512.50339653 18.02482605 510.94361877 C18.44877154 507.64951047 19.42788758 505.80314414 21.3855896 503.14044189 C25.84193783 500.23084945 29.49017481 499.7374546 34.7527771 499.62872314 C35.77215866 499.60179634 35.77215866 499.60179634 36.81213379 499.57432556 C38.96155779 499.52057372 41.11076437 499.48644253 43.2605896 499.45294189 C44.72676547 499.41973751 46.19291277 499.38524499 47.6590271 499.34942627 C51.23433908 499.26486992 54.80972752 499.19789184 58.3855896 499.14044189 C65.72640507 485.44552454 65.72640507 485.44552454 68.16293335 470.35528564 C66.34179416 465.16641166 61.35539145 461.72830946 57.3855896 458.14044189 C46.85985295 447.0320999 46.85985295 447.0320999 46.98153687 439.20880127 C47.72776619 435.38882855 50.41061086 433.50156409 53.3230896 431.14044189 C53.91557495 430.62771729 54.5080603 430.11499268 55.11849976 429.58673096 C56.8584529 428.08483696 58.61974686 426.61171957 60.3855896 425.14044189 C65.45674427 420.75702951 70.17314151 416.41070738 74.4949646 411.28106689 C76.7431276 408.73562615 79.1436476 406.38805484 81.5730896 404.01544189 C84.26260906 401.37460152 86.70998464 398.94988248 88.6355896 395.70294189 C91.23956039 391.88998466 93.82093602 390.63883611 98.3152771 389.76544189 C103.58771759 389.61093814 106.51377646 391.80194829 110.24935913 395.20782471 C112.4935275 397.3481382 114.71621316 399.5081493 116.91976929 401.69024658 C121.926009 407.03018614 121.926009 407.03018614 128.5718689 409.22540283 C134.8611212 408.46665447 140.8887171 407.19683707 147.0105896 405.57794189 C147.91937866 405.34397705 148.82816772 405.11001221 149.76449585 404.86895752 C151.97331377 404.299315 154.18017512 403.72309506 156.3855896 403.14044189 C158.10588474 394.65520237 158.72252807 386.44212273 158.86776733 377.79205322 C159.04048192 371.91368738 159.79007468 366.4872606 162.3855896 361.14044189 C166.80512932 357.5141529 171.28213865 357.01725755 176.85336304 356.99517822 C178.49592072 356.98560844 178.49592072 356.98560844 180.17166138 356.97584534 C181.35085144 356.97473251 182.5300415 356.97361969 183.7449646 356.97247314 C184.96330994 356.96914474 186.18165527 356.96581635 187.43692017 356.96238708 C190.01583478 356.95732364 192.59475595 356.95497858 195.17367554 356.95513916 C199.10640366 356.95295808 203.03884881 356.93481072 206.9715271 356.91583252 C209.47933864 356.91289736 211.98715152 356.91091338 214.4949646 356.90997314 C215.66605774 356.90278763 216.83715088 356.89560211 218.04373169 356.88819885 C225.37536207 356.90856338 232.01652315 356.95522178 238.34262085 361.05841064 C241.41978698 365.70063642 241.0836637 369.998397 241.0730896 375.45294189 C241.11206192 377.6053881 241.15635275 379.75774444 241.2059021 381.90997314 C241.22813843 382.96523193 241.25037476 384.02049072 241.27328491 385.10772705 C241.51020086 391.50548761 242.42756339 397.81560867 243.3855896 404.14044189 C246.30114074 404.81233845 249.21785911 405.47813497 252.1355896 406.14044189 C252.9605896 406.33122314 253.7855896 406.52200439 254.6355896 406.71856689 C255.43480835 406.89903564 256.2340271 407.07950439 257.0574646 407.26544189 C257.7906189 407.43302002 258.52377319 407.60059814 259.27914429 407.77325439 C261.68598449 408.25492633 261.68598449 408.25492633 265.3855896 408.14044189 C266.97470022 368.93290051 267.71263882 329.79125619 267.72010374 290.54916143 C267.72111598 286.30658551 267.72575346 282.06401787 267.73109818 277.82144547 C267.74849667 263.71717858 267.75796348 249.61294112 267.75643723 235.5086634 C267.75635731 234.76179386 267.7562774 234.01492432 267.75619507 233.24542236 C267.75607243 232.12369883 267.75607243 232.12369883 267.75594731 230.97931422 C267.75512532 218.72209285 267.77454476 206.46499157 267.8024718 194.20780514 C267.83119889 181.49663579 267.84501435 168.78552544 267.84328425 156.07432282 C267.84262357 148.98616033 267.84798275 141.89812646 267.86964035 134.80999374 C267.88974422 128.19202345 267.88918319 121.5742799 267.87460709 114.95627975 C267.87251587 112.53471985 267.87723841 110.11314287 267.889328 107.69161224 C267.90477182 104.38483512 267.89547953 101.07900416 267.88006592 97.77224731 C267.89549661 96.34279559 267.89549661 96.34279559 267.91123903 94.88446605 C267.83598464 87.56828323 266.18157926 81.40332426 261.35043335 75.76544189 C260.68140991 75.22919189 260.01238647 74.69294189 259.3230896 74.14044189 C258.65148804 73.58356689 257.97988647 73.02669189 257.28793335 72.45294189 C254.34450232 70.4221558 251.85859483 70.01564058 248.3802948 70.02018738 C247.56841202 70.01881271 246.75652924 70.01743805 245.92004395 70.01602173 C244.58971634 70.02141464 244.58971634 70.02141464 243.23251343 70.0269165 C242.29573257 70.02677048 241.35895172 70.02662445 240.39378357 70.026474 C237.29337255 70.02717139 234.19302139 70.03495572 231.09262085 70.04278564 C228.94456515 70.04465044 226.79650903 70.04607405 224.64845276 70.04707336 C218.99150419 70.05089369 213.33458125 70.06071988 207.67764282 70.07177734 C201.90646715 70.08200185 196.13528734 70.08657322 190.36410522 70.09161377 C179.03792208 70.10234255 167.71175797 70.1194132 156.3855896 70.14044189 C156.37100708 71.04810303 156.35642456 71.95576416 156.34140015 72.89093018 C156.28010811 76.279535 156.20591384 79.66735878 156.12313843 83.05548096 C156.09001825 84.51793897 156.06194655 85.98052084 156.03915405 87.44317627 C156.00536785 89.55373593 155.9530458 91.66317375 155.89730835 93.77325439 C155.87112427 95.04056396 155.84494019 96.30787354 155.81796265 97.61358643 C155.34634813 101.46053348 154.48160151 103.88964269 152.3855896 107.14044189 C148.86370717 109.56775207 145.55794353 109.39434589 141.37046814 109.40113831 C140.3109515 109.40687663 140.3109515 109.40687663 139.23003048 109.41273087 C136.8632694 109.4230494 134.49675144 109.41907096 132.12997437 109.4151001 C130.43308284 109.4194472 128.73619328 109.42463035 127.03930664 109.43058777 C122.42982857 109.44398899 117.82043245 109.4445552 113.21093869 109.44202447 C109.36391442 109.44095555 105.51690677 109.4458361 101.66988605 109.45062989 C92.59488333 109.4617289 83.519922 109.46216023 74.44491577 109.45611572 C65.08021139 109.45007422 55.71565719 109.46239053 46.35097843 109.48368579 C38.31265986 109.50129337 30.27438913 109.50730449 22.23605198 109.50404805 C17.43428429 109.50223374 12.63262374 109.50488607 7.83087349 109.51876259 C3.31563771 109.53132264 -1.19936369 109.52941416 -5.71459579 109.5163517 C-7.37182125 109.51398241 -9.02906311 109.51673322 -10.68626976 109.52497482 C-12.94855463 109.53541443 -15.21004899 109.52736474 -17.4723053 109.5146637 C-18.73826255 109.51483144 -20.0042198 109.51499918 -21.30853939 109.515172 C-24.8793539 109.11040978 -26.76814943 108.29467069 -29.6144104 106.14044189 C-31.13816833 103.09292604 -30.83343304 99.89011439 -30.8956604 96.54278564 C-30.91406982 95.79332169 -30.93247925 95.04385773 -30.95144653 94.27168274 C-31.03025143 91.0587309 -31.09801109 87.84556769 -31.16665649 84.63238525 C-31.21826435 82.28990933 -31.27555103 79.94762037 -31.3331604 77.60528564 C-31.34673584 76.87301254 -31.36031128 76.14073944 -31.3742981 75.38627625 C-31.16153427 71.97358379 -31.16153427 71.97358379 -32.6144104 69.14044189 C-35.42218503 69.02389787 -38.20568274 68.97242107 -41.01455688 68.96343994 C-41.89596848 68.95686874 -42.77738007 68.95029755 -43.6855011 68.94352722 C-46.61883624 68.92373019 -49.55211985 68.91211285 -52.48550415 68.90216064 C-53.48710131 68.89808512 -54.48869846 68.89400959 -55.52064705 68.88981056 C-60.82948731 68.86891512 -66.13830152 68.85463271 -71.44717407 68.84527588 C-76.91796037 68.83424913 -82.38833567 68.79990248 -87.85897732 68.76010418 C-92.07393619 68.73387322 -96.28879855 68.72557792 -100.50383186 68.7219944 C-102.51913263 68.71713931 -104.53442941 68.70555625 -106.54965019 68.68695641 C-123.74864565 68.07746922 -123.74864565 68.07746922 -138.0519104 76.45294189 Z " fill="#0C0E10" transform="translate(429.6144104003906,135.85955810546875)"/>
<path d="M0 0 C15.18 0 30.36 0 46 0 C47.47963071 9.6175996 48.34126084 18.48758092 48.390625 28.10742188 C48.44283034 33.64277222 48.44283034 33.64277222 50.66796875 38.5625 C53.39407411 40.24291335 55.8423111 41.1072701 58.9375 41.9375 C68.60692476 44.71258155 77.84334683 48.06199244 86.5859375 53.08203125 C90.08885183 54.4140456 92.25186599 54.51565704 96 54 C99.39842142 52.25088918 102.42067762 50.06726449 105.5 47.8125 C106.31597656 47.23435547 107.13195312 46.65621094 107.97265625 46.06054688 C110.32637361 44.38876528 112.66411182 42.69656574 115 41 C116.36361301 40.02338333 117.72809088 39.04797217 119.09375 38.07421875 C120.0528125 37.38972656 121.011875 36.70523438 122 36 C129.87499258 41.42370813 136.31724835 48.09142688 143 54.875 C144.16749879 56.05254946 145.33546393 57.22963676 146.50390625 58.40625 C149.34134272 61.26553267 152.17239294 64.1309978 155 67 C151.68167141 71.52550396 148.33214043 75.89016824 144.5 80 C142.99929749 81.66603414 141.49926291 83.33267025 140 85 C139.35804688 85.69222656 138.71609375 86.38445312 138.0546875 87.09765625 C135.36086609 90.24880083 133.52863668 92.7519838 133.625 97 C134.63268596 102.32241405 137.34302095 107.00793048 139.83886719 111.76123047 C143.26136525 118.30748572 145.7053407 124.97371766 148 132 C148.56074219 133.68222656 148.56074219 133.68222656 149.1328125 135.3984375 C149.41898438 136.25695312 149.70515625 137.11546875 150 138 C158.55591839 139.51962162 167.11454587 140.66736314 175.75 141.625 C179.7925 142.07875 183.835 142.5325 188 143 C188 158.51 188 174.02 188 190 C184.79779634 191.06740122 182.19509331 191.24978433 178.828125 191.4296875 C177.60609375 191.50316406 176.3840625 191.57664062 175.125 191.65234375 C172.55767842 191.79986122 169.98995609 191.94057371 167.421875 192.07421875 C158.21726728 192.42215794 158.21726728 192.42215794 150 196 C148.37198343 198.54543307 147.47840137 201.19519886 146.5625 204.0625 C145.9943924 205.68788678 145.42131517 207.31154353 144.84375 208.93359375 C144.54984375 209.76874512 144.2559375 210.60389648 143.953125 211.46435547 C142.10694749 216.37583077 139.80297551 221.1025964 137.48852539 225.80883789 C135.1515197 230.8056145 134.52792176 234.47668463 135 240 C137.60134427 245.20268853 141.82882467 249.18826328 145.73828125 253.453125 C148.71993947 256.81070904 151.39651724 260.3449144 154 264 C152.58261511 267.25207092 150.87473588 269.31361067 148.3125 271.75 C145.68215367 274.30989062 143.1822473 276.88527382 140.8125 279.6875 C135.57282123 285.79637782 129.72541503 291.35207179 124 297 C118.33196096 293.89841409 112.86832876 290.69238046 107.6640625 286.86328125 C106.922771 286.31961914 106.18147949 285.77595703 105.41772461 285.21582031 C103.95204731 284.12927771 102.49667101 283.02867401 101.05297852 281.91308594 C97.87256307 279.55877676 95.60901585 278.11764264 91.68359375 277.359375 C86.34303212 278.28816833 81.77336634 280.41815965 76.875 282.6875 C74.82781099 283.61026813 72.779638 284.5308565 70.73046875 285.44921875 C69.25586182 286.1131665 69.25586182 286.1131665 67.75146484 286.79052734 C63.31234815 288.74184803 58.79363059 290.42289627 54.23046875 292.0625 C51.85056118 292.89752081 51.85056118 292.89752081 50 295 C48.89629165 298.98341209 48.80619902 302.93474703 48.68359375 307.05078125 C48.6524221 308.03899117 48.6524221 308.03899117 48.62062073 309.04716492 C48.55564511 311.13551185 48.49648425 313.22397612 48.4375 315.3125 C48.39426521 316.7350378 48.3506494 318.15756406 48.30664062 319.58007812 C48.20001784 323.05326297 48.09860652 326.52657726 48 330 C41.3247966 330.02526945 34.64960543 330.04283268 27.97436523 330.05493164 C25.70157409 330.05997325 23.4287862 330.06680637 21.15600586 330.07543945 C17.89696449 330.08751261 14.63796583 330.09322987 11.37890625 330.09765625 C10.35599991 330.10281754 9.33309357 330.10797882 8.27919006 330.11329651 C7.33829025 330.11337204 6.39739044 330.11344757 5.42797852 330.11352539 C4.59524918 330.115746 3.76251984 330.11796661 2.90455627 330.12025452 C1 330 1 330 0 329 C-0.26407604 326.86736877 -0.46863107 324.72732064 -0.6484375 322.5859375 C-0.76781038 321.25386865 -0.88761643 319.92183857 -1.0078125 318.58984375 C-1.19249372 316.49043844 -1.37368785 314.39091359 -1.546875 312.29052734 C-1.71604235 310.26292212 -1.90002966 308.23706755 -2.0859375 306.2109375 C-2.1895459 304.99712402 -2.2931543 303.78331055 -2.39990234 302.53271484 C-3.08538522 298.49734575 -4.1393384 295.63980155 -6 292 C-9.93211931 289.45992857 -14.26698721 288.12706706 -18.6875 286.625 C-24.18596973 284.70489946 -29.44702335 282.53607997 -34.6953125 280.015625 C-39.95335895 277.69851979 -45.31842374 277.13258378 -51 278 C-54.05065905 279.52846162 -56.41935474 281.78801835 -59 284 C-61.53329222 285.97734348 -64.10787993 287.89620192 -66.6875 289.8125 C-67.65079224 290.55077026 -67.65079224 290.55077026 -68.63354492 291.30395508 C-75.26047392 296.25455445 -75.26047392 296.25455445 -79 296 C-81.24122074 294.2442753 -82.97551211 292.63715681 -84.875 290.5625 C-85.40528809 290.00771973 -85.93557617 289.45293945 -86.48193359 288.88134766 C-89.82786069 285.35527888 -93.05071367 281.72664199 -96.19921875 278.0234375 C-99.93368235 273.82722894 -103.99328899 269.93415488 -108 266 C-106.34699874 261.83725903 -103.30200806 258.97879641 -100.25 255.8125 C-90.82501797 246.5172264 -90.82501797 246.5172264 -87.63037109 234.25952148 C-88.36375045 229.7764132 -90.60318387 225.92689943 -92.6875 221.9375 C-96.51106922 214.34923716 -99.55245008 207.03461319 -101.76953125 198.8359375 C-103.31170464 195.28159501 -104.5540965 194.68159615 -108 193 C-111.11283989 192.33897141 -111.11283989 192.33897141 -114.47265625 192.0859375 C-115.70177734 191.96476563 -116.93089844 191.84359375 -118.19726562 191.71875 C-120.11055664 191.54859375 -120.11055664 191.54859375 -122.0625 191.375 C-124.59527172 191.13512036 -127.12783523 190.89302914 -129.66015625 190.6484375 C-131.34057007 190.49640869 -131.34057007 190.49640869 -133.05493164 190.34130859 C-136 190 -136 190 -140 189 C-140 173.82 -140 158.64 -140 143 C-131.09514607 141.72787801 -122.36813166 140.54891465 -113.421875 139.96484375 C-109.86327983 139.65361348 -107.59494148 139.40732105 -104.609375 137.36328125 C-102.57550932 134.37665811 -101.52819728 131.4902551 -100.375 128.0625 C-97.60274808 120.08274465 -94.02895734 112.60207607 -90.16357422 105.09594727 C-89.73963379 104.24572998 -89.31569336 103.3955127 -88.87890625 102.51953125 C-88.4929126 101.76776611 -88.10691895 101.01600098 -87.70922852 100.24145508 C-86.80711864 97.39041523 -87.10833274 95.83826479 -88 93 C-91.54678203 86.40978706 -96.58280033 80.64511986 -101.375 74.9375 C-102.01566406 74.16728516 -102.65632813 73.39707031 -103.31640625 72.60351562 C-104.87373902 70.73239193 -106.43493477 68.86465609 -108 67 C-104.95130205 62.04209269 -101.40117955 58.12486052 -97.25 54.0625 C-96.62818848 53.44713379 -96.00637695 52.83176758 -95.36572266 52.19775391 C-91.5424898 48.43829141 -87.64617991 44.80014177 -83.5546875 41.33203125 C-81.59771333 39.65532725 -79.78405193 37.85838743 -78 36 C-73.59313493 37.47168036 -70.27679129 39.886817 -66.6875 42.75 C-66.11427002 43.19520996 -65.54104004 43.64041992 -64.95043945 44.09912109 C-62.47809243 46.02108944 -60.0426552 47.96374308 -57.65625 49.9921875 C-57.0065625 50.53101563 -56.356875 51.06984375 -55.6875 51.625 C-55.15511719 52.09164062 -54.62273437 52.55828125 -54.07421875 53.0390625 C-50.77315859 54.56836721 -47.53195545 54.46474198 -44 54 C-40.60960782 52.76375784 -40.60960782 52.76375784 -37.3125 50.9375 C-30.16788923 47.30278406 -22.83011933 44.82931134 -15.14575195 42.57397461 C-9.99189844 40.98163638 -6.09833693 39.68207102 -3 35 C-2.32541068 31.68150457 -2.30035679 28.44074093 -2.3125 25.0625 C-2.2289407 16.46874779 -1.23591703 8.65141918 0 0 Z " fill="#FDFDFD" transform="translate(606,511)"/>
<path d="M0 0 C9.24945521 8.05679569 15.43101184 17.19984856 19.84765625 28.60546875 C20.16863281 29.42144531 20.48960937 30.23742187 20.8203125 31.078125 C26.13727762 47.0784805 23.05399451 64.81060188 16.22265625 79.79296875 C7.24165057 96.51699688 -7.19186617 107.43429102 -25.15234375 112.91796875 C-42.93385829 117.30957264 -60.21688977 114.73826625 -76.1484375 105.58984375 C-80.9775367 102.39974961 -85.09295816 98.71514762 -89.15234375 94.60546875 C-89.78785156 93.991875 -90.42335938 93.37828125 -91.078125 92.74609375 C-103.32497273 80.03761318 -106.68725414 63.29541529 -106.64477539 46.25732422 C-106.19083437 28.90574697 -98.60535166 14.56897163 -86.15234375 2.60546875 C-61.18064753 -18.24078642 -26.09860206 -19.82458867 0 0 Z " fill="#FEFEFE" transform="translate(671.15234375,626.39453125)"/>
<path d="M0 0 C1.15667679 -0.00860046 2.31335358 -0.01720093 3.50508118 -0.02606201 C5.41811539 -0.03245193 5.41811539 -0.03245193 7.36979675 -0.03897095 C8.72156994 -0.04687141 10.07334102 -0.05514032 11.42510986 -0.06375122 C15.87043746 -0.08997711 20.3157745 -0.10527906 24.76115417 -0.11953735 C26.29087009 -0.12489674 27.82058595 -0.13027424 29.35030174 -0.13566971 C35.7129335 -0.15729896 42.07556271 -0.17603613 48.43822193 -0.1872921 C57.55987949 -0.20353453 66.68111128 -0.23671837 75.80260831 -0.29369295 C82.21456341 -0.33237922 88.62640456 -0.35192318 95.03847331 -0.35721266 C98.8690309 -0.3608679 102.69913445 -0.37290642 106.52956581 -0.4053154 C110.1338448 -0.43537371 113.73739452 -0.44171654 117.34177208 -0.42993164 C119.29344376 -0.42960544 121.24507027 -0.45408607 123.19657898 -0.47930908 C124.36171524 -0.4709906 125.5268515 -0.46267212 126.72729492 -0.45410156 C127.73774777 -0.45741171 128.74820063 -0.46072186 129.78927326 -0.46413231 C132.55412292 0.15390015 132.55412292 0.15390015 137.55412292 5.15390015 C137.55412292 27.26390015 137.55412292 49.37390015 137.55412292 72.15390015 C88.38412292 72.15390015 39.21412292 72.15390015 -11.44587708 72.15390015 C-11.44587708 6.15390015 -11.44587708 6.15390015 -7.44587708 1.15390015 C-4.83903096 -0.14952291 -2.92047405 0.01612346 0 0 Z " fill="#FEFEFE" transform="translate(428.4458770751953,155.84609985351563)"/>
<path d="M0 0 C15.95639328 13.4257502 28.3338861 30.83790105 31.56030273 51.83569336 C33.40640765 75.93512272 30.22097099 98.99773761 14.18530273 117.96850586 C13.64905273 118.58467773 13.11280273 119.20084961 12.56030273 119.83569336 C12.12717773 120.41061523 11.69405273 120.98553711 11.24780273 121.57788086 C-0.40275195 136.626514 -19.09092466 144.52604485 -37.13891602 148.41772461 C-61.83142923 151.54446889 -83.8919004 146.93069829 -104.00219727 132.27319336 C-119.22828953 120.21577435 -130.68900458 103.11611361 -134.43969727 83.83569336 C-134.62016602 82.97975586 -134.80063477 82.12381836 -134.98657227 81.24194336 C-137.96231564 58.87256214 -134.36264821 37.63458146 -121.43579102 18.93725586 C-119.82016619 16.85279628 -118.14777984 14.8438445 -116.43969727 12.83569336 C-115.77969727 11.84569336 -115.11969727 10.85569336 -114.43969727 9.83569336 C-113.77969727 9.83569336 -113.11969727 9.83569336 -112.43969727 9.83569336 C-112.43969727 9.17569336 -112.43969727 8.51569336 -112.43969727 7.83569336 C-83.373493 -20.75596063 -32.39164218 -26.05273506 0 0 Z M-102.12719727 24.46069336 C-112.09720575 35.93061463 -117.03444033 50.15389846 -116.81469727 65.21069336 C-116.8038208 66.22510498 -116.79294434 67.2395166 -116.78173828 68.28466797 C-116.41518639 85.50430757 -110.34959266 100.0216048 -98.18969727 112.21459961 C-84.76141104 125.01343492 -68.83578273 131.3819188 -50.29785156 131.25756836 C-32.55351823 130.69064483 -17.03132982 123.17798665 -4.43969727 110.83569336 C8.4774138 95.81928398 14.270104 77.8428074 12.83520508 58.16821289 C10.93213907 42.02088371 2.52588003 27.60511432 -9.43969727 16.83569336 C-22.23095451 6.96712113 -35.75171161 2.43057499 -51.75219727 2.52319336 C-52.76967041 2.52883301 -53.78714355 2.53447266 -54.83544922 2.5402832 C-74.05666262 2.85112182 -88.84144812 10.77098563 -102.12719727 24.46069336 Z " fill="#0C0E10" transform="translate(681.439697265625,610.164306640625)"/>
<path d="M0 0 C0.65418915 -0.00671722 1.3083783 -0.01343445 1.98239136 -0.02035522 C4.13954315 -0.03931309 6.29638343 -0.04325826 8.45361328 -0.04541016 C9.95810065 -0.05183978 11.46258677 -0.05856826 12.96707153 -0.06558228 C16.11935321 -0.07754958 19.27152534 -0.08126368 22.42382812 -0.08007812 C26.45453932 -0.07987499 30.48454496 -0.10717257 34.51508904 -0.14162254 C37.62243854 -0.16390846 40.72961872 -0.16791516 43.83703995 -0.16685867 C45.32254594 -0.16921227 46.80805676 -0.17802225 48.29348373 -0.19352341 C50.37583946 -0.21321881 52.45668006 -0.20733354 54.5390625 -0.1953125 C55.72168671 -0.19816254 56.90431091 -0.20101257 58.12277222 -0.20394897 C62.11778299 0.39902588 64.26452323 1.7828563 67.39892578 4.29052734 C69.75489425 7.82448004 69.65650889 9.31503197 69.67358398 13.50268555 C69.683116 14.78444168 69.69264801 16.06619781 69.70246887 17.38679504 C69.70220739 18.78829984 69.70127006 20.18980465 69.69970703 21.59130859 C69.70359494 23.02996443 69.70792981 24.46861913 69.71269226 25.90727234 C69.72015563 28.92430336 69.71986318 31.94121738 69.71459961 34.95825195 C69.70881611 38.81513274 69.72570775 42.67153155 69.74894428 46.52833271 C69.76371657 49.50099974 69.76454841 52.47355178 69.76143456 55.44624901 C69.76194639 56.86754495 69.76715823 58.28884757 69.77724648 59.7101078 C69.78965477 61.70342944 69.78085606 63.69684849 69.77124023 65.69018555 C69.77186966 66.82253128 69.77249908 67.95487701 69.77314758 69.12153625 C69.34194909 72.77301825 68.31008317 75.16313715 66.39892578 78.29052734 C60.00507825 82.50869451 52.63811346 81.74066896 45.21533203 81.72412109 C43.83202358 81.72868978 42.44871738 81.73399738 41.06541443 81.74000549 C38.17478174 81.74890888 35.28442573 81.74654553 32.39379883 81.73657227 C28.7074483 81.72508672 25.02205634 81.74530041 21.33583164 81.7744894 C18.48144057 81.79292256 15.62727622 81.79254493 12.7728405 81.78685188 C10.7588936 81.78662598 8.74496777 81.8034564 6.73109436 81.82066345 C-0.49202074 81.76593509 -5.52829399 81.34470827 -11.60107422 77.29052734 C-13.95312667 73.76244867 -13.8907738 72.17380467 -13.98339844 67.98657227 C-14.01617889 66.68479538 -14.04895935 65.38301849 -14.08273315 64.04179382 C-14.10789456 62.61820881 -14.1322167 61.19460876 -14.15576172 59.77099609 C-14.18464311 58.30991604 -14.21379124 56.84884125 -14.24319458 55.38777161 C-14.30214445 52.32377895 -14.35291441 49.25976948 -14.39892578 46.19555664 C-14.45910365 42.27770309 -14.54699038 38.36101436 -14.64207268 34.44387341 C-14.71096384 31.42509319 -14.76119057 28.40620865 -14.80627823 25.38698769 C-14.83078817 23.94324328 -14.86192572 22.49959506 -14.89992905 21.05614281 C-14.9511717 19.03205045 -14.9737049 17.00729368 -14.99511719 14.98266602 C-15.01573212 13.83255539 -15.03634705 12.68244476 -15.05758667 11.4974823 C-14.48849287 7.49965449 -13.15149854 5.3926325 -10.60107422 2.29052734 C-7.28109498 -0.1610928 -4.04159197 0.02608857 0 0 Z " fill="#0C0E0F" transform="translate(347.60107421875,400.70947265625)"/>
<path d="M0 0 C1.92390312 -0.00642769 1.92390312 -0.00642769 3.88667297 -0.01298523 C6.58537973 -0.02039846 9.28395551 -0.02019021 11.98266602 -0.01489258 C15.42910739 -0.0090764 18.8750151 -0.02610362 22.32136822 -0.04923725 C25.63093424 -0.06755056 28.94038365 -0.06378922 32.25 -0.0625 C33.48135178 -0.07170975 34.71270355 -0.08091949 35.98136902 -0.09040833 C42.83458873 -0.05334446 47.4040654 0.34652286 53.04827881 4.49263 C55.12894303 7.2237726 54.81458297 9.4973655 54.82983398 12.89599609 C54.83669724 13.56139908 54.84356049 14.22680206 54.85063171 14.91236877 C54.86893484 17.11236913 54.86505686 19.31165857 54.859375 21.51171875 C54.8639359 23.04245231 54.8692412 24.57318383 54.8752594 26.10391235 C54.88419792 29.31350008 54.88176001 32.52283911 54.87182617 35.73242188 C54.86034871 39.84064343 54.88052446 43.94800388 54.90974331 48.05611229 C54.92811499 51.21834752 54.92781077 54.38037691 54.92210579 57.54265213 C54.92195262 59.05688305 54.92799349 60.57112795 54.94039726 62.08530807 C54.95532095 64.20634191 54.94462212 66.32579216 54.92749023 68.44677734 C54.92732407 69.65240326 54.9271579 70.85802917 54.92698669 72.10018921 C54.32898248 75.91891776 53.10598548 77.56875402 50.42578125 80.30078125 C47.57804206 81.72465084 45.14380558 81.45173482 41.95996094 81.4777832 C40.96448494 81.48764 40.96448494 81.48764 39.94889832 81.49769592 C37.74848316 81.51743557 35.54813635 81.52909425 33.34765625 81.5390625 C32.21977062 81.54517579 32.21977062 81.54517579 31.06909943 81.55141258 C27.08757298 81.57227835 23.10608103 81.5865766 19.12451172 81.59594727 C15.01756057 81.60699972 10.91115303 81.64138406 6.80439377 81.68111897 C3.6421612 81.70730515 0.48005759 81.71564095 -2.68227386 81.71922874 C-4.19570325 81.7240913 -5.709127 81.73569598 -7.22245026 81.75426674 C-9.34567367 81.77869766 -11.46749846 81.7776868 -13.59082031 81.77075195 C-15.40045258 81.77955132 -15.40045258 81.77955132 -17.24664307 81.78852844 C-21.25546265 81.20092633 -23.43077283 79.80930954 -26.57421875 77.30078125 C-27.98803868 74.4731414 -27.73287257 72.07306607 -27.76708984 68.91088867 C-27.77526733 68.25538528 -27.78344482 67.5998819 -27.79187012 66.92451477 C-27.81671437 64.75176914 -27.83323786 62.57908881 -27.84765625 60.40625 C-27.85297993 59.66411066 -27.8583036 58.92197132 -27.8637886 58.15734291 C-27.89051657 54.22884784 -27.90989214 50.3003845 -27.92431641 46.37182617 C-27.94095981 42.31621418 -27.98573462 38.26141554 -28.03668785 34.20611095 C-28.07036239 31.08595356 -28.08189395 27.96598915 -28.08754349 24.84566689 C-28.09425599 23.35092264 -28.10947835 21.8561911 -28.1334343 20.36162376 C-28.16509603 18.26669656 -28.16512306 16.17396157 -28.15771484 14.07885742 C-28.1658017 12.88798019 -28.17388855 11.69710297 -28.18222046 10.47013855 C-27.38951109 6.3379475 -25.82727944 4.88906688 -22.57421875 2.30078125 C-15.82143022 -0.82082665 -7.2491814 -0.00539221 0 0 Z " fill="#0C0E10" transform="translate(361.57421875,284.69921875)"/>
<path d="M0 0 C0.65418915 -0.00671722 1.3083783 -0.01343445 1.98239136 -0.02035522 C4.13954315 -0.03931309 6.29638343 -0.04325826 8.45361328 -0.04541016 C9.95810065 -0.05183978 11.46258677 -0.05856826 12.96707153 -0.06558228 C16.11935321 -0.07754958 19.27152534 -0.08126368 22.42382812 -0.08007812 C26.45453932 -0.07987499 30.48454496 -0.10717257 34.51508904 -0.14162254 C37.62243854 -0.16390846 40.72961872 -0.16791516 43.83703995 -0.16685867 C45.32254594 -0.16921227 46.80805676 -0.17802225 48.29348373 -0.19352341 C50.37583946 -0.21321881 52.45668006 -0.20733354 54.5390625 -0.1953125 C55.72168671 -0.19816254 56.90431091 -0.20101257 58.12277222 -0.20394897 C62.09477466 0.39555319 64.278103 1.80852888 67.39892578 4.29052734 C68.826583 7.14584179 68.54994332 9.59613612 68.57592773 12.78808594 C68.58249893 13.45494919 68.58907013 14.12181244 68.59584045 14.80888367 C68.61557469 17.01891183 68.62723554 19.22887208 68.63720703 21.43896484 C68.64128256 22.1933849 68.64535809 22.94780495 68.64955711 23.72508621 C68.67041729 27.71727475 68.68471983 31.7094289 68.6940918 35.70166016 C68.70516298 39.82674229 68.73957051 43.95128597 68.7792635 48.0761776 C68.80539574 51.24690765 68.81378051 54.41750867 68.81737328 57.58833694 C68.82224721 59.10900132 68.83388423 60.62965964 68.85241127 62.15021896 C68.87673494 64.27864147 68.87585133 66.40566104 68.86889648 68.53417969 C68.87476273 69.74504242 68.88062897 70.95590515 68.88667297 72.20346069 C68.30386845 75.89216753 67.29778228 77.02161843 64.39892578 79.29052734 C61.55118659 80.71439694 59.11695011 80.44148092 55.93310547 80.4675293 C54.93762947 80.47738609 54.93762947 80.47738609 53.92204285 80.48744202 C51.72162769 80.50718166 49.52128088 80.51884034 47.32080078 80.52880859 C46.19291515 80.53492188 46.19291515 80.53492188 45.04224396 80.54115868 C41.06071751 80.56202444 37.07922556 80.5763227 33.09765625 80.58569336 C28.9907051 80.59674582 24.88429756 80.63113016 20.7775383 80.67086506 C17.61530573 80.69705124 14.45320212 80.70538704 11.29087067 80.70897484 C9.77744128 80.71383739 8.26401753 80.72544207 6.75069427 80.74401283 C4.62747086 80.76844375 2.50564607 80.76743289 0.38232422 80.76049805 C-1.42730804 80.76929741 -1.42730804 80.76929741 -3.27349854 80.77827454 C-7.28231812 80.19067243 -9.4576283 78.79905564 -12.60107422 76.29052734 C-13.98585222 73.52097135 -13.7954733 71.19891567 -13.86987305 68.10009766 C-13.91915703 66.14731903 -13.91915703 66.14731903 -13.96943665 64.15509033 C-13.99971005 62.72629268 -14.02924808 61.29747929 -14.05810547 59.86865234 C-14.07321356 59.14982628 -14.08832165 58.43100021 -14.10388756 57.69039154 C-14.18303606 53.8840208 -14.25565133 50.07758441 -14.32348633 46.27099609 C-14.3948652 42.34536088 -14.48987335 38.42067047 -14.59026051 34.49568558 C-14.66305778 31.47263137 -14.71761378 28.44943972 -14.76733971 25.42592621 C-14.79436191 23.97937279 -14.82829032 22.53293072 -14.86936378 21.08670807 C-14.92534721 19.05775879 -14.9528528 17.02808501 -14.97924805 14.99853516 C-15.00287918 13.84540833 -15.02651031 12.69228149 -15.05085754 11.50421143 C-14.49018427 7.49822302 -13.15692703 5.39671172 -10.60107422 2.29052734 C-7.28109498 -0.1610928 -4.04159197 0.02608857 0 0 Z " fill="#0C0F10" transform="translate(347.60107421875,515.70947265625)"/>
<path d="M0 0 C0.79618258 -0.00779995 1.59236516 -0.01559991 2.41267449 -0.02363622 C5.08385864 -0.04359972 7.75362492 -0.02777531 10.42481995 -0.01205444 C12.33846367 -0.0188287 14.25210088 -0.02773076 16.16572571 -0.03860474 C21.36623403 -0.06142892 26.56624725 -0.05254838 31.7667644 -0.03670931 C37.20569888 -0.02406468 42.6445905 -0.03578659 48.08352661 -0.04364014 C57.21901573 -0.05274165 66.35430288 -0.04073636 75.48976135 -0.01693726 C86.05426653 0.01026675 96.61828914 0.001467 107.18278259 -0.02606928 C116.24872579 -0.04875469 125.31452366 -0.05196294 134.38048607 -0.03887594 C139.7970976 -0.03107729 145.21348228 -0.03005114 150.63007927 -0.04655838 C155.72329175 -0.06099522 160.8158819 -0.05099553 165.9090271 -0.0220871 C167.7790988 -0.01547176 169.64922282 -0.01738158 171.51927376 -0.02840042 C174.07101218 -0.04205039 176.62075247 -0.02494846 179.17236328 0 C179.91380551 -0.01115361 180.65524774 -0.02230722 181.41915792 -0.03379881 C185.36391471 0.04109686 187.00811067 0.51959396 190.10894871 3.04569435 C192.66413086 6.28764973 192.83003951 7.74548981 192.58326721 11.70132446 C191.90161953 14.74110467 190.34735059 16.50187865 188.14967346 18.63491821 C180.18593573 22.61678708 168.18590353 20.79841482 159.40846252 20.81192017 C157.61231355 20.81819358 155.81616585 20.82484114 154.02001953 20.83183289 C148.15178816 20.85275017 142.28355687 20.86321538 136.41529846 20.87319946 C134.39058672 20.87724995 132.36587511 20.88136696 130.34116364 20.88554955 C120.83766025 20.90456452 111.33416452 20.91881004 101.8306458 20.92716151 C90.86697711 20.93695689 79.90350906 20.96335162 68.93991113 21.00366241 C60.45564357 21.03378711 51.97143373 21.04862643 43.48711371 21.05194253 C38.42268165 21.05429473 33.35846491 21.06327941 28.29409027 21.0884037 C23.53663334 21.11162932 18.77953447 21.11593999 14.0220356 21.10564232 C12.27610395 21.10514571 10.53015496 21.11150295 8.78427696 21.12519836 C6.4016766 21.14284474 4.02037202 21.13584835 1.63777161 21.12266541 C0.94643135 21.13363465 0.2550911 21.1446039 -0.45719886 21.15590554 C-5.16948649 21.09290858 -7.53514148 19.95013799 -10.85032654 16.63491821 C-11.99306228 14.34944673 -12.08159911 12.86611917 -12.16282654 10.32241821 C-12.20020935 9.5631604 -12.23759216 8.80390259 -12.27610779 8.02163696 C-11.01447192 0.94953134 -6.34696598 -0.09519181 0 0 Z " fill="#0A0C0E" transform="translate(457.85032653808594,308.3650817871094)"/>
<path d="M0 0 C1.75212107 -0.03404324 1.75212107 -0.03404324 3.53963852 -0.06877422 C5.6460114 -0.11258622 7.75212312 -0.17578122 9.85712051 -0.26360035 C14.5353932 -0.34543877 16.47686726 -0.36712961 20.29388428 2.56886292 C22.65984521 5.83206844 22.86129007 7.36470414 22.6192627 11.24447632 C21.93761501 14.28425653 20.38334607 16.04503051 18.18566895 18.17807007 C15.14660222 19.69760343 11.98636626 19.32973241 8.65177917 19.33197021 C7.86547255 19.33635247 7.07916592 19.34073472 6.26903182 19.34524977 C3.61974118 19.35866306 0.97048382 19.36482227 -1.67883301 19.37094116 C-3.57247062 19.37884007 -5.46610671 19.38710889 -7.35974121 19.39572144 C-13.59068357 19.42196371 -19.82163273 19.43725024 -26.0526123 19.45150757 C-28.19524833 19.45686615 -30.33788431 19.46224365 -32.48052025 19.46763992 C-41.39092711 19.48927095 -50.30133213 19.50800905 -59.21175861 19.51926231 C-71.9943322 19.53551048 -84.77660222 19.56870685 -97.55906135 19.62566316 C-106.5399973 19.66432058 -115.52085191 19.68388997 -124.5018689 19.68918288 C-129.86938314 19.6928418 -135.23657378 19.70492061 -140.60399818 19.73728561 C-145.65278259 19.76729267 -150.70104634 19.77370439 -155.74990082 19.76190186 C-157.60387548 19.76168051 -159.45787378 19.77003581 -161.31176567 19.78755569 C-163.8416382 19.81016421 -166.36960945 19.80199235 -168.89949036 19.78607178 C-170.00202722 19.80689491 -170.00202722 19.80689491 -171.12683755 19.82813871 C-175.06006256 19.7670803 -176.67706257 19.29004881 -179.76750469 16.76897621 C-181.75207861 14.25687023 -182.50232882 13.30275924 -182.43933105 10.17807007 C-182.45222168 9.53869507 -182.4651123 8.89932007 -182.47839355 8.24057007 C-181.41410851 4.93502593 -179.44990081 3.37947646 -176.81433105 1.17807007 C-173.62958908 0.54721355 -173.62958908 0.54721355 -169.96539307 0.53883362 C-169.28863974 0.53047794 -168.61188641 0.52212227 -167.91462541 0.51351339 C-165.65247608 0.49161236 -163.39195514 0.50518131 -161.12976074 0.51864624 C-159.50457022 0.51019016 -157.87938984 0.49954472 -156.25422668 0.48687744 C-151.83755503 0.45868316 -147.42136851 0.46121682 -143.0046339 0.46917129 C-138.35976791 0.47230463 -133.71505412 0.44722157 -129.07025146 0.42521667 C-120.24618157 0.38770616 -111.4222655 0.37562715 -102.59812379 0.37259227 C-92.65578224 0.36794781 -82.71360163 0.33506643 -72.7713294 0.29969442 C-60.60931527 0.25695121 -48.44729501 0.22024175 -36.28521729 0.20228577 C-35.42504745 0.20091659 -34.56487762 0.19954741 -33.67864203 0.19813675 C-29.52907971 0.1922778 -25.37958458 0.19045397 -21.23002243 0.19707012 C-14.14956341 0.2058502 -7.07847376 0.17961186 0 0 Z " fill="#0A0D0E" transform="translate(627.8143310546875,423.8219299316406)"/>
<path d="M0 0 C14.52 0 29.04 0 44 0 C44 14.52 44 29.04 44 44 C29.48 44 14.96 44 0 44 C0 29.48 0 14.96 0 0 Z " fill="#FEFEFE" transform="translate(353,419)"/>
<path d="M0 0 C14.52 0 29.04 0 44 0 C44 14.19 44 28.38 44 43 C29.48 43 14.96 43 0 43 C0 28.81 0 14.62 0 0 Z " fill="#FEFEFE" transform="translate(353,535)"/>
<path d="M0 0 C14.52 0 29.04 0 44 0 C44 14.19 44 28.38 44 43 C29.48 43 14.96 43 0 43 C0 28.81 0 14.62 0 0 Z " fill="#FDFDFD" transform="translate(353,304)"/>
<path d="M0 0 C1.08023437 -0.00644531 2.16046875 -0.01289062 3.2734375 -0.01953125 C11.10374261 0.08680623 11.10374261 0.08680623 15.1875 2.5390625 C17.38190455 5.06451946 17.95239059 6.08939411 18.25 9.4375 C17.96338591 13.09182966 17.2909115 14.78110986 15 17.625 C9.73196346 20.19227036 4.75069203 20.02862812 -1 20.0625 C-2.47726562 20.11180664 -2.47726562 20.11180664 -3.984375 20.16210938 C-8.74931907 20.1975245 -11.20454125 20.20136217 -15.1484375 17.34375 C-17.13764057 14.42289486 -17.5916004 12.31406036 -17.6640625 8.78515625 C-14.79127602 -0.5598492 -8.58377773 -0.25607929 0 0 Z " fill="#0C0E0F" transform="translate(463,540.375)"/>
<path d="M0 0 C1.11696762 0.00222061 2.23393524 0.00444122 3.38475037 0.00672913 C4.64598221 0.00680466 5.90721405 0.00688019 7.20666504 0.00695801 C8.59341979 0.01206542 9.98017414 0.01728142 11.3669281 0.02259827 C12.77797394 0.0244625 14.18902042 0.02588638 15.60006714 0.02688599 C19.3204272 0.03071072 23.04074845 0.04054062 26.76109314 0.05158997 C30.55482966 0.06180504 34.34857243 0.06638381 38.14231873 0.07142639 C45.59090416 0.08216294 53.03945758 0.09923882 60.48802185 0.12025452 C60.48802185 0.45025452 60.48802185 0.78025452 60.48802185 1.12025452 C47.34358049 2.29545051 34.23727814 2.23565726 21.05052185 2.18275452 C18.85455933 2.1777272 16.6585957 2.17316649 14.46263123 2.16908264 C9.13773657 2.15817986 3.81288461 2.14154026 -1.51197815 2.12025452 C-1.50150452 3.04886292 -1.49103088 3.97747131 -1.48023987 4.93421936 C-1.44618611 8.37451142 -1.42109322 11.81462478 -1.40211487 15.25502014 C-1.39204772 16.74495771 -1.37839297 18.23487549 -1.36109924 19.7247467 C-1.33688162 21.8644448 -1.32550251 24.00388205 -1.31666565 26.14369202 C-1.30619202 27.43194885 -1.29571838 28.72020569 -1.28492737 30.04750061 C-1.51197815 33.12025452 -1.51197815 33.12025452 -3.51197815 35.12025452 C-3.53663005 30.2964465 -3.55481508 25.47267485 -3.56690979 20.64881897 C-3.57194989 19.00655987 -3.57878193 17.36430528 -3.5874176 15.72206116 C-3.5994974 13.36649973 -3.60520954 11.01099743 -3.6096344 8.65541077 C-3.61479568 7.91686356 -3.61995697 7.17831635 -3.62527466 6.41738892 C-3.62547065 4.65127364 -3.57392534 2.88528306 -3.51197815 1.12025452 C-2.51197815 0.12025452 -2.51197815 0.12025452 0 0 Z " fill="#2E2E2F" transform="translate(587.5119781494141,203.87974548339844)"/>
<path d="M0 0 C10.23 0 20.46 0 31 0 C31 0.33 31 0.66 31 1 C29.74703125 1.06058594 28.4940625 1.12117187 27.203125 1.18359375 C25.55207276 1.26802256 23.90103165 1.35266939 22.25 1.4375 C21.425 1.47681641 20.6 1.51613281 19.75 1.55664062 C18.95078125 1.59853516 18.1515625 1.64042969 17.328125 1.68359375 C16.5949707 1.72025146 15.86181641 1.75690918 15.10644531 1.79467773 C12.98646945 2.00131887 11.05748006 2.46298476 9 3 C7.58465222 3.06456879 6.16662311 3.08611039 4.75 3.0625 C2.89375 3.0315625 2.89375 3.0315625 1 3 C0.67 2.01 0.34 1.02 0 0 Z " fill="#252627" transform="translate(457,635)"/>
<path d="M0 0 C3.04332765 1.3584202 5.12309151 2.88463024 7.453125 5.2578125 C8.071875 5.88300781 8.690625 6.50820313 9.328125 7.15234375 C9.96234375 7.80332031 10.5965625 8.45429687 11.25 9.125 C11.8996875 9.78371094 12.549375 10.44242188 13.21875 11.12109375 C14.81711727 12.74296643 16.41061897 14.3693281 18 16 C17.34 16.66 16.68 17.32 16 18 C15.43152344 17.35933594 14.86304688 16.71867188 14.27734375 16.05859375 C10.04892752 11.32192048 5.78760533 6.68420015 1.21484375 2.27734375 C0 1 0 1 0 0 Z " fill="#131314" transform="translate(497,777)"/>
<path d="M0 0 C0.99 0.33 1.98 0.66 3 1 C1.0884175 2.79736845 -0.82886184 4.58789474 -2.75 6.375 C-3.55824219 7.13683594 -3.55824219 7.13683594 -4.3828125 7.9140625 C-7.09097827 10.4240698 -9.55080159 12.61027443 -13 14 C-8.88380164 9.08064098 -4.59589638 4.47352044 0 0 Z " fill="#232425" transform="translate(512,538)"/>
<path d="M0 0 C0.99 0.33 1.98 0.66 3 1 C3 6.94 3 12.88 3 19 C2.67 19 2.34 19 2 19 C1.67 15.7 1.34 12.4 1 9 C0.67 9 0.34 9 0 9 C0 6.03 0 3.06 0 0 Z " fill="#151717" transform="translate(447,644)"/>
<path d="M0 0 C4.75481646 0.57634139 7.97048212 2.55068521 12 5 C8.29218282 6.23593906 7.47018032 5.56984348 4 4 C3.071875 3.62875 2.14375 3.2575 1.1875 2.875 C0.465625 2.58625 -0.25625 2.2975 -1 2 C-0.67 1.34 -0.34 0.68 0 0 Z " fill="#131414" transform="translate(688,189)"/>
<path d="M0 0 C-0.33 0.66 -0.66 1.32 -1 2 C-3.64860427 2.59355614 -6.29197322 2.74209269 -9 3 C-8.67 2.01 -8.34 1.02 -8 0 C-5.04215769 -1.22393475 -3.00272755 -0.96516243 0 0 Z " fill="#131516" transform="translate(619,612)"/>
<path d="M0 0 C0.66 0.33 1.32 0.66 2 1 C0.35 2.65 -1.3 4.3 -3 6 C-3 3 -3 3 -1.5 1.3125 C-0.7575 0.6628125 -0.7575 0.6628125 0 0 Z M-6 5 C-5.34 5.33 -4.68 5.66 -4 6 C-5.32 6.99 -6.64 7.98 -8 9 C-7.34 7.68 -6.68 6.36 -6 5 Z " fill="#1B1C1C" transform="translate(285,192)"/>
<path d="M0 0 C0.99 0.33 1.98 0.66 3 1 C3 3.64 3 6.28 3 9 C2.01 9.495 2.01 9.495 1 10 C-0.1577506 6.52674819 -0.06866652 3.63932552 0 0 Z " fill="#121315" transform="translate(713,221)"/>
<path d="M0 0 C-2 3 -2 3 -4.4375 3.8125 C-7 4 -7 4 -10 2 C-8.71211992 1.46987262 -7.41953322 0.9511671 -6.125 0.4375 C-5.40570312 0.14746094 -4.68640625 -0.14257812 -3.9453125 -0.44140625 C-2 -1 -2 -1 0 0 Z " fill="#191A1B" transform="translate(657,736)"/>
<path d="M0 0 C2.64 0 5.28 0 8 0 C8.33 0.99 8.66 1.98 9 3 C6.36 3 3.72 3 1 3 C0.67 2.01 0.34 1.02 0 0 Z " fill="#141516" transform="translate(778,650)"/>
<path d="M0 0 C-2.96687001 1.64826111 -5.65626525 2.44271087 -9 3 C-8.67 2.01 -8.34 1.02 -8 0 C-4.71023192 -1.09658936 -3.28696233 -0.79953138 0 0 Z " fill="#171819" transform="translate(590,554)"/>
<path d="M0 0 C3.375 -0.1875 3.375 -0.1875 7 0 C7.66 0.99 8.32 1.98 9 3 C5.625 3.1875 5.625 3.1875 2 3 C1.34 2.01 0.68 1.02 0 0 Z " fill="#171919" transform="translate(766,649)"/>
<path d="M0 0 C0.94875 0.350625 1.8975 0.70125 2.875 1.0625 C2.875 2.0525 2.875 3.0425 2.875 4.0625 C0.20833333 2.72916667 -2.45833333 1.39583333 -5.125 0.0625 C-3.125 -0.9375 -3.125 -0.9375 0 0 Z " fill="#131415" transform="translate(668.125,601.9375)"/>
</svg>
