<?xml version="1.0" encoding="UTF-8"?>
<svg version="1.1" xmlns="http://www.w3.org/2000/svg" width="1024" height="1024">
<path d="M0 0 C337.92 0 675.84 0 1024 0 C1024 337.92 1024 675.84 1024 1024 C686.08 1024 348.16 1024 0 1024 C0 686.08 0 348.16 0 0 Z " fill="#FEFEFE" transform="translate(0,0)"/>
<path d="M0 0 C0.83631254 -0.00297112 1.67262508 -0.00594224 2.53428042 -0.0090034 C5.34086705 -0.01768553 8.14741101 -0.01919823 10.95401001 -0.02069092 C12.96454459 -0.02531937 14.97507829 -0.03034407 16.98561096 -0.03573608 C22.45047838 -0.04885795 27.91533351 -0.05530443 33.38021421 -0.05974674 C36.79346221 -0.06267732 40.20670685 -0.06678206 43.61995316 -0.07125092 C54.29653545 -0.0849242 64.97311007 -0.09459215 75.64970052 -0.09845281 C87.97965926 -0.10293573 100.30950725 -0.12049522 112.63943231 -0.1494534 C122.16734335 -0.1710552 131.6952232 -0.18115626 141.22315848 -0.18249393 C146.91530909 -0.18354287 152.60735558 -0.1894699 158.29948044 -0.20731354 C163.65270758 -0.22376859 169.00575204 -0.22596217 174.35899544 -0.21717453 C176.32380347 -0.21640283 178.28862122 -0.22076435 180.25340462 -0.23063278 C182.93567506 -0.24331501 185.6172948 -0.23749581 188.29956055 -0.22705078 C189.07699942 -0.23510719 189.85443829 -0.24316359 190.65543592 -0.25146413 C196.36337511 -0.19948002 199.93762505 1.27598142 204.62921619 4.35694599 C206.49266094 7.25307484 206.17759795 10.34432085 206.13752747 13.67637634 C206.14009074 14.45073101 206.14265401 15.22508568 206.14529496 16.02290565 C206.15024861 18.62568933 206.1337142 21.22789692 206.11734009 23.83062744 C206.11649416 25.69311509 206.11696829 27.55560375 206.1186676 29.41809082 C206.1195303 34.48188843 206.10186009 39.54547396 206.08094573 44.60922217 C206.06222469 49.89832984 206.0604321 55.18744207 206.05686951 60.47657776 C206.04753558 70.49570202 206.02290357 80.51472838 205.99282104 90.53380948 C205.95931894 101.93872688 205.94280157 113.34364889 205.92773473 124.74860322 C205.89635519 148.21260378 205.84356852 171.67651736 205.77676392 195.14044189 C206.75136409 195.13675472 207.72596426 195.13306755 208.73009777 195.12926865 C232.43218682 195.04051393 256.13425435 194.97475957 279.83647442 194.93319321 C291.29864593 194.91255831 302.76070774 194.88441989 314.22280884 194.83868408 C324.21189328 194.79884483 334.20089828 194.77301584 344.19005996 194.76408792 C349.48043609 194.75886825 354.77058493 194.74658073 360.06088829 194.71752167 C365.03899406 194.69039867 370.01677861 194.68199063 374.99495125 194.68801117 C376.82312133 194.68690954 378.65130201 194.67893715 380.47940826 194.66362 C382.97412025 194.64374054 385.46761691 194.64849477 387.96235657 194.65942383 C388.68707254 194.64777246 389.41178851 194.6361211 390.15846556 194.62411666 C394.98133982 194.68129183 397.39398329 195.72467127 400.77676392 199.14044189 C403.36249302 203.01903554 403.0608666 206.23870009 403.04418945 210.73695374 C403.04872057 211.62549803 403.05325168 212.51404232 403.0579201 213.4295122 C403.07062112 216.41890106 403.06894006 219.40810905 403.06729126 222.39752197 C403.07327299 224.53598771 403.08007771 226.67445128 403.08764648 228.81291199 C403.10535082 234.63114496 403.11000376 240.44931915 403.11127806 246.26757646 C403.11317466 251.12101386 403.12052953 255.97443748 403.12762225 260.82786959 C403.143921 272.27752641 403.14878988 283.72715177 403.14736938 295.17681885 C403.14616786 306.99485294 403.16726849 318.81270443 403.19885671 330.6306923 C403.2249942 340.77004953 403.23573773 350.90934704 403.23445857 361.0487377 C403.23394815 367.10757241 403.2396753 373.16624495 403.26081467 379.22504616 C403.28015415 384.92385335 403.28035076 390.62234299 403.2657814 396.32116127 C403.26368681 398.41336022 403.26843271 400.50557881 403.28050232 402.59774399 C403.29590879 405.45319749 403.28667688 408.30754981 403.27124023 411.16297913 C403.28152736 411.99168245 403.29181449 412.82038577 403.30241334 413.67420131 C403.23956282 418.93231679 402.34212784 422.02107513 398.77676392 426.14044189 C395.30592423 428.80499906 391.31955091 428.41475032 387.12057495 428.38095093 C386.34536586 428.38265978 385.57015676 428.38436863 384.77145648 428.38612926 C382.17189484 428.38942551 379.57259087 428.37841827 376.97305298 428.36749268 C375.11041775 428.36692859 373.24778207 428.36724507 371.38514709 428.36837769 C366.32558912 428.36895231 361.26612567 428.35718028 356.2065897 428.34322977 C350.92015116 428.33074064 345.63371054 428.32955335 340.34725952 428.32717896 C330.33527784 428.32095884 320.32333976 428.30454082 310.31137729 428.28447998 C298.91368402 428.26213751 287.51598869 428.2511317 276.11827898 428.24108911 C252.67108311 428.22017507 229.22392595 428.18498876 205.77676392 428.14044189 C205.78045109 429.1047346 205.78413826 430.06902731 205.78793716 431.06254101 C205.87669304 454.51427363 205.94244679 477.9659845 205.9840126 501.41784954 C206.00464725 512.75895338 206.03278517 524.09994633 206.07852173 535.440979 C206.11836177 545.32458803 206.14419016 555.20811676 206.1531179 565.09180385 C206.15833742 570.32628969 206.17062409 575.56054582 206.19968414 580.79495811 C206.22680841 585.72053513 206.23521493 590.64578751 206.22919464 595.57143211 C206.23029621 597.3802517 206.23826787 599.189082 206.25358582 600.99783707 C206.2734673 603.46627883 206.26871036 605.93349252 206.25778198 608.40196228 C206.26943335 609.11889635 206.28108471 609.83583043 206.29308915 610.57448977 C206.25196798 614.00719564 205.83958986 616.0358765 204.05920029 618.99909687 C199.31235859 623.45250726 194.61733443 623.43251056 188.35734558 623.40786743 C187.51201151 623.41239854 186.66667745 623.41692966 185.79572719 623.42159808 C182.96456204 623.43425339 180.13358898 623.43262098 177.30239868 623.43096924 C175.27201083 623.4369537 173.24162525 623.44375906 171.21124268 623.45132446 C165.69683679 623.46899813 160.18249296 623.47368037 154.66806149 623.47495604 C150.06554156 623.47685495 145.4630361 623.48421224 140.86052173 623.49130023 C130.00341207 623.50758633 119.14633557 623.5124689 108.28921509 623.51104736 C97.08575144 623.50984527 85.88248023 623.53096018 74.67906529 623.56253469 C65.06195594 623.58867366 55.44490954 623.59941569 45.82776493 623.59813654 C40.0830658 623.59762629 34.33853775 623.60334476 28.59387398 623.62449265 C23.19215552 623.64383533 17.79077207 623.6440266 12.3890419 623.62945938 C10.4064949 623.62736538 8.42392714 623.63210721 6.44141579 623.6441803 C3.73493717 623.65959493 1.02961915 623.6503499 -1.67683411 623.63491821 C-2.46137276 623.64520534 -3.24591141 623.65549247 -4.05422395 623.66609132 C-9.26688187 623.60040806 -12.3113398 622.59639676 -16.22323608 619.14044189 C-19.22815482 614.65371525 -19.64951699 610.66147778 -19.58399963 605.39559937 C-19.58656291 604.63501563 -19.58912618 603.87443189 -19.59176713 603.09080017 C-19.59669253 600.5526042 -19.58023305 598.01500847 -19.56381226 595.47686768 C-19.56296571 593.65334589 -19.56344166 591.82982307 -19.56513977 590.00630188 C-19.56600008 585.06251018 -19.54836836 580.11893709 -19.5274179 575.17519617 C-19.50865722 570.00622321 -19.50690113 564.83724517 -19.50334167 559.66824341 C-19.49401944 549.88296316 -19.46940318 540.09778352 -19.43929321 530.31254756 C-19.40575482 519.17115937 -19.38926459 508.02976635 -19.3742069 496.88834023 C-19.34285382 473.97231835 -19.29008978 451.05638576 -19.22323608 428.14044189 C-20.67602305 428.14735534 -20.67602305 428.14735534 -22.15815926 428.15440845 C-45.71870976 428.26538003 -69.27922639 428.34755813 -92.83998299 428.39950275 C-104.23377899 428.42529015 -115.62740241 428.4604511 -127.02108765 428.51763916 C-136.95121846 428.5674575 -146.88122428 428.59972901 -156.81147659 428.61088437 C-162.07008387 428.61740574 -167.32833358 428.63274423 -172.58682632 428.66909218 C-177.53625649 428.70302667 -182.48518173 428.71349992 -187.43471718 428.7059803 C-189.25118949 428.70735598 -191.06767865 428.71730365 -192.88405037 428.73646927 C-195.36549915 428.76136844 -197.84504476 428.75535974 -200.32653809 428.74171448 C-201.04445027 428.75627868 -201.76236244 428.77084289 -202.50202954 428.78584844 C-208.12366536 428.70235735 -210.41377007 426.97728802 -214.22323608 423.14044189 C-215.86337234 419.86016938 -215.36738435 416.22490976 -215.36367798 412.61949158 C-215.3666491 411.72701259 -215.36962022 410.8345336 -215.37268138 409.9150098 C-215.38139477 406.90640425 -215.38287885 403.89783838 -215.3843689 400.88922119 C-215.3889952 398.73942987 -215.39401961 396.58963938 -215.39941406 394.43984985 C-215.41255812 388.58651377 -215.41898692 382.73318916 -215.42342472 376.87984061 C-215.42635221 373.22573233 -215.4304564 369.57162722 -215.43492889 365.91752052 C-215.4486091 354.49288913 -215.4582732 343.06826493 -215.46213078 331.64362592 C-215.46661299 318.44032243 -215.48416629 305.23712239 -215.51313138 292.03385037 C-215.53472399 281.83848503 -215.54483377 271.64314885 -215.5461719 261.44776088 C-215.54722167 255.35375645 -215.55316585 249.25984919 -215.57099152 243.16586876 C-215.58743035 237.43429722 -215.58964807 231.70289633 -215.58085251 225.97130966 C-215.58007989 223.86579113 -215.58445435 221.76026359 -215.59431076 219.65476799 C-215.60696415 216.78375464 -215.60118941 213.91335173 -215.59072876 211.04234314 C-215.59878516 210.20615391 -215.60684157 209.36996468 -215.61514211 208.50843638 C-215.57599153 203.92441048 -215.28324564 200.80570822 -212.22323608 197.14044189 C-208.73861315 194.49490729 -204.76104191 194.86617356 -200.56704712 194.89993286 C-199.79183802 194.89822401 -199.01662893 194.89651516 -198.21792865 194.89475453 C-195.61836701 194.89145828 -193.01906304 194.90246552 -190.41952515 194.91339111 C-188.55688991 194.9139552 -186.69425424 194.91363872 -184.83161926 194.9125061 C-179.77206129 194.91193148 -174.71259784 194.92370351 -169.65306187 194.93765402 C-164.36662333 194.95014315 -159.0801827 194.95133044 -153.79373169 194.95370483 C-143.78175001 194.95992495 -133.76981192 194.97634297 -123.75784945 194.99640381 C-112.36015619 195.01874628 -100.96246086 195.02975209 -89.56475115 195.03979468 C-66.11755528 195.06070872 -42.67039812 195.09589503 -19.22323608 195.14044189 C-19.22507967 194.19676412 -19.22692326 193.25308634 -19.22882271 192.28081226 C-19.2732019 169.32976425 -19.30607816 146.3787218 -19.32686043 123.42763996 C-19.33717744 112.32871794 -19.35124591 101.22982425 -19.37411499 90.13092041 C-19.39403583 80.45826279 -19.40694943 70.78562568 -19.41141307 61.11294812 C-19.41402266 55.99032025 -19.4201652 50.86775106 -19.4346962 45.74514198 C-19.44825945 40.92468807 -19.45246126 36.10431709 -19.44945145 31.2838459 C-19.45000217 29.51374104 -19.45398709 27.74363344 -19.46164703 25.97354507 C-19.47158861 23.55794989 -19.46920786 21.14266839 -19.46374512 18.72706604 C-19.4695708 18.02569576 -19.47539648 17.32432548 -19.4813987 16.60170156 C-19.44717349 11.00736529 -18.505075 7.62467643 -14.84823608 3.39044189 C-10.30456784 -0.50413089 -5.78371201 -0.00640936 0 0 Z " fill="#FEFEFE" transform="translate(418.2232360839844,199.85955810546875)"/>
<path d="M0 0 C0.83631254 -0.00297112 1.67262508 -0.00594224 2.53428042 -0.0090034 C5.34086705 -0.01768553 8.14741101 -0.01919823 10.95401001 -0.02069092 C12.96454459 -0.02531937 14.97507829 -0.03034407 16.98561096 -0.03573608 C22.45047838 -0.04885795 27.91533351 -0.05530443 33.38021421 -0.05974674 C36.79346221 -0.06267732 40.20670685 -0.06678206 43.61995316 -0.07125092 C54.29653545 -0.0849242 64.97311007 -0.09459215 75.64970052 -0.09845281 C87.97965926 -0.10293573 100.30950725 -0.12049522 112.63943231 -0.1494534 C122.16734335 -0.1710552 131.6952232 -0.18115626 141.22315848 -0.18249393 C146.91530909 -0.18354287 152.60735558 -0.1894699 158.29948044 -0.20731354 C163.65270758 -0.22376859 169.00575204 -0.22596217 174.35899544 -0.21717453 C176.32380347 -0.21640283 178.28862122 -0.22076435 180.25340462 -0.23063278 C182.93567506 -0.24331501 185.6172948 -0.23749581 188.29956055 -0.22705078 C189.07699942 -0.23510719 189.85443829 -0.24316359 190.65543592 -0.25146413 C196.36337511 -0.19948002 199.93762505 1.27598142 204.62921619 4.35694599 C206.49266094 7.25307484 206.17759795 10.34432085 206.13752747 13.67637634 C206.14009074 14.45073101 206.14265401 15.22508568 206.14529496 16.02290565 C206.15024861 18.62568933 206.1337142 21.22789692 206.11734009 23.83062744 C206.11649416 25.69311509 206.11696829 27.55560375 206.1186676 29.41809082 C206.1195303 34.48188843 206.10186009 39.54547396 206.08094573 44.60922217 C206.06222469 49.89832984 206.0604321 55.18744207 206.05686951 60.47657776 C206.04753558 70.49570202 206.02290357 80.51472838 205.99282104 90.53380948 C205.95931894 101.93872688 205.94280157 113.34364889 205.92773473 124.74860322 C205.89635519 148.21260378 205.84356852 171.67651736 205.77676392 195.14044189 C206.75136409 195.13675472 207.72596426 195.13306755 208.73009777 195.12926865 C232.43218682 195.04051393 256.13425435 194.97475957 279.83647442 194.93319321 C291.29864593 194.91255831 302.76070774 194.88441989 314.22280884 194.83868408 C324.21189328 194.79884483 334.20089828 194.77301584 344.19005996 194.76408792 C349.48043609 194.75886825 354.77058493 194.74658073 360.06088829 194.71752167 C365.03899406 194.69039867 370.01677861 194.68199063 374.99495125 194.68801117 C376.82312133 194.68690954 378.65130201 194.67893715 380.47940826 194.66362 C382.97412025 194.64374054 385.46761691 194.64849477 387.96235657 194.65942383 C388.68707254 194.64777246 389.41178851 194.6361211 390.15846556 194.62411666 C394.98133982 194.68129183 397.39398329 195.72467127 400.77676392 199.14044189 C403.36249302 203.01903554 403.0608666 206.23870009 403.04418945 210.73695374 C403.04872057 211.62549803 403.05325168 212.51404232 403.0579201 213.4295122 C403.07062112 216.41890106 403.06894006 219.40810905 403.06729126 222.39752197 C403.07327299 224.53598771 403.08007771 226.67445128 403.08764648 228.81291199 C403.10535082 234.63114496 403.11000376 240.44931915 403.11127806 246.26757646 C403.11317466 251.12101386 403.12052953 255.97443748 403.12762225 260.82786959 C403.143921 272.27752641 403.14878988 283.72715177 403.14736938 295.17681885 C403.14616786 306.99485294 403.16726849 318.81270443 403.19885671 330.6306923 C403.2249942 340.77004953 403.23573773 350.90934704 403.23445857 361.0487377 C403.23394815 367.10757241 403.2396753 373.16624495 403.26081467 379.22504616 C403.28015415 384.92385335 403.28035076 390.62234299 403.2657814 396.32116127 C403.26368681 398.41336022 403.26843271 400.50557881 403.28050232 402.59774399 C403.29590879 405.45319749 403.28667688 408.30754981 403.27124023 411.16297913 C403.28152736 411.99168245 403.29181449 412.82038577 403.30241334 413.67420131 C403.23956282 418.93231679 402.34212784 422.02107513 398.77676392 426.14044189 C395.30592423 428.80499906 391.31955091 428.41475032 387.12057495 428.38095093 C386.34536586 428.38265978 385.57015676 428.38436863 384.77145648 428.38612926 C382.17189484 428.38942551 379.57259087 428.37841827 376.97305298 428.36749268 C375.11041775 428.36692859 373.24778207 428.36724507 371.38514709 428.36837769 C366.32558912 428.36895231 361.26612567 428.35718028 356.2065897 428.34322977 C350.92015116 428.33074064 345.63371054 428.32955335 340.34725952 428.32717896 C330.33527784 428.32095884 320.32333976 428.30454082 310.31137729 428.28447998 C298.91368402 428.26213751 287.51598869 428.2511317 276.11827898 428.24108911 C252.67108311 428.22017507 229.22392595 428.18498876 205.77676392 428.14044189 C205.78045109 429.1047346 205.78413826 430.06902731 205.78793716 431.06254101 C205.87669304 454.51427363 205.94244679 477.9659845 205.9840126 501.41784954 C206.00464725 512.75895338 206.03278517 524.09994633 206.07852173 535.440979 C206.11836177 545.32458803 206.14419016 555.20811676 206.1531179 565.09180385 C206.15833742 570.32628969 206.17062409 575.56054582 206.19968414 580.79495811 C206.22680841 585.72053513 206.23521493 590.64578751 206.22919464 595.57143211 C206.23029621 597.3802517 206.23826787 599.189082 206.25358582 600.99783707 C206.2734673 603.46627883 206.26871036 605.93349252 206.25778198 608.40196228 C206.26943335 609.11889635 206.28108471 609.83583043 206.29308915 610.57448977 C206.25196798 614.00719564 205.83958986 616.0358765 204.05920029 618.99909687 C199.31235859 623.45250726 194.61733443 623.43251056 188.35734558 623.40786743 C187.51201151 623.41239854 186.66667745 623.41692966 185.79572719 623.42159808 C182.96456204 623.43425339 180.13358898 623.43262098 177.30239868 623.43096924 C175.27201083 623.4369537 173.24162525 623.44375906 171.21124268 623.45132446 C165.69683679 623.46899813 160.18249296 623.47368037 154.66806149 623.47495604 C150.06554156 623.47685495 145.4630361 623.48421224 140.86052173 623.49130023 C130.00341207 623.50758633 119.14633557 623.5124689 108.28921509 623.51104736 C97.08575144 623.50984527 85.88248023 623.53096018 74.67906529 623.56253469 C65.06195594 623.58867366 55.44490954 623.59941569 45.82776493 623.59813654 C40.0830658 623.59762629 34.33853775 623.60334476 28.59387398 623.62449265 C23.19215552 623.64383533 17.79077207 623.6440266 12.3890419 623.62945938 C10.4064949 623.62736538 8.42392714 623.63210721 6.44141579 623.6441803 C3.73493717 623.65959493 1.02961915 623.6503499 -1.67683411 623.63491821 C-2.46137276 623.64520534 -3.24591141 623.65549247 -4.05422395 623.66609132 C-9.26688187 623.60040806 -12.3113398 622.59639676 -16.22323608 619.14044189 C-19.22815482 614.65371525 -19.64951699 610.66147778 -19.58399963 605.39559937 C-19.58656291 604.63501563 -19.58912618 603.87443189 -19.59176713 603.09080017 C-19.59669253 600.5526042 -19.58023305 598.01500847 -19.56381226 595.47686768 C-19.56296571 593.65334589 -19.56344166 591.82982307 -19.56513977 590.00630188 C-19.56600008 585.06251018 -19.54836836 580.11893709 -19.5274179 575.17519617 C-19.50865722 570.00622321 -19.50690113 564.83724517 -19.50334167 559.66824341 C-19.49401944 549.88296316 -19.46940318 540.09778352 -19.43929321 530.31254756 C-19.40575482 519.17115937 -19.38926459 508.02976635 -19.3742069 496.88834023 C-19.34285382 473.97231835 -19.29008978 451.05638576 -19.22323608 428.14044189 C-20.67602305 428.14735534 -20.67602305 428.14735534 -22.15815926 428.15440845 C-45.71870976 428.26538003 -69.27922639 428.34755813 -92.83998299 428.39950275 C-104.23377899 428.42529015 -115.62740241 428.4604511 -127.02108765 428.51763916 C-136.95121846 428.5674575 -146.88122428 428.59972901 -156.81147659 428.61088437 C-162.07008387 428.61740574 -167.32833358 428.63274423 -172.58682632 428.66909218 C-177.53625649 428.70302667 -182.48518173 428.71349992 -187.43471718 428.7059803 C-189.25118949 428.70735598 -191.06767865 428.71730365 -192.88405037 428.73646927 C-195.36549915 428.76136844 -197.84504476 428.75535974 -200.32653809 428.74171448 C-201.04445027 428.75627868 -201.76236244 428.77084289 -202.50202954 428.78584844 C-208.12366536 428.70235735 -210.41377007 426.97728802 -214.22323608 423.14044189 C-215.86337234 419.86016938 -215.36738435 416.22490976 -215.36367798 412.61949158 C-215.3666491 411.72701259 -215.36962022 410.8345336 -215.37268138 409.9150098 C-215.38139477 406.90640425 -215.38287885 403.89783838 -215.3843689 400.88922119 C-215.3889952 398.73942987 -215.39401961 396.58963938 -215.39941406 394.43984985 C-215.41255812 388.58651377 -215.41898692 382.73318916 -215.42342472 376.87984061 C-215.42635221 373.22573233 -215.4304564 369.57162722 -215.43492889 365.91752052 C-215.4486091 354.49288913 -215.4582732 343.06826493 -215.46213078 331.64362592 C-215.46661299 318.44032243 -215.48416629 305.23712239 -215.51313138 292.03385037 C-215.53472399 281.83848503 -215.54483377 271.64314885 -215.5461719 261.44776088 C-215.54722167 255.35375645 -215.55316585 249.25984919 -215.57099152 243.16586876 C-215.58743035 237.43429722 -215.58964807 231.70289633 -215.58085251 225.97130966 C-215.58007989 223.86579113 -215.58445435 221.76026359 -215.59431076 219.65476799 C-215.60696415 216.78375464 -215.60118941 213.91335173 -215.59072876 211.04234314 C-215.59878516 210.20615391 -215.60684157 209.36996468 -215.61514211 208.50843638 C-215.57599153 203.92441048 -215.28324564 200.80570822 -212.22323608 197.14044189 C-208.73861315 194.49490729 -204.76104191 194.86617356 -200.56704712 194.89993286 C-199.79183802 194.89822401 -199.01662893 194.89651516 -198.21792865 194.89475453 C-195.61836701 194.89145828 -193.01906304 194.90246552 -190.41952515 194.91339111 C-188.55688991 194.9139552 -186.69425424 194.91363872 -184.83161926 194.9125061 C-179.77206129 194.91193148 -174.71259784 194.92370351 -169.65306187 194.93765402 C-164.36662333 194.95014315 -159.0801827 194.95133044 -153.79373169 194.95370483 C-143.78175001 194.95992495 -133.76981192 194.97634297 -123.75784945 194.99640381 C-112.36015619 195.01874628 -100.96246086 195.02975209 -89.56475115 195.03979468 C-66.11755528 195.06070872 -42.67039812 195.09589503 -19.22323608 195.14044189 C-19.22507967 194.19676412 -19.22692326 193.25308634 -19.22882271 192.28081226 C-19.2732019 169.32976425 -19.30607816 146.3787218 -19.32686043 123.42763996 C-19.33717744 112.32871794 -19.35124591 101.22982425 -19.37411499 90.13092041 C-19.39403583 80.45826279 -19.40694943 70.78562568 -19.41141307 61.11294812 C-19.41402266 55.99032025 -19.4201652 50.86775106 -19.4346962 45.74514198 C-19.44825945 40.92468807 -19.45246126 36.10431709 -19.44945145 31.2838459 C-19.45000217 29.51374104 -19.45398709 27.74363344 -19.46164703 25.97354507 C-19.47158861 23.55794989 -19.46920786 21.14266839 -19.46374512 18.72706604 C-19.4695708 18.02569576 -19.47539648 17.32432548 -19.4813987 16.60170156 C-19.44717349 11.00736529 -18.505075 7.62467643 -14.84823608 3.39044189 C-10.30456784 -0.50413089 -5.78371201 -0.00640936 0 0 Z M1.77676392 21.14044189 C1.75098267 34.65368408 1.72520142 48.16692627 1.69863892 62.08966064 C1.67348186 70.63459715 1.64732163 79.17951092 1.61660767 87.72442627 C1.56801127 101.29660908 1.52358988 114.86871624 1.50576782 128.440979 C1.49277048 138.32466714 1.4658549 148.20820202 1.42215085 158.09180385 C1.39949291 163.32623392 1.38385583 168.56047465 1.38488007 173.79495811 C1.38562412 178.72062533 1.36777602 183.64587333 1.33559608 188.57143211 C1.32706913 190.38021433 1.32536604 192.18904341 1.33096123 193.99783707 C1.33758076 196.46637114 1.31973103 198.93356336 1.29574585 201.40196228 C1.30350627 202.11889635 1.31126668 202.83583043 1.31926227 203.57448977 C1.23699056 208.352526 0.15745207 210.78191714 -3.22323608 214.14044189 C-6.23283406 215.64524088 -9.33720969 215.29423669 -12.63891602 215.29866028 C-13.41054581 215.30358994 -14.1821756 215.30851959 -14.97718811 215.31359863 C-17.58475513 215.32903989 -20.19229772 215.33735309 -22.79989624 215.34576416 C-24.69246832 215.35547485 -26.58503821 215.36562006 -28.47760582 215.37616634 C-33.55976892 215.40328007 -38.6419407 215.42442272 -43.72413635 215.44435883 C-48.48777113 215.46394124 -53.25137198 215.48886815 -58.01498413 215.5133667 C-71.95937598 215.58194847 -85.90380912 215.64191521 -99.84823608 215.70294189 C-146.56386108 215.91950439 -146.56386108 215.91950439 -194.22323608 216.14044189 C-194.22323608 279.50044189 -194.22323608 342.86044189 -194.22323608 408.14044189 C-131.91919489 408.27138341 -131.91919489 408.27138341 -69.61508179 408.34820557 C-57.57711792 408.38909912 -57.57711792 408.38909912 -51.94532776 408.41456604 C-48.00380376 408.43066878 -44.06253759 408.43274104 -40.12098694 408.42640686 C-35.09599395 408.41878783 -30.07160976 408.43494562 -25.04672849 408.46845877 C-23.20091216 408.47669558 -21.35503497 408.47651852 -19.50922453 408.46705091 C-17.01796201 408.45547163 -14.52874634 408.4744667 -12.03764343 408.50120544 C-10.95088208 408.48519523 -10.95088208 408.48519523 -9.84216595 408.46886158 C-6.1824951 408.5420478 -4.29834992 409.08805624 -1.2747879 411.1967392 C1.25312213 414.82395227 1.47958797 417.60767484 1.41600037 421.87892151 C1.42435604 422.65090148 1.43271172 423.42288144 1.4413206 424.21825475 C1.46324256 426.80125798 1.44964674 429.38283833 1.43618774 431.96588135 C1.44464077 433.81882303 1.45528478 435.67175583 1.46795654 437.52467346 C1.49613201 442.55326627 1.49362608 447.58143295 1.4856627 452.61008096 C1.4825404 457.86588619 1.5075639 463.12155505 1.52961731 468.37730408 C1.5670909 478.32904873 1.57920727 488.28065673 1.58224171 498.23246497 C1.58780528 511.68084809 1.63248174 525.12909735 1.67498302 538.57740498 C1.74091102 559.76511715 1.75453106 580.95253452 1.77676392 602.14044189 C62.49676392 602.14044189 123.21676392 602.14044189 185.77676392 602.14044189 C185.7909436 588.62719971 185.80512329 575.11395752 185.81973267 561.19122314 C185.83978209 552.64628201 185.86108716 544.10137481 185.88809204 535.55645752 C185.93075 521.98425601 185.96818218 508.41218001 185.97232056 494.83990479 C185.97535782 484.95619632 185.99581625 475.07270465 186.03728849 465.18907994 C186.05864174 459.95460705 186.07120711 454.72044254 186.06291771 449.48592567 C186.05539236 444.56018756 186.07113865 439.63507507 186.10482407 434.70945168 C186.11307564 432.90066878 186.1127858 431.09182389 186.10336113 429.28304672 C186.09176988 426.81426453 186.11080785 424.34754324 186.13752747 421.87892151 C186.12685421 421.16198744 186.11618095 420.44505336 186.10518426 419.70639402 C186.17872856 416.06802472 186.7330606 414.20315032 188.82831573 411.1967392 C192.47738191 408.65181914 195.29359256 408.43789334 199.59117126 408.50120544 C200.36944275 408.49285172 201.14771423 408.48449799 201.9495697 408.47589111 C204.56209955 408.45391717 207.1732264 408.46761756 209.78579712 408.48101807 C211.68875524 408.47252627 213.59170465 408.46184637 215.4946394 408.44915485 C220.59126338 408.42120753 225.68746438 408.42321362 230.78414154 408.43140411 C235.56641907 408.43455709 240.34841327 408.41072435 245.13064575 408.38909912 C259.11678596 408.34158752 273.10304621 408.33741402 287.08926392 408.32794189 C318.33613892 408.26606689 349.58301392 408.20419189 381.77676392 408.14044189 C381.77676392 344.78044189 381.77676392 281.42044189 381.77676392 216.14044189 C320.17598017 215.96990777 320.17598017 215.96990777 258.57510376 215.84259033 C246.66860962 215.79718018 246.66860962 215.79718018 241.09698486 215.77087402 C237.20054251 215.75384935 233.30425458 215.74801119 229.40777588 215.74890137 C224.4383724 215.74967178 219.46938149 215.73141812 214.50008512 215.69935274 C212.67585493 215.69082739 210.8515783 215.68900101 209.02733684 215.69461775 C206.5628989 215.7012451 204.09980101 215.68338895 201.63549805 215.65942383 C200.92168283 215.66718464 200.20786762 215.67494545 199.47242165 215.68294144 C194.48277662 215.59730614 191.62256926 214.27018221 187.77676392 211.14044189 C186.27666052 208.1402351 186.62298158 205.05389941 186.61854553 201.76272583 C186.61360756 200.99330914 186.60866958 200.22389244 186.60358196 199.43116009 C186.58815901 196.83930185 186.57983341 194.24746847 186.57144165 191.65557861 C186.56186689 189.80308817 186.55185705 187.95059993 186.54144287 186.09811401 C186.51434414 181.05708496 186.49336152 176.01604649 186.47344089 170.97498465 C186.45161192 165.71120064 186.42420815 160.4474458 186.39738464 155.1836853 C186.34741589 145.21063145 186.30249261 135.23756145 186.25936228 125.26447594 C186.20080684 111.7916362 186.13449756 98.3188348 186.0686121 84.84602928 C185.964972 63.61085929 185.87172634 42.37565657 185.77676392 21.14044189 C125.05676392 21.14044189 64.33676392 21.14044189 1.77676392 21.14044189 Z " fill="#0E0E0E" transform="translate(418.2232360839844,199.85955810546875)"/>
<path d="M0 0 C0 54.78 0 109.56 0 166 C10.23 166 20.46 166 31 166 C31 175.57 31 185.14 31 195 C-1.34 195 -33.68 195 -67 195 C-67 185.43 -67 175.86 -67 166 C-55.45 166 -43.9 166 -32 166 C-32.33 125.08 -32.66 84.16 -33 42 C-36.63 45.3 -40.26 48.6 -44 52 C-46.79295117 54.20237119 -49.5664858 56.34871672 -52.4375 58.4375 C-53.11748047 58.93958984 -53.79746094 59.44167969 -54.49804688 59.95898438 C-55.78207248 60.90662791 -57.07002206 61.84898994 -58.36279297 62.78466797 C-59.69210655 63.77144444 -60.96708186 64.83111253 -62.22265625 65.91015625 C-64 67 -64 67 -66.01171875 66.96875 C-68.73660119 65.6411059 -69.98568281 63.91095222 -71.8125 61.5 C-72.49828125 60.60152344 -73.1840625 59.70304687 -73.890625 58.77734375 C-74.58671875 57.86082031 -75.2828125 56.94429688 -76 56 C-76.69609375 55.15566406 -77.3921875 54.31132812 -78.109375 53.44140625 C-78.75390625 52.65636719 -79.3984375 51.87132812 -80.0625 51.0625 C-80.65160156 50.35222656 -81.24070312 49.64195312 -81.84765625 48.91015625 C-82.22792969 48.27980469 -82.60820312 47.64945312 -83 47 C-81.89053342 43.67160026 -81.43427331 43.34169993 -78.640625 41.50390625 C-77.94332275 41.03388184 -77.24602051 40.56385742 -76.52758789 40.07958984 C-75.40018188 39.32863037 -75.40018188 39.32863037 -74.25 38.5625 C-63.0800561 30.90331085 -53.78435482 21.86513203 -44.28515625 12.2578125 C-29.26816687 -2.57948641 -27.60181829 0 0 0 Z " fill="#0D0E0D" transform="translate(537,406)"/>
<path d="M0 0 C0.99 0.33 1.98 0.66 3 1 C2.67 62.71 2.34 124.42 2 188 C1.67 188 1.34 188 1 188 C0.67 125.96 0.34 63.92 0 0 Z " fill="#191819" transform="translate(417,613)"/>
<path d="M0 0 C0 3.69942045 -0.85819127 4.40155392 -3.25 7.125 C-3.85328125 7.82882812 -4.4565625 8.53265625 -5.078125 9.2578125 C-7.10469267 11.09490433 -8.32969429 11.6100881 -11 12 C-7.49102731 7.81576108 -3.91939465 3.80411834 0 0 Z " fill="#2D2D2D" transform="translate(495,416)"/>
</svg>
