<?xml version="1.0" encoding="UTF-8"?>
<svg version="1.1" xmlns="http://www.w3.org/2000/svg" width="1024" height="1024">
<path d="M0 0 C337.92 0 675.84 0 1024 0 C1024 337.92 1024 675.84 1024 1024 C686.08 1024 348.16 1024 0 1024 C0 686.08 0 348.16 0 0 Z " fill="#FEFEFE" transform="translate(0,0)"/>
<path d="M0 0 C0.91201709 -0.00175304 1.82403418 -0.00350607 2.76368815 -0.00531223 C5.83610642 -0.00998397 8.90847762 -0.00750371 11.9808979 -0.00507832 C14.19936732 -0.00694569 16.41783641 -0.0092461 18.63630497 -0.01194364 C24.74554438 -0.01807704 30.85477013 -0.01792624 36.96401191 -0.01674926 C42.87188721 -0.01656655 48.77975776 -0.02105325 54.68763122 -0.02536215 C68.26639424 -0.03503896 81.84515348 -0.03784651 95.42391954 -0.03841921 C105.90858198 -0.03887852 116.39324294 -0.04093567 126.87790489 -0.04411983 C129.89448615 -0.04501736 132.91106741 -0.04590717 135.92764866 -0.04679471 C136.67755019 -0.04701576 137.42745172 -0.04723681 138.20007753 -0.04746456 C159.2965878 -0.05361971 180.39309756 -0.05756502 201.48960876 -0.05712128 C202.68296708 -0.05709791 202.68296708 -0.05709791 203.90043365 -0.05707407 C207.93284729 -0.05699096 211.96526093 -0.05689192 215.99767457 -0.05678936 C216.79854603 -0.05676942 217.59941749 -0.05674947 218.42455778 -0.05672892 C220.04411506 -0.05668848 221.66367234 -0.05664669 223.28322961 -0.05660353 C248.48560959 -0.05599066 273.68797612 -0.06349908 298.89035225 -0.07717609 C327.19595996 -0.09253081 355.50155884 -0.1011427 383.80717099 -0.10021287 C386.82438095 -0.10013824 389.84159092 -0.10008953 392.85880089 -0.10005856 C393.60173138 -0.1000469 394.34466188 -0.10003525 395.11010542 -0.10002324 C407.07447577 -0.09999244 419.03883447 -0.10638284 431.00320135 -0.11499082 C443.02366371 -0.12346041 455.04410898 -0.1244627 467.06457268 -0.1178815 C473.5787472 -0.11460721 480.09287939 -0.11459227 486.60704994 -0.12323475 C492.56683813 -0.13106058 498.52655013 -0.12970862 504.48633637 -0.12095062 C506.64578607 -0.11940696 508.80524134 -0.12126411 510.96468447 -0.12681069 C513.894101 -0.13383839 516.82324785 -0.12860253 519.75265503 -0.12025452 C520.59597454 -0.1252227 521.43929406 -0.13019088 522.30816871 -0.13530961 C527.86212997 -0.10172398 533.34658879 0.1685636 537.97091866 3.58175945 C547.03813249 14.22185733 551.9643094 28.34811291 557.48211861 41.05447674 C559.44346476 45.57078454 561.41677037 50.08186583 563.38888741 54.5934782 C563.78054588 55.49026287 564.17220436 56.38704754 564.57573128 57.3110075 C568.6643182 66.66341748 572.83695441 75.97723903 577.03000069 85.28317547 C577.75679024 86.8966386 577.75679024 86.8966386 578.49826241 88.54269695 C579.11979195 89.91869061 579.11979195 89.91869061 579.75387764 91.32248211 C580.37178169 92.71152752 580.37178169 92.71152752 581.00216866 94.12863445 C581.80871895 95.67152142 581.80871895 95.67152142 582.63156319 97.24557781 C584.75450809 102.25686896 584.45042313 107.48491893 584.43576241 112.8434782 C584.44100426 113.97201717 584.44624611 115.10055614 584.4516468 116.26329327 C584.45805609 118.64946963 584.45674423 121.03567763 584.44821358 123.42184734 C584.43976916 127.02327142 584.46837651 130.62307259 584.50021553 134.22433758 C584.54909155 149.80451528 583.80924925 164.37050271 576.37716866 178.44113445 C576.03943428 179.0964616 575.70169991 179.75178875 575.35373116 180.4269743 C570.42382206 189.54775268 563.03140643 197.88370957 554.00216866 203.12863445 C553.34216866 203.12863445 552.68216866 203.12863445 552.00216866 203.12863445 C552.00216866 328.85863445 552.00216866 454.58863445 552.00216866 584.12863445 C565.86216866 584.12863445 579.72216866 584.12863445 594.00216866 584.12863445 C599.91288294 590.03934874 599.91288294 590.03934874 600.31466866 594.94113445 C600.27370323 598.16569842 600.00651088 599.1215008 598.25216866 602.00363445 C594.73241317 605.32784797 592.07151316 606.37823745 587.24827921 606.38163412 C586.28760495 606.3871536 585.32693069 606.39267309 584.33714509 606.39835984 C583.28247851 606.3942492 582.22781193 606.39013856 581.14118576 606.38590336 C579.45280631 606.39116247 579.45280631 606.39116247 577.73031819 606.39652783 C573.92534847 606.40589692 570.12052997 606.40090432 566.31555367 606.39605999 C563.57338123 606.39868845 560.83121677 606.40431359 558.08904874 606.40979064 C552.10984014 606.42011281 546.13066393 606.42293059 540.1514473 606.42087841 C531.26020838 606.41783418 522.36900544 606.42613952 513.4777735 606.43662766 C496.67589989 606.45599287 479.87403847 606.46159681 463.07215501 606.46274178 C450.09985331 606.46366001 437.12755641 606.46777222 424.15525627 606.47414303 C420.42447802 606.47593805 416.69369976 606.47771767 412.9629215 606.47949278 C412.03550468 606.47993488 411.10808787 606.48037698 410.15256751 606.48083247 C384.05798425 606.49314479 357.96340266 606.5010332 331.86881638 606.50014591 C330.88452968 606.50011475 329.90024298 606.5000836 328.88612941 606.5000515 C323.89707522 606.49988527 318.90802103 606.49968719 313.91896684 606.49948208 C312.92807851 606.49944219 311.93719018 606.4994023 310.91627492 606.4993612 C308.91245668 606.49928033 306.90863843 606.49919673 304.90482019 606.49911042 C273.7211052 606.49788461 242.5374337 606.51290195 211.35373116 606.54025555 C176.33946051 606.57095638 141.32521843 606.58818927 106.31093347 606.5863291 C102.5795265 606.58617983 98.84811954 606.58608243 95.11671257 606.58602047 C94.19790804 606.58599716 93.27910351 606.58597385 92.33245642 606.58594984 C77.52718215 606.58588821 62.72194554 606.59867627 47.91668248 606.615885 C33.04517565 606.63281359 18.17372409 606.63483712 3.30221297 606.62166636 C-5.5393118 606.61425874 -14.38066902 606.61798898 -23.22217614 606.63755104 C-29.12320604 606.6495071 -35.02411396 606.64700899 -40.92513815 606.63261004 C-44.29071228 606.62480962 -47.65569428 606.62558876 -51.0212888 606.63952474 C-54.64288443 606.65353352 -58.26360155 606.64314701 -61.88516617 606.62641239 C-62.93515041 606.63634875 -63.98513466 606.64628511 -65.06693661 606.65652257 C-71.02092361 606.59793954 -74.4840835 606.13339156 -78.99783134 602.12863445 C-81.47144822 598.41820914 -81.54390412 595.4300077 -80.99783134 591.12863445 C-79.31933304 587.26808836 -77.84818735 585.69561205 -73.99783134 584.12863445 C-71.88436699 583.88812542 -71.88436699 583.88812542 -69.59646416 583.90158367 C-68.73587395 583.90173473 -67.87528374 583.9018858 -66.98861504 583.90204144 C-66.06868767 583.91236401 -65.1487603 583.92268658 -64.20095634 583.93332195 C-63.2521862 583.93615185 -62.30341606 583.93898174 -61.32589531 583.94189739 C-58.29974495 583.95307998 -55.27389205 583.97818116 -52.24783134 584.00363445 C-50.19445021 584.01366673 -48.14106442 584.02279215 -46.08767509 584.0309782 C-41.05761281 584.05301305 -36.02777249 584.08752983 -30.99783134 584.12863445 C-30.85072786 535.87207222 -30.76667166 487.61575826 -30.76722966 439.35895971 C-30.76724146 433.66247426 -30.76673101 427.96598898 -30.76589775 422.26950359 C-30.76574064 421.13543077 -30.76558353 420.00135795 -30.76542166 418.83291929 C-30.76163177 400.46744733 -30.7155294 382.10231275 -30.6538032 363.73695458 C-30.59141268 344.89386558 -30.5744619 326.05113125 -30.59973645 307.20795387 C-30.61390045 295.57939007 -30.59257727 283.95200118 -30.52592918 272.32361513 C-30.48362696 264.35070324 -30.48544348 256.37856355 -30.52198461 248.40562619 C-30.54176896 243.80434093 -30.54207191 239.20522089 -30.48999023 234.60414028 C-30.44270631 230.38894419 -30.45098266 226.17759541 -30.5029768 221.96248852 C-30.51203559 220.44011165 -30.50090958 218.91744887 -30.46727833 217.39541657 C-30.26947912 208.64772587 -30.26947912 208.64772587 -34.61874628 201.31735694 C-37.5632343 198.96029806 -40.77975702 197.08906718 -43.99783134 195.12863445 C-49.3694263 190.35501946 -52.95157561 184.88293394 -56.24783134 178.56613445 C-56.72397881 177.67559368 -56.72397881 177.67559368 -57.20974541 176.76706219 C-68.57181151 153.6158071 -69.79387417 115.78025205 -61.5961132 91.71153545 C-58.36269105 83.30455803 -54.20157256 75.34479956 -49.88432121 67.45091534 C-45.15379806 58.77107012 -41.32809233 49.73231979 -37.46090508 40.64343548 C-22.51734243 5.54615872 -22.51734243 5.54615872 -13.99783134 1.12863445 C-9.38044559 -0.16366384 -4.75500505 -0.0115248 0 0 Z " fill="#FEFEFE" transform="translate(251.9978313446045,192.87136554718018)"/>
<path d="M0 0 C0.91201709 -0.00175304 1.82403418 -0.00350607 2.76368815 -0.00531223 C5.83610642 -0.00998397 8.90847762 -0.00750371 11.9808979 -0.00507832 C14.19936732 -0.00694569 16.41783641 -0.0092461 18.63630497 -0.01194364 C24.74554438 -0.01807704 30.85477013 -0.01792624 36.96401191 -0.01674926 C42.87188721 -0.01656655 48.77975776 -0.02105325 54.68763122 -0.02536215 C68.26639424 -0.03503896 81.84515348 -0.03784651 95.42391954 -0.03841921 C105.90858198 -0.03887852 116.39324294 -0.04093567 126.87790489 -0.04411983 C129.89448615 -0.04501736 132.91106741 -0.04590717 135.92764866 -0.04679471 C136.67755019 -0.04701576 137.42745172 -0.04723681 138.20007753 -0.04746456 C159.2965878 -0.05361971 180.39309756 -0.05756502 201.48960876 -0.05712128 C202.68296708 -0.05709791 202.68296708 -0.05709791 203.90043365 -0.05707407 C207.93284729 -0.05699096 211.96526093 -0.05689192 215.99767457 -0.05678936 C216.79854603 -0.05676942 217.59941749 -0.05674947 218.42455778 -0.05672892 C220.04411506 -0.05668848 221.66367234 -0.05664669 223.28322961 -0.05660353 C248.48560959 -0.05599066 273.68797612 -0.06349908 298.89035225 -0.07717609 C327.19595996 -0.09253081 355.50155884 -0.1011427 383.80717099 -0.10021287 C386.82438095 -0.10013824 389.84159092 -0.10008953 392.85880089 -0.10005856 C393.60173138 -0.1000469 394.34466188 -0.10003525 395.11010542 -0.10002324 C407.07447577 -0.09999244 419.03883447 -0.10638284 431.00320135 -0.11499082 C443.02366371 -0.12346041 455.04410898 -0.1244627 467.06457268 -0.1178815 C473.5787472 -0.11460721 480.09287939 -0.11459227 486.60704994 -0.12323475 C492.56683813 -0.13106058 498.52655013 -0.12970862 504.48633637 -0.12095062 C506.64578607 -0.11940696 508.80524134 -0.12126411 510.96468447 -0.12681069 C513.894101 -0.13383839 516.82324785 -0.12860253 519.75265503 -0.12025452 C520.59597454 -0.1252227 521.43929406 -0.13019088 522.30816871 -0.13530961 C527.86212997 -0.10172398 533.34658879 0.1685636 537.97091866 3.58175945 C547.03813249 14.22185733 551.9643094 28.34811291 557.48211861 41.05447674 C559.44346476 45.57078454 561.41677037 50.08186583 563.38888741 54.5934782 C563.78054588 55.49026287 564.17220436 56.38704754 564.57573128 57.3110075 C568.6643182 66.66341748 572.83695441 75.97723903 577.03000069 85.28317547 C577.75679024 86.8966386 577.75679024 86.8966386 578.49826241 88.54269695 C579.11979195 89.91869061 579.11979195 89.91869061 579.75387764 91.32248211 C580.37178169 92.71152752 580.37178169 92.71152752 581.00216866 94.12863445 C581.80871895 95.67152142 581.80871895 95.67152142 582.63156319 97.24557781 C584.75450809 102.25686896 584.45042313 107.48491893 584.43576241 112.8434782 C584.44100426 113.97201717 584.44624611 115.10055614 584.4516468 116.26329327 C584.45805609 118.64946963 584.45674423 121.03567763 584.44821358 123.42184734 C584.43976916 127.02327142 584.46837651 130.62307259 584.50021553 134.22433758 C584.54909155 149.80451528 583.80924925 164.37050271 576.37716866 178.44113445 C576.03943428 179.0964616 575.70169991 179.75178875 575.35373116 180.4269743 C570.42382206 189.54775268 563.03140643 197.88370957 554.00216866 203.12863445 C553.34216866 203.12863445 552.68216866 203.12863445 552.00216866 203.12863445 C552.00216866 328.85863445 552.00216866 454.58863445 552.00216866 584.12863445 C565.86216866 584.12863445 579.72216866 584.12863445 594.00216866 584.12863445 C599.91288294 590.03934874 599.91288294 590.03934874 600.31466866 594.94113445 C600.27370323 598.16569842 600.00651088 599.1215008 598.25216866 602.00363445 C594.73241317 605.32784797 592.07151316 606.37823745 587.24827921 606.38163412 C586.28760495 606.3871536 585.32693069 606.39267309 584.33714509 606.39835984 C583.28247851 606.3942492 582.22781193 606.39013856 581.14118576 606.38590336 C579.45280631 606.39116247 579.45280631 606.39116247 577.73031819 606.39652783 C573.92534847 606.40589692 570.12052997 606.40090432 566.31555367 606.39605999 C563.57338123 606.39868845 560.83121677 606.40431359 558.08904874 606.40979064 C552.10984014 606.42011281 546.13066393 606.42293059 540.1514473 606.42087841 C531.26020838 606.41783418 522.36900544 606.42613952 513.4777735 606.43662766 C496.67589989 606.45599287 479.87403847 606.46159681 463.07215501 606.46274178 C450.09985331 606.46366001 437.12755641 606.46777222 424.15525627 606.47414303 C420.42447802 606.47593805 416.69369976 606.47771767 412.9629215 606.47949278 C412.03550468 606.47993488 411.10808787 606.48037698 410.15256751 606.48083247 C384.05798425 606.49314479 357.96340266 606.5010332 331.86881638 606.50014591 C330.88452968 606.50011475 329.90024298 606.5000836 328.88612941 606.5000515 C323.89707522 606.49988527 318.90802103 606.49968719 313.91896684 606.49948208 C312.92807851 606.49944219 311.93719018 606.4994023 310.91627492 606.4993612 C308.91245668 606.49928033 306.90863843 606.49919673 304.90482019 606.49911042 C273.7211052 606.49788461 242.5374337 606.51290195 211.35373116 606.54025555 C176.33946051 606.57095638 141.32521843 606.58818927 106.31093347 606.5863291 C102.5795265 606.58617983 98.84811954 606.58608243 95.11671257 606.58602047 C94.19790804 606.58599716 93.27910351 606.58597385 92.33245642 606.58594984 C77.52718215 606.58588821 62.72194554 606.59867627 47.91668248 606.615885 C33.04517565 606.63281359 18.17372409 606.63483712 3.30221297 606.62166636 C-5.5393118 606.61425874 -14.38066902 606.61798898 -23.22217614 606.63755104 C-29.12320604 606.6495071 -35.02411396 606.64700899 -40.92513815 606.63261004 C-44.29071228 606.62480962 -47.65569428 606.62558876 -51.0212888 606.63952474 C-54.64288443 606.65353352 -58.26360155 606.64314701 -61.88516617 606.62641239 C-62.93515041 606.63634875 -63.98513466 606.64628511 -65.06693661 606.65652257 C-71.02092361 606.59793954 -74.4840835 606.13339156 -78.99783134 602.12863445 C-81.47144822 598.41820914 -81.54390412 595.4300077 -80.99783134 591.12863445 C-79.31933304 587.26808836 -77.84818735 585.69561205 -73.99783134 584.12863445 C-71.88436699 583.88812542 -71.88436699 583.88812542 -69.59646416 583.90158367 C-68.73587395 583.90173473 -67.87528374 583.9018858 -66.98861504 583.90204144 C-66.06868767 583.91236401 -65.1487603 583.92268658 -64.20095634 583.93332195 C-63.2521862 583.93615185 -62.30341606 583.93898174 -61.32589531 583.94189739 C-58.29974495 583.95307998 -55.27389205 583.97818116 -52.24783134 584.00363445 C-50.19445021 584.01366673 -48.14106442 584.02279215 -46.08767509 584.0309782 C-41.05761281 584.05301305 -36.02777249 584.08752983 -30.99783134 584.12863445 C-30.85072786 535.87207222 -30.76667166 487.61575826 -30.76722966 439.35895971 C-30.76724146 433.66247426 -30.76673101 427.96598898 -30.76589775 422.26950359 C-30.76574064 421.13543077 -30.76558353 420.00135795 -30.76542166 418.83291929 C-30.76163177 400.46744733 -30.7155294 382.10231275 -30.6538032 363.73695458 C-30.59141268 344.89386558 -30.5744619 326.05113125 -30.59973645 307.20795387 C-30.61390045 295.57939007 -30.59257727 283.95200118 -30.52592918 272.32361513 C-30.48362696 264.35070324 -30.48544348 256.37856355 -30.52198461 248.40562619 C-30.54176896 243.80434093 -30.54207191 239.20522089 -30.48999023 234.60414028 C-30.44270631 230.38894419 -30.45098266 226.17759541 -30.5029768 221.96248852 C-30.51203559 220.44011165 -30.50090958 218.91744887 -30.46727833 217.39541657 C-30.26947912 208.64772587 -30.26947912 208.64772587 -34.61874628 201.31735694 C-37.5632343 198.96029806 -40.77975702 197.08906718 -43.99783134 195.12863445 C-49.3694263 190.35501946 -52.95157561 184.88293394 -56.24783134 178.56613445 C-56.72397881 177.67559368 -56.72397881 177.67559368 -57.20974541 176.76706219 C-68.57181151 153.6158071 -69.79387417 115.78025205 -61.5961132 91.71153545 C-58.36269105 83.30455803 -54.20157256 75.34479956 -49.88432121 67.45091534 C-45.15379806 58.77107012 -41.32809233 49.73231979 -37.46090508 40.64343548 C-22.51734243 5.54615872 -22.51734243 5.54615872 -13.99783134 1.12863445 C-9.38044559 -0.16366384 -4.75500505 -0.0115248 0 0 Z M322.00216866 180.12863445 C321.02938928 181.52500922 320.06192626 182.9254069 319.12252998 184.34445477 C308.47159545 200.40988914 293.75216406 211.60525144 274.6274128 215.70749187 C260.06395517 218.04376681 244.4056301 217.4750927 231.00216866 211.12863445 C229.33541084 210.38420086 229.33541084 210.38420086 227.63498116 209.6247282 C214.81491996 203.36552185 205.76105679 193.92670847 198.00216866 182.12863445 C195.3282287 184.70418268 193.05389201 187.31356882 190.87716866 190.31613445 C180.42180846 203.84136637 164.93351451 213.19831093 148.00216866 216.12863445 C126.30339286 217.78976596 107.52778448 214.33061443 90.06466866 200.87863445 C85.21102284 196.67653385 81.5488028 191.95417641 77.87716866 186.73019695 C76.36058481 184.62593687 74.90316375 182.8751737 73.00216866 181.12863445 C72.57806709 181.75769695 72.15396553 182.38675945 71.71701241 183.03488445 C60.42226059 199.51777501 46.47122452 211.09006028 26.59543037 215.51779461 C20.74062859 216.51308704 14.98765994 216.48469809 9.06466866 216.37863445 C7.885821 216.3734782 6.70697334 216.36832195 5.49240303 216.36300945 C0.12824694 216.3144925 -4.6704087 216.01653823 -9.99783134 215.12863445 C-9.99783134 336.89863445 -9.99783134 458.66863445 -9.99783134 584.12863445 C168.20216866 584.12863445 346.40216866 584.12863445 530.00216866 584.12863445 C530.00216866 462.35863445 530.00216866 340.58863445 530.00216866 215.12863445 C527.69216866 215.45863445 525.38216866 215.78863445 523.00216866 216.12863445 C494.81378626 217.75549142 494.81378626 217.75549142 483.00216866 212.12863445 C482.41612862 211.86550457 481.83008858 211.60237469 481.22628975 211.33127117 C468.35841584 205.48764917 457.81197985 197.04000116 450.00216866 185.12863445 C449.34216866 184.13863445 448.68216866 183.14863445 448.00216866 182.12863445 C447.34216866 182.12863445 446.68216866 182.12863445 446.00216866 182.12863445 C444.73295253 183.74941749 443.53714244 185.42795575 442.37716866 187.12863445 C431.89202578 201.77038755 417.39149712 211.89711317 399.6274128 215.70749187 C385.06187668 218.04410024 369.41398206 217.46386289 356.00216866 211.12863445 C354.55584053 210.4944157 354.55584053 210.4944157 353.08029366 209.84738445 C340.2389438 203.60808452 330.08809351 192.3321717 323.00216866 180.12863445 C322.67216866 180.12863445 322.34216866 180.12863445 322.00216866 180.12863445 Z " fill="#080808" transform="translate(251.9978313446045,192.87136554718018)"/>
<path d="M0 0 C174.9 0 349.8 0 530 0 C549.65850515 44.2316366 549.65850515 44.2316366 553.18847656 52.27783203 C553.75654373 53.57085134 554.32635088 54.86310697 554.89746094 56.15478516 C555.76847287 58.12510978 556.63481498 60.09742365 557.5 62.0703125 C557.9846875 63.17133301 558.469375 64.27235352 558.96875 65.40673828 C560 68 560 68 560 70 C364.97 70 169.94 70 -31 70 C-22.95140375 50.4534091 -22.95140375 50.4534091 -19.58984375 43.046875 C-19.21444962 42.21391907 -18.83905548 41.38096313 -18.45228577 40.52276611 C-17.28326457 37.93067265 -16.11042024 35.34033103 -14.9375 32.75 C-14.15275383 31.01052536 -13.36824785 29.27094233 -12.58398438 27.53125 C-8.43291363 18.33335883 -4.22904413 9.16292895 0 0 Z " fill="#FEFEFE" transform="translate(247,215)"/>
<path d="M0 0 C19.14 0 38.28 0 58 0 C58.03867187 7.70923828 58.03867187 7.70923828 58.078125 15.57421875 C58.10329551 18.83273201 58.12962976 22.09115264 58.16015625 25.34960938 C58.20848461 30.52010435 58.25253149 35.69038488 58.27099609 40.86108398 C58.28615494 45.03049624 58.32058611 49.19934705 58.36830902 53.36850929 C58.38313091 54.95803761 58.39104148 56.54764608 58.39188385 58.13724327 C58.39425298 60.366435 58.42132445 62.59407439 58.45410156 64.82299805 C58.46298401 66.09096725 58.47186646 67.35893646 58.48101807 68.66532898 C59.08807663 72.56592833 60.25140882 74.22110026 63 77 C65.93301912 78.46650956 68.56154861 78.16538474 71.83642578 78.20532227 C72.89024948 78.22017166 72.89024948 78.22017166 73.96536255 78.23532104 C76.29197803 78.2669568 78.61861394 78.29170159 80.9453125 78.31640625 C82.55671729 78.33697399 84.16811666 78.35797042 85.7795105 78.37937927 C90.02422706 78.43461854 94.26899247 78.48401961 98.51379395 78.53222656 C103.60495862 78.5912518 108.69603389 78.65748996 113.78712463 78.72252655 C121.52469523 78.82055942 129.26232272 78.90939939 137 79 C137 98.47 137 117.94 137 138 C131.86050781 138.03738281 126.72101563 138.07476563 121.42578125 138.11328125 C118.16728434 138.14356198 114.908842 138.17471042 111.65039062 138.20898438 C106.47992716 138.26328715 101.30957162 138.3143979 96.13891602 138.34643555 C91.96957836 138.37247016 87.80060359 138.41287344 83.63149071 138.46318626 C82.04195868 138.47985396 80.45236388 138.49136886 78.86275673 138.49761391 C76.63378606 138.50725634 74.40574352 138.53531548 72.17700195 138.56762695 C70.90903275 138.57873001 69.64106354 138.58983307 68.33467102 138.60127258 C64.75976916 139.02872446 62.8527648 139.8435257 60 142 C58.53349044 144.93301912 58.83461526 147.56154861 58.79467773 150.83642578 C58.78477814 151.53897491 58.77487854 152.24152405 58.76467896 152.96536255 C58.7330432 155.29197803 58.70829841 157.61861394 58.68359375 159.9453125 C58.66302601 161.55671729 58.64202958 163.16811666 58.62062073 164.7795105 C58.56538146 169.02422706 58.51598039 173.26899247 58.46777344 177.51379395 C58.4087482 182.60495862 58.34251004 187.69603389 58.27747345 192.78712463 C58.17944058 200.52469523 58.09060061 208.26232272 58 216 C38.86 216 19.72 216 0 216 C-0.02578125 210.84890625 -0.0515625 205.6978125 -0.078125 200.390625 C-0.10329125 197.12755433 -0.12962218 193.86457656 -0.16015625 190.6015625 C-0.20851165 185.42219689 -0.25254824 180.24304629 -0.27099609 175.06347656 C-0.28613899 170.88758467 -0.32054162 166.71225516 -0.36830902 162.53661346 C-0.38314741 160.94346759 -0.39104243 159.35024143 -0.39188385 157.75702667 C-0.39424803 155.52523327 -0.42127938 153.29500104 -0.45410156 151.06347656 C-0.46298401 149.79328674 -0.47186646 148.52309692 -0.48101807 147.2144165 C-1.08871289 143.45053929 -2.02998821 142.30261095 -5 140 C-7.93301912 138.53349044 -10.56154861 138.83461526 -13.83642578 138.79467773 C-14.53897491 138.78477814 -15.24152405 138.77487854 -15.96536255 138.76467896 C-18.29197803 138.7330432 -20.61861394 138.70829841 -22.9453125 138.68359375 C-24.55671729 138.66302601 -26.16811666 138.64202958 -27.7795105 138.62062073 C-32.02422706 138.56538146 -36.26899247 138.51598039 -40.51379395 138.46777344 C-45.60495862 138.4087482 -50.69603389 138.34251004 -55.78712463 138.27747345 C-63.52469523 138.17944058 -71.26232272 138.09060061 -79 138 C-79 118.53 -79 99.06 -79 79 C-73.86050781 78.97421875 -68.72101563 78.9484375 -63.42578125 78.921875 C-60.16726799 78.89670449 -56.90884736 78.87037024 -53.65039062 78.83984375 C-48.47989565 78.79151539 -43.30961512 78.74746851 -38.13891602 78.72900391 C-33.96950376 78.71384506 -29.80065295 78.67941389 -25.63149071 78.63169098 C-24.04196239 78.61686909 -22.45235392 78.60895852 -20.86275673 78.60811615 C-18.633565 78.60574702 -16.40592561 78.57867555 -14.17700195 78.54589844 C-12.27504814 78.53257477 -12.27504814 78.53257477 -10.33467102 78.51898193 C-6.43407167 77.91192337 -4.77889974 76.74859118 -2 74 C-0.53349044 71.06698088 -0.83461526 68.43845139 -0.79467773 65.16357422 C-0.78477814 64.46102509 -0.77487854 63.75847595 -0.76467896 63.03463745 C-0.7330432 60.70802197 -0.70829841 58.38138606 -0.68359375 56.0546875 C-0.66302601 54.44328271 -0.64202958 52.83188334 -0.62062073 51.2204895 C-0.56538146 46.97577294 -0.51598039 42.73100753 -0.46777344 38.48620605 C-0.4087482 33.39504138 -0.34251004 28.30396611 -0.27747345 23.21287537 C-0.17944058 15.47530477 -0.09060061 7.73767728 0 0 Z " fill="#FEFEFE" transform="translate(483,479)"/>
<path d="M0 0 C0.81010025 -0.0049649 1.6202005 -0.00992981 2.45484924 -0.01504517 C5.13681893 -0.02965865 7.81872945 -0.03646765 10.50073242 -0.04199219 C12.36537172 -0.04774458 14.230011 -0.0535023 16.09465027 -0.05926514 C20.00613684 -0.06977299 23.91760286 -0.07561698 27.82910156 -0.07910156 C32.83606337 -0.08458397 37.84275293 -0.1086075 42.8496294 -0.13707352 C46.70241585 -0.15571722 50.55513696 -0.16090643 54.40796471 -0.16243744 C56.2535113 -0.16546089 58.09905683 -0.17347904 59.9445591 -0.18662262 C62.52965497 -0.20371838 65.11408895 -0.20179428 67.69921875 -0.1953125 C68.458396 -0.20452728 69.21757324 -0.21374207 69.99975586 -0.22323608 C74.75931428 -0.18593954 78.0751228 0.49619758 82.04370117 3.16113281 C85.26901254 7.06668394 85.41076053 10.27632746 85.38427734 15.24633789 C85.38471542 15.93957153 85.3851535 16.63280518 85.38560486 17.3470459 C85.38352447 19.62521092 85.36023011 21.90262853 85.33666992 24.18066406 C85.33107127 25.76535134 85.32680244 27.35004382 85.32380676 28.93473816 C85.31237911 33.09575865 85.28293009 37.25646256 85.24969482 41.4173584 C85.21894892 45.66719277 85.20529179 49.91707854 85.19018555 54.16699219 C85.15805816 62.49851731 85.10688727 70.82978562 85.04370117 79.16113281 C85.92209152 79.15447098 86.80048187 79.14780914 87.70549011 79.14094543 C95.98909238 79.08079976 104.27262117 79.03514081 112.55639172 79.0056963 C116.81503309 78.99004959 121.07349383 78.96882964 125.33203125 78.93481445 C129.44283635 78.90218529 133.55346785 78.88427231 137.66439247 78.87650108 C139.23166956 78.87096394 140.79893731 78.86015117 142.36614037 78.84394264 C144.5638001 78.82212053 146.7607452 78.8191678 148.95849609 78.82055664 C150.20870041 78.81389481 151.45890472 78.80723297 152.74699402 78.80036926 C157.42835268 79.31265728 159.84787426 80.71284573 162.83094788 84.32569885 C164.43371721 88.0729957 164.47096637 91.52275736 164.44775391 95.52807617 C164.45804878 96.77292534 164.45804878 96.77292534 164.46855164 98.04292297 C164.48681378 100.77911617 164.48298298 103.51473565 164.47729492 106.25097656 C164.48185706 108.15759975 164.48716273 110.0642213 164.49317932 111.97084045 C164.50210931 115.96459641 164.49968861 119.95815238 164.48974609 123.9519043 C164.47825751 129.06432423 164.49846679 134.17605335 164.52766323 139.28838253 C164.54602892 143.22526926 164.54573201 147.16199056 164.54002571 151.09890938 C164.53987254 152.98352591 164.54591368 154.86815369 164.55831718 156.75272942 C164.57323215 159.39052256 164.56254683 162.02704106 164.54541016 164.66479492 C164.55507813 165.43953156 164.56474609 166.21426819 164.57470703 167.01248169 C164.50427517 172.20233264 163.41527657 175.21917611 160.04370117 179.16113281 C156.64470541 181.71057974 153.21820357 181.40288637 149.07202148 181.38818359 C148.37893387 181.38847565 147.68584625 181.3887677 146.97175598 181.3890686 C144.68831725 181.38767889 142.40520767 181.37213487 140.12182617 181.35644531 C138.53570738 181.3527139 136.94958628 181.34986753 135.36346436 181.34786987 C131.19429124 181.34024349 127.02525807 181.32060359 122.85614014 181.29846191 C118.59966932 181.27798203 114.34317583 181.26886358 110.08666992 181.25878906 C101.73894954 181.23735672 93.39134278 181.20323283 85.04370117 181.16113281 C85.05258362 182.02477448 85.06146606 182.88841614 85.07061768 183.77822876 C85.15086456 191.92904862 85.21171682 200.07973522 85.25094986 208.23085976 C85.27179835 212.42116819 85.30006533 216.6111494 85.34545898 220.80126953 C85.38901537 224.84725523 85.41285887 228.89292676 85.42321014 232.93912888 C85.43058404 234.48048216 85.44498374 236.02181883 85.4666214 237.56303787 C85.49578728 239.72713217 85.49965193 241.88993907 85.49780273 244.05419922 C85.50668518 245.28441803 85.51556763 246.51463684 85.52471924 247.78213501 C84.80691764 252.82446125 82.69649971 255.79539543 78.80516052 259.01087952 C75.14413426 260.53583679 71.76097885 260.58834897 67.86035156 260.56518555 C66.64476311 260.57548042 66.64476311 260.57548042 65.40461731 260.58598328 C62.73335101 260.60424197 60.06267256 260.60041513 57.39135742 260.59472656 C55.52957468 260.59928887 53.66779363 260.60459459 51.80601501 260.61061096 C47.90641432 260.61954028 44.00701843 260.61712105 40.10742188 260.60717773 C35.11606394 260.59568933 30.12541359 260.61589842 25.1341486 260.64509487 C21.28990709 260.66346252 17.44583497 260.66316327 13.60156059 260.65745735 C11.76160121 260.6573042 9.92163029 260.66334342 8.08171272 260.67574883 C5.50617527 260.69066757 2.93194262 260.6799759 0.35644531 260.6628418 C-0.39958984 260.67250977 -1.155625 260.68217773 -1.93457031 260.69213867 C-7.07323278 260.62074348 -10.05032862 259.48721567 -13.95629883 256.16113281 C-16.50574576 252.76213705 -16.19805238 249.33563521 -16.18334961 245.18945312 C-16.18364166 244.49636551 -16.18393372 243.80327789 -16.18423462 243.08918762 C-16.18284491 240.80574889 -16.16730089 238.52263932 -16.15161133 236.23925781 C-16.14787992 234.65313902 -16.14503355 233.06701792 -16.14303589 231.480896 C-16.13540951 227.31172288 -16.11576961 223.14268971 -16.09362793 218.97357178 C-16.07314804 214.71710096 -16.06402959 210.46060748 -16.05395508 206.20410156 C-16.03252274 197.85638118 -15.99839885 189.50877442 -15.95629883 181.16113281 C-16.85974533 181.17223587 -17.76319183 181.18333893 -18.6940155 181.19477844 C-27.21302241 181.29501229 -35.73183095 181.37111393 -44.25129223 181.42019367 C-48.63116319 181.44627469 -53.01054645 181.48164462 -57.39013672 181.53833008 C-61.61768185 181.59270444 -65.84475826 181.62256461 -70.07262611 181.63551903 C-71.68460786 181.64474929 -73.29656428 181.6627744 -74.90834618 181.6897831 C-77.16862547 181.72614828 -79.42697468 181.73107545 -81.6875 181.72875977 C-82.9732341 181.73986282 -84.2589682 181.75096588 -85.58366394 181.7624054 C-90.51580838 180.8831038 -92.42949141 178.29401218 -95.25064087 174.35299683 C-96.33864333 170.97352182 -96.25100778 167.60525332 -96.24682617 164.09130859 C-96.2535434 163.28106232 -96.26026062 162.47081604 -96.2671814 161.63601685 C-96.28616787 158.95943049 -96.29008591 156.2830948 -96.29223633 153.60644531 C-96.29866382 151.74323422 -96.30539214 149.88002415 -96.31240845 148.01681519 C-96.32438284 144.11128398 -96.3280891 140.20584124 -96.3269043 136.30029297 C-96.3267011 131.30109174 -96.35400303 126.30245895 -96.38844872 121.30339241 C-96.41070999 117.4548788 -96.41474207 113.60650216 -96.41368484 109.75793076 C-96.41604197 107.91517045 -96.42487182 106.07240644 -96.44034958 104.22970963 C-96.45999408 101.64931939 -96.45417801 99.07015703 -96.44213867 96.48974609 C-96.45899719 95.35333679 -96.45899719 95.35333679 -96.47619629 94.19396973 C-96.40325708 88.02723522 -94.36960661 84.63473053 -90.14776611 80.30741882 C-86.99941942 78.66061999 -84.43447651 78.80198153 -80.89282227 78.82055664 C-80.18998108 78.82011856 -79.48713989 78.81968048 -78.76300049 78.81922913 C-76.44693934 78.82131407 -74.13160803 78.84463022 -71.81567383 78.86816406 C-70.207137 78.87376109 -68.59859505 78.87803068 -66.99005127 78.88102722 C-62.76161517 78.89246768 -58.53348946 78.92192781 -54.30517578 78.95513916 C-49.98840534 78.98585737 -45.67158462 78.99953629 -41.35473633 79.01464844 C-32.88844825 79.04679843 -24.42241218 79.09798492 -15.95629883 79.16113281 C-15.96740189 78.272435 -15.97850494 77.38373718 -15.98994446 76.46810913 C-16.09024241 68.08186053 -16.16631245 59.69581414 -16.21535969 51.30910301 C-16.24142358 46.99763725 -16.27676197 42.68666819 -16.33349609 38.37548828 C-16.38793189 34.21277632 -16.4177435 30.05054127 -16.43068504 25.88750076 C-16.43990432 24.30146402 -16.45790798 22.7154526 -16.48494911 21.1296196 C-16.52139629 18.90306516 -16.5262381 16.67846621 -16.52392578 14.45166016 C-16.53502884 13.18591156 -16.5461319 11.92016296 -16.55757141 10.61605835 C-15.75661815 6.01376322 -14.26617047 4.41461572 -10.95629883 1.16113281 C-7.2645149 -0.06946183 -3.84509938 0.00561683 0 0 Z M5.04370117 22.16113281 C5.01791992 27.300625 4.99213867 32.44011719 4.96557617 37.73535156 C4.94040566 40.99386483 4.91407141 44.25228545 4.88354492 47.51074219 C4.83521656 52.68123716 4.79116968 57.85151769 4.77270508 63.0222168 C4.75754623 67.19162906 4.72311506 71.36047986 4.67539215 75.52964211 C4.66057026 77.11917042 4.65265969 78.70877889 4.65181732 80.29837608 C4.64944819 82.52756781 4.62237672 84.7552072 4.58959961 86.98413086 C4.57627594 88.88608467 4.57627594 88.88608467 4.56268311 90.82646179 C3.95562454 94.72706114 2.79229235 96.38223308 0.04370117 99.16113281 C-2.88931794 100.62764237 -5.51784744 100.32651755 -8.79272461 100.36645508 C-9.49527374 100.37635468 -10.19782288 100.38625427 -10.92166138 100.39645386 C-13.24827686 100.42808961 -15.57491277 100.4528344 -17.90161133 100.47753906 C-19.51301612 100.49810681 -21.12441549 100.51910323 -22.73580933 100.54051208 C-26.98052589 100.59575135 -31.22529129 100.64515242 -35.47009277 100.69335938 C-40.56125745 100.75238461 -45.65233271 100.81862277 -50.74342346 100.88365936 C-58.48099406 100.98169223 -66.21862155 101.07053221 -73.95629883 101.16113281 C-73.95629883 120.63113281 -73.95629883 140.10113281 -73.95629883 160.16113281 C-68.81680664 160.19851563 -63.67731445 160.23589844 -58.38208008 160.27441406 C-55.12358317 160.3046948 -51.86514083 160.33584323 -48.60668945 160.37011719 C-43.43622599 160.42441996 -38.26587045 160.47553072 -33.09521484 160.50756836 C-28.92587719 160.53360298 -24.75690242 160.57400626 -20.58778954 160.62431908 C-18.9982575 160.64098677 -17.40866271 160.65250167 -15.81905556 160.65874672 C-13.59008488 160.66838915 -11.36204235 160.69644829 -9.13330078 160.72875977 C-7.23134697 160.74541435 -7.23134697 160.74541435 -5.29096985 160.7624054 C-1.71606799 161.18985727 0.19093637 162.00465851 3.04370117 164.16113281 C4.51021073 167.09415193 4.20908591 169.72268142 4.24902344 172.99755859 C4.25892303 173.70010773 4.26882263 174.40265686 4.27902222 175.12649536 C4.31065797 177.45311084 4.33540276 179.77974675 4.36010742 182.10644531 C4.38067516 183.7178501 4.40167159 185.32924948 4.42308044 186.94064331 C4.47831971 191.18535988 4.52772078 195.43012528 4.57592773 199.67492676 C4.63495297 204.76609143 4.70119113 209.8571667 4.76622772 214.94825745 C4.86426059 222.68582804 4.95310057 230.42345553 5.04370117 238.16113281 C24.18370117 238.16113281 43.32370117 238.16113281 63.04370117 238.16113281 C63.06948242 233.01003906 63.09526367 227.85894531 63.12182617 222.55175781 C63.14699242 219.28868714 63.17332336 216.02570937 63.20385742 212.76269531 C63.25221282 207.5833297 63.29624942 202.4041791 63.31469727 197.22460938 C63.32984017 193.04871749 63.36424279 188.87338797 63.41201019 184.69774628 C63.42684858 183.1046004 63.4347436 181.51137424 63.43558502 179.91815948 C63.4379492 177.68636608 63.46498056 175.45613385 63.49780273 173.22460938 C63.50668518 171.95441956 63.51556763 170.68422974 63.52471924 169.37554932 C64.13241406 165.6116721 65.07368938 164.46374376 68.04370117 162.16113281 C70.97672029 160.69462325 73.60524978 160.99574807 76.88012695 160.95581055 C77.58267609 160.94591095 78.28522522 160.93601135 79.00906372 160.92581177 C81.3356792 160.89417601 83.66231511 160.86943122 85.98901367 160.84472656 C87.60041846 160.82415882 89.21181783 160.8031624 90.82321167 160.78175354 C95.06792823 160.72651427 99.31269364 160.6771132 103.55749512 160.62890625 C108.64865979 160.56988101 113.73973506 160.50364285 118.83082581 160.43860626 C126.5683964 160.34057339 134.30602389 160.25173342 142.04370117 160.16113281 C142.04370117 140.69113281 142.04370117 121.22113281 142.04370117 101.16113281 C136.90420898 101.13535156 131.7647168 101.10957031 126.46948242 101.08300781 C123.21096916 101.0578373 119.95254853 101.03150305 116.6940918 101.00097656 C111.52359682 100.9526482 106.35331629 100.90860132 101.18261719 100.89013672 C97.01320493 100.87497787 92.84435412 100.8405467 88.67519188 100.79282379 C87.08566357 100.7780019 85.49605509 100.77009133 83.9064579 100.76924896 C81.67726617 100.76687983 79.44962678 100.73980837 77.22070312 100.70703125 C75.95273392 100.6981488 74.68476471 100.68926636 73.37837219 100.68011475 C69.47777284 100.07305618 67.82260091 98.90972399 65.04370117 96.16113281 C63.57719161 93.2281137 63.87831643 90.5995842 63.83837891 87.32470703 C63.82847931 86.6221579 63.81857971 85.91960876 63.80838013 85.19577026 C63.77674437 82.86915478 63.75199958 80.54251887 63.72729492 78.21582031 C63.70672718 76.60441552 63.68573076 74.99301615 63.6643219 73.38162231 C63.60908263 69.13690575 63.55968156 64.89214035 63.51147461 60.64733887 C63.45244937 55.55617419 63.38621121 50.46509893 63.32117462 45.37400818 C63.22314175 37.63643758 63.13430178 29.89881009 63.04370117 22.16113281 C43.90370117 22.16113281 24.76370117 22.16113281 5.04370117 22.16113281 Z " fill="#080808" transform="translate(477.956298828125,456.8388671875)"/>
<path d="M0 0 C34.98 0 69.96 0 106 0 C106 49.16768916 106 49.16768916 92 65 C91.37996094 65.70253906 90.75992188 66.40507812 90.12109375 67.12890625 C81.36806821 76.44778395 70.23698235 82.19591013 57.41015625 83.3125 C41.87442056 83.58239335 28.78227381 79.41645549 17 69.125 C6.4203713 58.82500906 2.86911824 48.34559121 0 34 C0 22.78 0 11.56 0 0 Z " fill="#FBFBFB" transform="translate(209,306)"/>
<path d="M0 0 C34.32 0 68.64 0 104 0 C104 51.97043478 104 51.97043478 87 69 C86.43410156 69.5775 85.86820313 70.155 85.28515625 70.75 C74.77550449 80.61725251 61.80038615 83.54585656 47.84375 83.30859375 C34.02191445 82.19891386 22.48618565 75.46292169 13.06640625 65.50390625 C-2.97221216 46.06958791 0 25.45379324 0 0 Z " fill="#FCFCFC" transform="translate(710,306)"/>
<path d="M0 0 C33.99 0 67.98 0 103 0 C103 52.79388084 103 52.79388084 87 69 C79.69973178 75.01587433 72.1805734 79.42514803 63 82 C62.39285156 82.18949219 61.78570313 82.37898438 61.16015625 82.57421875 C47.78252434 85.21103951 34.82094674 82.09925531 23.4453125 74.8203125 C11.66859433 66.05361814 4.64089926 55.13415766 1 41 C-0.93333333 27.46666667 0 13.6707311 0 0 Z " fill="#FCFCFC" transform="translate(585,306)"/>
<path d="M0 0 C33.99 0 67.98 0 103 0 C103 51.40178571 103 51.40178571 86.6875 68.75 C76.71520883 78.2690052 64.75358333 83.03895161 50.9375 83.5 C35.84681087 82.99303396 23.62469396 76.54341035 13.328125 65.77734375 C-3.40780682 45.81216334 0 26.40215781 0 0 Z " fill="#FCFCFC" transform="translate(460,306)"/>
<path d="M0 0 C33.66 0 67.32 0 102 0 C102 52.57010135 102 52.57010135 85.7109375 69.51953125 C74.84229564 79.46418194 62.76275966 83.39076341 48.21484375 83.2109375 C34.46012436 82.30844072 22.31426572 76.08333353 13 66 C-3.28872646 46.26501495 0 25.18242812 0 0 Z " fill="#FCFCFC" transform="translate(336,306)"/>
<path d="M0 0 C4.82034262 0.41317222 6.90992611 2.38019915 10 6 C10 6.66 10 7.32 10 8 C9.01 7.67 8.02 7.34 7 7 C7 6.01 7 5.02 7 4 C6.21625 3.896875 5.4325 3.79375 4.625 3.6875 C2 3 2 3 0 0 Z " fill="#141414" transform="translate(473,617)"/>
<path d="M0 0 C2.64 0.99 5.28 1.98 8 3 C8 3.66 8 4.32 8 5 C8.99 5.33 9.98 5.66 11 6 C10.67 6.66 10.34 7.32 10 8 C8.51478323 7.24088921 7.03696575 6.46728766 5.5625 5.6875 C4.73878906 5.25824219 3.91507812 4.82898438 3.06640625 4.38671875 C1 3 1 3 0 0 Z " fill="#0E0E0E" transform="translate(349,397)"/>
<path d="M0 0 C-1.22053859 3.66161578 -2.36782304 4.16270474 -5.5625 6.1875 C-6.38878906 6.71730469 -7.21507812 7.24710937 -8.06640625 7.79296875 C-8.70449219 8.19128906 -9.34257812 8.58960938 -10 9 C-10 8.01 -10 7.02 -10 6 C-8.3203125 4.39453125 -8.3203125 4.39453125 -6.125 2.8125 C-5.04605469 2.01779297 -5.04605469 2.01779297 -3.9453125 1.20703125 C-2 0 -2 0 0 0 Z " fill="#111111" transform="translate(434,392)"/>
<path d="M0 0 C0.33 0.99 0.66 1.98 1 3 C1.99 3.33 2.98 3.66 4 4 C4.6875 6.0625 4.6875 6.0625 5 8 C0.22753346 5.55258126 0.22753346 5.55258126 -0.875 2.875 C-0.91625 2.25625 -0.9575 1.6375 -1 1 C-0.67 0.67 -0.34 0.34 0 0 Z " fill="#101010" transform="translate(464,708)"/>
<path d="M0 0 C3.3 0 6.6 0 10 0 C9.01 0.495 9.01 0.495 8 1 C8 1.66 8 2.32 8 3 C5.36 2.67 2.72 2.34 0 2 C0 1.34 0 0.68 0 0 Z " fill="#202020" transform="translate(619,407)"/>
<path d="M0 0 C-1.17744585 3.53233755 -1.95605641 3.86308075 -5.0625 5.6875 C-5.79597656 6.12449219 -6.52945313 6.56148438 -7.28515625 7.01171875 C-7.85105469 7.33785156 -8.41695312 7.66398437 -9 8 C-7.25975373 4.16501285 -4.63701127 0 0 0 Z " fill="#101010" transform="translate(683,392)"/>
<path d="M0 0 C2.97 0.99 5.94 1.98 9 3 C8.67 3.99 8.34 4.98 8 6 C5.36 4.68 2.72 3.36 0 2 C0 1.34 0 0.68 0 0 Z " fill="#141515" transform="translate(363,383)"/>
<path d="M0 0 C0.66 0.33 1.32 0.66 2 1 C1.67 2.98 1.34 4.96 1 7 C0.34 7 -0.32 7 -1 7 C-1.66 8.32 -2.32 9.64 -3 11 C-3 8.04725901 -2.56108169 6.50941597 -1.5 3.8125 C-1.2215625 3.09707031 -0.943125 2.38164062 -0.65625 1.64453125 C-0.33140625 0.83048828 -0.33140625 0.83048828 0 0 Z " fill="#161616" transform="translate(560,352)"/>
<path d="M0 0 C0.66 0.33 1.32 0.66 2 1 C1.34 2.32 0.68 3.64 0 5 C-0.99 5 -1.98 5 -3 5 C-3.33 5.99 -3.66 6.98 -4 8 C-4.33 7.34 -4.66 6.68 -5 6 C-3.35 4.02 -1.7 2.04 0 0 Z " fill="#111111" transform="translate(467,458)"/>
</svg>
