<?xml version="1.0" encoding="UTF-8"?>
<svg version="1.1" xmlns="http://www.w3.org/2000/svg" width="1024" height="1024">
<path d="M0 0 C337.92 0 675.84 0 1024 0 C1024 337.92 1024 675.84 1024 1024 C686.08 1024 348.16 1024 0 1024 C0 686.08 0 348.16 0 0 Z " fill="#FEFEFE" transform="translate(0,0)"/>
<path d="M0 0 C1.28509545 -0.00573832 1.28509545 -0.00573832 2.59615242 -0.01159257 C5.47188874 -0.02192559 8.3474255 -0.01792983 11.22317505 -0.01396179 C13.28297104 -0.01830812 15.34276541 -0.023491 17.40255737 -0.02944946 C23.00173652 -0.0428598 28.60084826 -0.04341582 34.20004034 -0.04088616 C38.87209815 -0.03981775 43.54414225 -0.04469655 48.21619713 -0.04949158 C59.23773923 -0.060594 70.25924725 -0.06102017 81.28079224 -0.05497742 C92.65518211 -0.04893713 104.02944829 -0.0612484 115.40381706 -0.08254749 C125.16527753 -0.10015498 134.9266986 -0.10616615 144.68817437 -0.10290974 C150.52004426 -0.10109525 156.35182595 -0.10374957 162.18368149 -0.11762428 C167.66824262 -0.13018396 173.15261078 -0.12827606 178.63716888 -0.11521339 C180.65034932 -0.11284394 182.66354326 -0.11559545 184.67670822 -0.12383652 C187.42467094 -0.1342745 190.17198269 -0.12622693 192.91992188 -0.11352539 C193.71681549 -0.12089968 194.5137091 -0.12827396 195.33475101 -0.13587171 C200.12054674 -0.08932732 203.50493948 0.50042345 207.58694458 3.26069641 C210.91390264 7.21874707 211.00828622 11.02917234 210.94770813 15.99917603 C210.9502714 16.77115599 210.95283468 17.54313596 210.95547563 18.33850926 C210.96041096 20.92126498 210.943925 23.50343413 210.92752075 26.08613586 C210.92667442 27.93906643 210.92714973 29.791998 210.92884827 31.64492798 C210.92970942 36.67348524 210.91206409 41.70182807 210.89112639 46.73033547 C210.87237972 51.98606547 210.87061074 57.24180032 210.86705017 62.49755859 C210.85772381 72.44932633 210.83310198 82.40099527 210.8030017 92.35271949 C210.76947613 103.68271478 210.75297631 115.01271478 210.7379154 126.34274733 C210.70655298 149.64878515 210.65378094 172.95473524 210.58694458 196.26069641 C212.02565304 196.25378296 212.02565304 196.25378296 213.49342632 196.24672985 C236.81995987 196.13578436 260.14645924 196.05359259 283.4732008 196.00163555 C294.75380512 195.97584233 306.03423525 195.9406703 317.31472778 195.88349915 C327.14559952 195.83369858 336.97634512 195.80141354 346.80733949 195.79025394 C352.01393737 195.78372954 357.22017438 195.76837194 362.42665672 195.73204613 C367.32601782 195.69813966 372.22486897 195.68763267 377.12433624 195.695158 C378.92349073 195.69378107 380.72266205 195.6838167 382.52171516 195.66466904 C384.97724792 195.63981361 387.43085206 195.64576244 389.88642883 195.65942383 C390.95599352 195.63757752 390.95599352 195.63757752 392.04716557 195.61528987 C395.92941103 195.67372894 397.47025083 196.16424079 400.50572681 198.67327595 C403.98101718 202.99384132 403.73297471 206.30701275 403.72738647 211.66775513 C403.73184316 212.98809762 403.73184316 212.98809762 403.73638988 214.3351137 C403.74510288 217.30226077 403.74658731 220.26936762 403.74807739 223.23652649 C403.75270373 225.35676154 403.75772814 227.47699576 403.76312256 229.597229 C403.77626637 235.36998914 403.78269538 241.14273764 403.78713322 246.91551042 C403.79006076 250.5193658 403.79416495 254.12321798 403.79863739 257.72707176 C403.81231755 268.99472598 403.82198166 280.26237289 403.82583928 291.53003484 C403.83032144 304.55165732 403.84787454 317.57317491 403.87683988 330.59476548 C403.89843298 340.65000462 403.90854229 350.7052142 403.9098804 360.76047629 C403.91093013 366.77064426 403.91687361 372.78071369 403.93470001 378.79085732 C403.95113969 384.4436351 403.95335615 390.09623985 403.944561 395.74903297 C403.94378843 397.82552554 403.94816226 399.90202724 403.95801926 401.97849655 C403.97067408 404.81010117 403.96489715 407.64108696 403.95443726 410.47268677 C403.96249366 411.29720315 403.97055007 412.12171954 403.9788506 412.97122127 C403.93916891 417.55450675 403.56519675 420.54667576 400.58694458 424.26069641 C396.95651586 426.68098223 394.31969589 426.53518338 390.12693787 426.50120544 C389.3607503 426.50291429 388.59456273 426.50462314 387.80515736 426.50638378 C385.23012826 426.50968587 382.65535801 426.49866323 380.08035278 426.48774719 C378.23756924 426.48718323 376.39478524 426.48749934 374.55200195 426.4886322 C369.54196964 426.48920731 364.53203261 426.47742738 359.52202249 426.46348429 C354.28896327 426.45100331 349.055902 426.44980851 343.8228302 426.44743347 C333.90997974 426.44121095 323.99717326 426.42478969 314.08434218 426.40473449 C302.80033384 426.3823995 291.51632343 426.37138811 280.23229849 426.36134362 C257.01715612 426.34042413 233.80205281 426.30523317 210.58694458 426.26069641 C210.59063175 427.21891359 210.59431892 428.17713078 210.59811783 429.16438484 C210.68689658 452.47459958 210.75263834 475.7847924 210.79419327 499.09514046 C210.81482281 510.36783479 210.842951 521.64041748 210.88870239 532.91304016 C210.92855803 542.73769514 210.95437454 552.56226926 210.96329856 562.38700283 C210.96851544 567.58966319 210.98078533 572.79209223 211.00986481 577.9946785 C211.03701367 582.89153197 211.04539059 587.78805881 211.03937531 592.68498039 C211.04047577 594.48209216 211.0484328 596.27921484 211.06376648 598.07626152 C211.08368648 600.53121713 211.07887697 602.98494169 211.06796265 605.43992615 C211.07961401 606.15005643 211.09126538 606.86018671 211.10326982 607.59183609 C211.04329799 612.58691662 209.78913508 615.45805564 206.58694458 619.26069641 C202.98133905 622.10651691 198.49713382 621.55099563 194.10469055 621.5415802 C192.80840279 621.55049357 192.80840279 621.55049357 191.4859274 621.559587 C188.58490903 621.57695537 185.68405577 621.57997694 182.7829895 621.58296204 C180.70511014 621.59221874 178.62723418 621.60226811 176.54936218 621.61305237 C170.90055016 621.63929973 165.25178568 621.65218992 159.6029222 621.66107368 C156.07441489 621.66693478 152.54592058 621.67514429 149.01741982 621.68408203 C137.97936125 621.71143071 126.94133239 621.73076506 115.90324229 621.73848581 C103.15772162 621.74744968 90.41262966 621.78255793 77.66723937 621.840487 C67.81744035 621.88370282 57.96776203 621.90389338 48.1178692 621.90656805 C42.23385507 621.90866527 36.35024397 621.92050385 30.46632957 621.95620728 C24.93154878 621.98913894 19.39747463 621.9934951 13.86263084 621.97592926 C11.83211374 621.9743869 9.80155887 621.98309556 7.77113724 622.00284576 C4.99663236 622.02824955 2.22463719 622.01655793 -0.54985046 621.99568176 C-1.75249447 622.01985098 -1.75249447 622.01985098 -2.97943431 622.04450846 C-8.40631747 621.94913598 -11.15821095 620.46100486 -15.09574622 616.74266958 C-18.02144376 613.45125914 -17.55013842 610.09092514 -17.53330994 605.92094421 C-17.53459157 604.7729445 -17.53459157 604.7729445 -17.5358991 603.60175288 C-17.53755316 601.0236885 -17.53203374 598.44568844 -17.52658081 595.86763 C-17.5262989 594.02499391 -17.52645675 592.18235771 -17.52702332 590.33972168 C-17.52731113 585.32552744 -17.52141702 580.31135696 -17.51444936 575.29716825 C-17.50821311 570.06143024 -17.50761181 564.82569172 -17.50642395 559.58995056 C-17.50331144 549.66999945 -17.49509912 539.75005932 -17.48507446 529.83011305 C-17.47391085 518.53886823 -17.46840225 507.24762289 -17.46337903 495.95637393 C-17.45291645 472.72447533 -17.43531854 449.49258649 -17.41305542 426.26069641 C-18.36611887 426.26530538 -19.31918232 426.26991434 -20.30112648 426.27466297 C-43.48614199 426.3856372 -66.67112308 426.46781391 -89.85634804 426.51975727 C-101.0685431 426.54554408 -112.28056277 426.58070389 -123.49264526 426.63789368 C-133.26456296 426.68771384 -143.03635363 426.71998396 -152.80839479 426.73113889 C-157.98316761 426.73765995 -163.15757703 426.75299647 -168.33223343 426.78934669 C-173.20287126 426.82328409 -178.072996 426.83375387 -182.94374084 426.82623482 C-184.73118757 426.82761037 -186.51865146 426.83755635 -188.30599594 426.85672379 C-190.74804295 426.88162765 -193.18815665 426.87561273 -195.63024902 426.86196899 C-196.33648836 426.8765332 -197.04272769 426.89109741 -197.77036822 426.90610296 C-203.34936258 426.82193295 -205.62809139 425.06233065 -209.41305542 421.26069641 C-211.03843687 418.00993351 -210.56481442 414.43294695 -210.56695557 410.86036682 C-210.57133782 409.98084406 -210.57572007 409.10132129 -210.58023512 408.19514632 C-210.59365358 405.2303406 -210.59980881 402.26556462 -210.60592651 399.30073547 C-210.61382506 397.18212244 -210.62209386 395.06351076 -210.63070679 392.94490051 C-210.65695483 385.97205394 -210.67223689 378.99920126 -210.68649292 372.02632141 C-210.6918514 369.62863409 -210.6972289 367.23094682 -210.70262527 364.83325958 C-210.72425779 354.86171108 -210.74299562 344.89016422 -210.75424767 334.91859818 C-210.77049357 320.61409964 -210.80368294 306.30987246 -210.86064851 292.00547624 C-210.89931151 281.95531908 -210.91887604 271.90523462 -210.92416823 261.85500503 C-210.92782657 255.84863535 -210.93989941 249.84255492 -210.97227097 243.83626556 C-211.00228737 238.18586536 -211.0086862 232.53593039 -210.99688721 226.88546753 C-210.99666594 224.81099465 -211.00501494 222.7365006 -211.02254105 220.66210175 C-211.04516334 217.83049168 -211.03696987 215.00057844 -211.02105713 212.16896057 C-211.03493922 211.34735703 -211.0488213 210.52575348 -211.06312406 209.67925286 C-211.00612444 205.56478519 -210.62786236 203.02186351 -208.00005531 199.7664299 C-204.05073045 195.94116667 -201.36339762 196.11913138 -196.11126709 196.14044189 C-194.96939271 196.13916026 -194.96939271 196.13916026 -193.80445015 196.13785273 C-191.24020519 196.13619871 -188.67602488 196.14171804 -186.11178589 196.14717102 C-184.27900189 196.14745293 -182.44621777 196.14729508 -180.61343384 196.14672852 C-175.6260982 196.14644071 -170.63878643 196.15233477 -165.65145636 196.15930247 C-160.44374556 196.16553877 -155.23603427 196.16614003 -150.02832031 196.16732788 C-140.16149313 196.17044038 -130.29467698 196.17865268 -120.42785466 196.18867737 C-109.19706819 196.19984102 -97.9662812 196.2053496 -86.73549056 196.21037281 C-63.62800606 196.22083535 -40.52053135 196.23843323 -17.41305542 196.26069641 C-17.41996887 194.81564004 -17.41996887 194.81564004 -17.42702198 193.34139061 C-17.53799443 169.90601843 -17.62017208 146.47068031 -17.67211628 123.03510094 C-17.69790348 111.70183858 -17.73306406 100.36874974 -17.79025269 89.03559875 C-17.84007162 79.15820565 -17.87234268 69.2809382 -17.88349789 59.40342295 C-17.89001916 54.1727605 -17.905357 48.94245754 -17.9417057 43.71191025 C-17.97564116 38.7887442 -17.98611326 33.86608577 -17.97859383 28.94281387 C-17.97996946 27.13601676 -17.98991658 25.32920269 -18.00908279 23.52250671 C-18.03398351 21.05419189 -18.02797276 18.58779018 -18.014328 16.11943054 C-18.03617431 15.0483987 -18.03617431 15.0483987 -18.05846196 13.95572984 C-17.97437691 8.32352267 -16.30766526 6.04246142 -12.41305542 2.26069641 C-8.7511019 -0.52408246 -4.41142686 -0.02080502 0 0 Z " fill="#FEFEFE" transform="translate(415.4130554199219,200.7393035888672)"/>
<path d="M0 0 C1.28509545 -0.00573832 1.28509545 -0.00573832 2.59615242 -0.01159257 C5.47188874 -0.02192559 8.3474255 -0.01792983 11.22317505 -0.01396179 C13.28297104 -0.01830812 15.34276541 -0.023491 17.40255737 -0.02944946 C23.00173652 -0.0428598 28.60084826 -0.04341582 34.20004034 -0.04088616 C38.87209815 -0.03981775 43.54414225 -0.04469655 48.21619713 -0.04949158 C59.23773923 -0.060594 70.25924725 -0.06102017 81.28079224 -0.05497742 C92.65518211 -0.04893713 104.02944829 -0.0612484 115.40381706 -0.08254749 C125.16527753 -0.10015498 134.9266986 -0.10616615 144.68817437 -0.10290974 C150.52004426 -0.10109525 156.35182595 -0.10374957 162.18368149 -0.11762428 C167.66824262 -0.13018396 173.15261078 -0.12827606 178.63716888 -0.11521339 C180.65034932 -0.11284394 182.66354326 -0.11559545 184.67670822 -0.12383652 C187.42467094 -0.1342745 190.17198269 -0.12622693 192.91992188 -0.11352539 C193.71681549 -0.12089968 194.5137091 -0.12827396 195.33475101 -0.13587171 C200.12054674 -0.08932732 203.50493948 0.50042345 207.58694458 3.26069641 C210.91390264 7.21874707 211.00828622 11.02917234 210.94770813 15.99917603 C210.9502714 16.77115599 210.95283468 17.54313596 210.95547563 18.33850926 C210.96041096 20.92126498 210.943925 23.50343413 210.92752075 26.08613586 C210.92667442 27.93906643 210.92714973 29.791998 210.92884827 31.64492798 C210.92970942 36.67348524 210.91206409 41.70182807 210.89112639 46.73033547 C210.87237972 51.98606547 210.87061074 57.24180032 210.86705017 62.49755859 C210.85772381 72.44932633 210.83310198 82.40099527 210.8030017 92.35271949 C210.76947613 103.68271478 210.75297631 115.01271478 210.7379154 126.34274733 C210.70655298 149.64878515 210.65378094 172.95473524 210.58694458 196.26069641 C212.02565304 196.25378296 212.02565304 196.25378296 213.49342632 196.24672985 C236.81995987 196.13578436 260.14645924 196.05359259 283.4732008 196.00163555 C294.75380512 195.97584233 306.03423525 195.9406703 317.31472778 195.88349915 C327.14559952 195.83369858 336.97634512 195.80141354 346.80733949 195.79025394 C352.01393737 195.78372954 357.22017438 195.76837194 362.42665672 195.73204613 C367.32601782 195.69813966 372.22486897 195.68763267 377.12433624 195.695158 C378.92349073 195.69378107 380.72266205 195.6838167 382.52171516 195.66466904 C384.97724792 195.63981361 387.43085206 195.64576244 389.88642883 195.65942383 C390.95599352 195.63757752 390.95599352 195.63757752 392.04716557 195.61528987 C395.92941103 195.67372894 397.47025083 196.16424079 400.50572681 198.67327595 C403.98101718 202.99384132 403.73297471 206.30701275 403.72738647 211.66775513 C403.73184316 212.98809762 403.73184316 212.98809762 403.73638988 214.3351137 C403.74510288 217.30226077 403.74658731 220.26936762 403.74807739 223.23652649 C403.75270373 225.35676154 403.75772814 227.47699576 403.76312256 229.597229 C403.77626637 235.36998914 403.78269538 241.14273764 403.78713322 246.91551042 C403.79006076 250.5193658 403.79416495 254.12321798 403.79863739 257.72707176 C403.81231755 268.99472598 403.82198166 280.26237289 403.82583928 291.53003484 C403.83032144 304.55165732 403.84787454 317.57317491 403.87683988 330.59476548 C403.89843298 340.65000462 403.90854229 350.7052142 403.9098804 360.76047629 C403.91093013 366.77064426 403.91687361 372.78071369 403.93470001 378.79085732 C403.95113969 384.4436351 403.95335615 390.09623985 403.944561 395.74903297 C403.94378843 397.82552554 403.94816226 399.90202724 403.95801926 401.97849655 C403.97067408 404.81010117 403.96489715 407.64108696 403.95443726 410.47268677 C403.96249366 411.29720315 403.97055007 412.12171954 403.9788506 412.97122127 C403.93916891 417.55450675 403.56519675 420.54667576 400.58694458 424.26069641 C396.95651586 426.68098223 394.31969589 426.53518338 390.12693787 426.50120544 C389.3607503 426.50291429 388.59456273 426.50462314 387.80515736 426.50638378 C385.23012826 426.50968587 382.65535801 426.49866323 380.08035278 426.48774719 C378.23756924 426.48718323 376.39478524 426.48749934 374.55200195 426.4886322 C369.54196964 426.48920731 364.53203261 426.47742738 359.52202249 426.46348429 C354.28896327 426.45100331 349.055902 426.44980851 343.8228302 426.44743347 C333.90997974 426.44121095 323.99717326 426.42478969 314.08434218 426.40473449 C302.80033384 426.3823995 291.51632343 426.37138811 280.23229849 426.36134362 C257.01715612 426.34042413 233.80205281 426.30523317 210.58694458 426.26069641 C210.59063175 427.21891359 210.59431892 428.17713078 210.59811783 429.16438484 C210.68689658 452.47459958 210.75263834 475.7847924 210.79419327 499.09514046 C210.81482281 510.36783479 210.842951 521.64041748 210.88870239 532.91304016 C210.92855803 542.73769514 210.95437454 552.56226926 210.96329856 562.38700283 C210.96851544 567.58966319 210.98078533 572.79209223 211.00986481 577.9946785 C211.03701367 582.89153197 211.04539059 587.78805881 211.03937531 592.68498039 C211.04047577 594.48209216 211.0484328 596.27921484 211.06376648 598.07626152 C211.08368648 600.53121713 211.07887697 602.98494169 211.06796265 605.43992615 C211.07961401 606.15005643 211.09126538 606.86018671 211.10326982 607.59183609 C211.04329799 612.58691662 209.78913508 615.45805564 206.58694458 619.26069641 C202.98133905 622.10651691 198.49713382 621.55099563 194.10469055 621.5415802 C192.80840279 621.55049357 192.80840279 621.55049357 191.4859274 621.559587 C188.58490903 621.57695537 185.68405577 621.57997694 182.7829895 621.58296204 C180.70511014 621.59221874 178.62723418 621.60226811 176.54936218 621.61305237 C170.90055016 621.63929973 165.25178568 621.65218992 159.6029222 621.66107368 C156.07441489 621.66693478 152.54592058 621.67514429 149.01741982 621.68408203 C137.97936125 621.71143071 126.94133239 621.73076506 115.90324229 621.73848581 C103.15772162 621.74744968 90.41262966 621.78255793 77.66723937 621.840487 C67.81744035 621.88370282 57.96776203 621.90389338 48.1178692 621.90656805 C42.23385507 621.90866527 36.35024397 621.92050385 30.46632957 621.95620728 C24.93154878 621.98913894 19.39747463 621.9934951 13.86263084 621.97592926 C11.83211374 621.9743869 9.80155887 621.98309556 7.77113724 622.00284576 C4.99663236 622.02824955 2.22463719 622.01655793 -0.54985046 621.99568176 C-1.75249447 622.01985098 -1.75249447 622.01985098 -2.97943431 622.04450846 C-8.40631747 621.94913598 -11.15821095 620.46100486 -15.09574622 616.74266958 C-18.02144376 613.45125914 -17.55013842 610.09092514 -17.53330994 605.92094421 C-17.53459157 604.7729445 -17.53459157 604.7729445 -17.5358991 603.60175288 C-17.53755316 601.0236885 -17.53203374 598.44568844 -17.52658081 595.86763 C-17.5262989 594.02499391 -17.52645675 592.18235771 -17.52702332 590.33972168 C-17.52731113 585.32552744 -17.52141702 580.31135696 -17.51444936 575.29716825 C-17.50821311 570.06143024 -17.50761181 564.82569172 -17.50642395 559.58995056 C-17.50331144 549.66999945 -17.49509912 539.75005932 -17.48507446 529.83011305 C-17.47391085 518.53886823 -17.46840225 507.24762289 -17.46337903 495.95637393 C-17.45291645 472.72447533 -17.43531854 449.49258649 -17.41305542 426.26069641 C-18.36611887 426.26530538 -19.31918232 426.26991434 -20.30112648 426.27466297 C-43.48614199 426.3856372 -66.67112308 426.46781391 -89.85634804 426.51975727 C-101.0685431 426.54554408 -112.28056277 426.58070389 -123.49264526 426.63789368 C-133.26456296 426.68771384 -143.03635363 426.71998396 -152.80839479 426.73113889 C-157.98316761 426.73765995 -163.15757703 426.75299647 -168.33223343 426.78934669 C-173.20287126 426.82328409 -178.072996 426.83375387 -182.94374084 426.82623482 C-184.73118757 426.82761037 -186.51865146 426.83755635 -188.30599594 426.85672379 C-190.74804295 426.88162765 -193.18815665 426.87561273 -195.63024902 426.86196899 C-196.33648836 426.8765332 -197.04272769 426.89109741 -197.77036822 426.90610296 C-203.34936258 426.82193295 -205.62809139 425.06233065 -209.41305542 421.26069641 C-211.03843687 418.00993351 -210.56481442 414.43294695 -210.56695557 410.86036682 C-210.57133782 409.98084406 -210.57572007 409.10132129 -210.58023512 408.19514632 C-210.59365358 405.2303406 -210.59980881 402.26556462 -210.60592651 399.30073547 C-210.61382506 397.18212244 -210.62209386 395.06351076 -210.63070679 392.94490051 C-210.65695483 385.97205394 -210.67223689 378.99920126 -210.68649292 372.02632141 C-210.6918514 369.62863409 -210.6972289 367.23094682 -210.70262527 364.83325958 C-210.72425779 354.86171108 -210.74299562 344.89016422 -210.75424767 334.91859818 C-210.77049357 320.61409964 -210.80368294 306.30987246 -210.86064851 292.00547624 C-210.89931151 281.95531908 -210.91887604 271.90523462 -210.92416823 261.85500503 C-210.92782657 255.84863535 -210.93989941 249.84255492 -210.97227097 243.83626556 C-211.00228737 238.18586536 -211.0086862 232.53593039 -210.99688721 226.88546753 C-210.99666594 224.81099465 -211.00501494 222.7365006 -211.02254105 220.66210175 C-211.04516334 217.83049168 -211.03696987 215.00057844 -211.02105713 212.16896057 C-211.03493922 211.34735703 -211.0488213 210.52575348 -211.06312406 209.67925286 C-211.00612444 205.56478519 -210.62786236 203.02186351 -208.00005531 199.7664299 C-204.05073045 195.94116667 -201.36339762 196.11913138 -196.11126709 196.14044189 C-194.96939271 196.13916026 -194.96939271 196.13916026 -193.80445015 196.13785273 C-191.24020519 196.13619871 -188.67602488 196.14171804 -186.11178589 196.14717102 C-184.27900189 196.14745293 -182.44621777 196.14729508 -180.61343384 196.14672852 C-175.6260982 196.14644071 -170.63878643 196.15233477 -165.65145636 196.15930247 C-160.44374556 196.16553877 -155.23603427 196.16614003 -150.02832031 196.16732788 C-140.16149313 196.17044038 -130.29467698 196.17865268 -120.42785466 196.18867737 C-109.19706819 196.19984102 -97.9662812 196.2053496 -86.73549056 196.21037281 C-63.62800606 196.22083535 -40.52053135 196.23843323 -17.41305542 196.26069641 C-17.41996887 194.81564004 -17.41996887 194.81564004 -17.42702198 193.34139061 C-17.53799443 169.90601843 -17.62017208 146.47068031 -17.67211628 123.03510094 C-17.69790348 111.70183858 -17.73306406 100.36874974 -17.79025269 89.03559875 C-17.84007162 79.15820565 -17.87234268 69.2809382 -17.88349789 59.40342295 C-17.89001916 54.1727605 -17.905357 48.94245754 -17.9417057 43.71191025 C-17.97564116 38.7887442 -17.98611326 33.86608577 -17.97859383 28.94281387 C-17.97996946 27.13601676 -17.98991658 25.32920269 -18.00908279 23.52250671 C-18.03398351 21.05419189 -18.02797276 18.58779018 -18.014328 16.11943054 C-18.03617431 15.0483987 -18.03617431 15.0483987 -18.05846196 13.95572984 C-17.97437691 8.32352267 -16.30766526 6.04246142 -12.41305542 2.26069641 C-8.7511019 -0.52408246 -4.41142686 -0.02080502 0 0 Z M4.58694458 22.26069641 C4.37682932 82.50002768 4.37682932 82.50002768 4.19900513 142.73945618 C4.14907837 154.38752747 4.14907837 154.38752747 4.12193298 159.83966064 C4.1039887 163.64936558 4.09438858 167.45899375 4.08982849 171.26873779 C4.08373726 176.12953836 4.06340086 180.99008408 4.03278315 185.8507899 C4.02397068 187.63389841 4.02014738 189.41704027 4.0219053 191.20016968 C4.02356242 193.61159897 4.00686905 196.02224192 3.985672 198.43356323 C3.99052014 199.12890639 3.99536829 199.82424955 4.00036335 200.54066372 C3.930315 205.39283477 2.9539017 209.0257806 0.58694458 213.26069641 C-3.28385109 216.60910331 -7.12117503 216.69323062 -12.03764343 216.65942383 C-13.17449837 216.66938637 -13.17449837 216.66938637 -14.33432007 216.67955017 C-16.87738419 216.69821035 -19.41997919 216.69555218 -21.96310425 216.69306946 C-23.81599682 216.70217425 -25.66888336 216.71258705 -27.52176189 216.72420216 C-32.48360772 216.75169411 -37.44533715 216.76128377 -42.40724945 216.76717377 C-47.06334079 216.7754106 -51.71929309 216.79978093 -56.37533569 216.8228302 C-69.99201619 216.88083387 -83.60879705 216.91293196 -97.22555542 216.94819641 C-142.85836792 217.10288391 -142.85836792 217.10288391 -189.41305542 217.26069641 C-189.41305542 279.30069641 -189.41305542 341.34069641 -189.41305542 405.26069641 C-128.42543134 405.43124016 -128.42543134 405.43124016 -67.43771362 405.55854797 C-55.65365601 405.60395813 -55.65365601 405.60395813 -50.14051819 405.63026428 C-46.28236483 405.64729907 -42.42436748 405.65312667 -38.56617737 405.65223694 C-33.6472966 405.65146717 -28.72883327 405.66969625 -23.81006086 405.70178556 C-22.00332088 405.71031866 -20.19653396 405.71213203 -18.38978255 405.70652056 C-15.95122492 405.69990492 -13.51402784 405.71772087 -11.0756073 405.74171448 C-10.36665912 405.73395367 -9.65771093 405.72619286 -8.92727947 405.71819687 C-4.1601652 405.80112691 -1.72242725 406.84110969 1.58694458 410.26069641 C4.14967153 413.78019192 3.87680794 417.61081813 3.86541748 421.80299377 C3.87410608 422.94743143 3.87410608 422.94743143 3.88297021 424.11498904 C3.89998354 426.67304102 3.90284785 429.23091273 3.90579224 431.78901672 C3.91508949 433.62210025 3.92525786 435.45517954 3.93623352 437.28825378 C3.96357039 442.26718796 3.97869387 447.24609379 3.99166155 452.22508335 C4.00727595 457.42747824 4.03407155 462.62981508 4.05969238 467.83216858 C4.10651013 477.68473567 4.14323975 487.53731365 4.17636526 497.38993526 C4.2217062 510.70295818 4.28258953 524.01590937 4.34261322 537.32887268 C4.43678189 558.30611133 4.51014897 579.28337032 4.58694458 600.26069641 C65.63694458 600.26069641 126.68694458 600.26069641 189.58694458 600.26069641 C189.62432739 586.81964172 189.66171021 573.37858704 189.70022583 559.53022766 C189.73049057 551.03086826 189.761506 542.53152267 189.79592896 534.03218079 C189.85046349 520.53243747 189.90187411 507.03273253 189.93338013 493.53291321 C189.95633775 483.7019827 189.98971073 473.8711525 190.03564614 464.0403015 C190.0596085 458.83384722 190.07831754 453.62749246 190.08455849 448.42098427 C190.09059569 443.52164145 190.11054615 438.62255337 190.14122009 433.72330475 C190.15002221 431.92419642 190.15371841 430.12505482 190.15195274 428.32592583 C190.15030382 425.87072561 190.16696615 423.41630548 190.18821716 420.96121216 C190.1809458 419.89164747 190.1809458 419.89164747 190.17352754 418.80047542 C190.23566713 414.45469718 190.91246173 411.70915483 193.58694458 408.26069641 C197.20236044 405.85041917 199.83188828 405.97091265 204.00898743 405.98222351 C204.76925232 405.97643784 205.52951721 405.97065216 206.31282043 405.96469116 C208.87583557 405.94762019 211.43867194 405.94481935 214.0017395 405.94184875 C215.86439867 405.93244198 217.72705361 405.92216343 219.58970356 405.91108131 C224.58686544 405.88376618 229.58399779 405.86841478 234.5812149 405.85549927 C239.26696199 405.84158833 243.95262831 405.81694447 248.63833618 405.79316711 C262.35032666 405.72986506 276.0623925 405.6838413 289.77444458 405.63569641 C335.71663208 405.45007141 335.71663208 405.45007141 382.58694458 405.26069641 C382.58694458 343.22069641 382.58694458 281.18069641 382.58694458 217.26069641 C321.5993205 217.09015266 321.5993205 217.09015266 260.61160278 216.96284485 C248.82754517 216.91743469 248.82754517 216.91743469 243.31440735 216.89112854 C239.45625399 216.87409376 235.59825664 216.86826615 231.74006653 216.86915588 C226.82118576 216.86992566 221.90272243 216.85169657 216.98395002 216.81960726 C215.17721004 216.81107416 213.37042312 216.80926079 211.56367171 216.81487226 C209.12511408 216.8214879 206.687917 216.80367195 204.24949646 216.77967834 C203.54054828 216.78743916 202.83160009 216.79519997 202.10116863 216.80319595 C197.34438934 216.7204457 194.93214115 215.62029929 191.58694458 212.26069641 C190.08684118 209.26048961 190.43316225 206.17415393 190.4287262 202.88298035 C190.42378822 202.11356365 190.41885024 201.34414696 190.41376263 200.55141461 C190.39833968 197.95955637 190.39001407 195.36772299 190.38162231 192.77583313 C190.37204756 190.92334269 190.36203772 189.07085445 190.35162354 187.21836853 C190.3245248 182.17733947 190.30354219 177.13630101 190.28362155 172.09523916 C190.26179258 166.83145516 190.23438881 161.56770032 190.20756531 156.30393982 C190.15759656 146.33088597 190.11267327 136.35781597 190.06954294 126.38473046 C190.0109875 112.91189072 189.94467822 99.43908931 189.87879276 85.9662838 C189.77515267 64.73111381 189.68190701 43.49591108 189.58694458 22.26069641 C128.53694458 22.26069641 67.48694458 22.26069641 4.58694458 22.26069641 Z " fill="#0E0E0E" transform="translate(415.4130554199219,200.7393035888672)"/>
<path d="M0 0 C7.45005408 6.66867408 12.30122037 13.7009995 16.16015625 22.93359375 C16.50175781 23.73796875 16.84335937 24.54234375 17.1953125 25.37109375 C22.77480259 41.56459057 19.82666157 60.82833219 12.59765625 75.87109375 C2.24265481 96.2415489 -15.77564992 112.0561398 -31.72509766 128.00415039 C-34.49929067 130.78056829 -37.26533711 133.56494536 -40.03125 136.34960938 C-41.79248113 138.1137682 -43.55418209 139.87745812 -45.31640625 141.640625 C-46.1433902 142.47479446 -46.97037415 143.30896393 -47.82241821 144.16841125 C-48.58436493 144.92728134 -49.34631165 145.68615143 -50.13134766 146.46801758 C-50.80130768 147.13940262 -51.4712677 147.81078766 -52.16152954 148.5025177 C-53.83984375 149.93359375 -53.83984375 149.93359375 -55.83984375 149.93359375 C-56.49984375 151.25359375 -57.15984375 152.57359375 -57.83984375 153.93359375 C-58.49984375 153.93359375 -59.15984375 153.93359375 -59.83984375 153.93359375 C-59.83984375 154.59359375 -59.83984375 155.25359375 -59.83984375 155.93359375 C-60.49984375 156.26359375 -61.15984375 156.59359375 -61.83984375 156.93359375 C-33.78984375 157.26359375 -5.73984375 157.59359375 23.16015625 157.93359375 C23.16015625 167.17359375 23.16015625 176.41359375 23.16015625 185.93359375 C-19.73984375 185.93359375 -62.63984375 185.93359375 -106.83984375 185.93359375 C-106.83984375 157.93359375 -106.83984375 157.93359375 -102.52734375 150.8515625 C-99.765625 148.34960938 -99.765625 148.34960938 -96.83984375 146.12109375 C-95.90527344 145.30447266 -94.97070312 144.48785156 -94.0078125 143.64648438 C-92.26063865 142.13267431 -90.48663982 140.64869067 -88.67578125 139.21166992 C-81.29256096 133.28081347 -74.52920139 126.79391938 -67.8203125 120.1171875 C-67.35594599 119.65564837 -66.89157948 119.19410923 -66.41314125 118.71858406 C-63.95332519 116.27364908 -61.49631493 113.82593686 -59.04174805 111.37573242 C-57.04211851 109.38047685 -55.03785178 107.39007572 -53.02905273 105.40405273 C-31.96617993 85.6369578 -31.96617993 85.6369578 -17.83984375 60.93359375 C-17.47632813 59.96099609 -17.47632813 59.96099609 -17.10546875 58.96875 C-14.23056967 49.78072793 -14.79716752 39.14720429 -18.52734375 30.33984375 C-22.27135119 23.47583012 -27.34135387 19.94532162 -34.7421875 17.59375 C-42.86977121 15.861642 -51.33282168 15.63971332 -58.8125 19.609375 C-67.99618476 25.60796678 -72.40314639 32.24961301 -74.83984375 42.93359375 C-75.16984375 45.90359375 -75.49984375 48.87359375 -75.83984375 51.93359375 C-86.39984375 51.93359375 -96.95984375 51.93359375 -107.83984375 51.93359375 C-107.83984375 34.18365224 -102.9754224 16.88542207 -90.46484375 3.80859375 C-65.95938784 -18.70811127 -26.11671297 -21.41846831 0 0 Z " fill="#0E0F0E" transform="translate(552.83984375,419.06640625)"/>
<path d="M0 0 C0.72469449 0.00291284 1.44938898 0.00582568 2.19604391 0.00882679 C2.96052262 0.00797237 3.72500134 0.00711794 4.51264608 0.00623763 C7.09381641 0.00458052 9.67492283 0.01010794 12.25608724 0.01555592 C14.09857583 0.01583777 15.94106454 0.0156801 17.78355306 0.01511341 C22.80193859 0.01482534 27.82030044 0.02072356 32.83868045 0.02768737 C38.07709361 0.03391938 43.31550725 0.03452459 48.55392355 0.03571278 C58.48099114 0.03882655 68.40804778 0.04704055 78.33511055 0.05706227 C89.63358718 0.068222 100.93206433 0.0737335 112.2305451 0.0787577 C135.47921823 0.08922312 158.72788162 0.10682344 181.97654623 0.12908131 C181.97654623 0.78908131 181.97654623 1.44908131 181.97654623 2.12908131 C120.59654623 2.12908131 59.21654623 2.12908131 -4.02345377 2.12908131 C-3.94422925 62.54865469 -3.94422925 62.54865469 -3.84327799 122.96819264 C-3.83424479 134.63433033 -3.83424479 134.63433033 -3.83256632 140.08982044 C-3.83069747 143.91304539 -3.82318053 147.7362152 -3.81230265 151.55942494 C-3.7986271 156.43012567 -3.79446353 161.30074575 -3.79730922 166.17146391 C-3.79671381 167.96278555 -3.79272279 169.7541099 -3.78502351 171.5454151 C-3.77513215 173.95803548 -3.77745291 176.37033913 -3.78294474 178.7829662 C-3.77711941 179.48996001 -3.77129408 180.19695383 -3.76529223 180.92537171 C-3.78767215 184.56259732 -3.94415164 186.01012811 -6.02345377 189.12908131 C-6.04677989 164.63419826 -6.06443153 140.13931688 -6.07526594 115.64442497 C-6.08042951 104.27187501 -6.08747337 92.89933193 -6.09889323 81.52678639 C-6.10883821 71.61831267 -6.11530675 61.70984394 -6.11754227 51.80136538 C-6.11884969 46.55145226 -6.12193754 41.30155342 -6.12918383 36.05164486 C-6.13594112 31.11631135 -6.13807133 26.18099806 -6.13656145 21.24566036 C-6.13683791 19.42872721 -6.13884476 17.61179341 -6.14265925 15.79486424 C-6.14759195 13.32539842 -6.14645364 10.85601025 -6.14370829 8.38654286 C-6.14662113 7.65795742 -6.14953397 6.92937198 -6.15253508 6.1787082 C-6.13479169 0.32496362 -5.85678765 0.01784726 0 0 Z " fill="#222323" transform="translate(424.023453772068,220.8709186911583)"/>
<path d="M0 0 C0 6.415282 -7.81155054 11.89615313 -12.0625 16.25 C-15.51206467 19.67323212 -18.79799052 22.56725767 -23 25 C-21.43717018 21.23396131 -19.0936525 18.86360849 -16.2109375 16.015625 C-15.74765045 15.55516785 -15.2843634 15.09471069 -14.80703735 14.62030029 C-13.33434102 13.15874922 -11.85482597 11.70432832 -10.375 10.25 C-9.37193678 9.25697389 -8.36932743 8.26348911 -7.3671875 7.26953125 C-4.91669165 4.84102059 -2.4600333 2.41885325 0 0 Z " fill="#060606" transform="translate(494,530)"/>
</svg>
